M48
; DRILL file {KiCad 8.0.6-1.fc41} date 2024-11-10T15:41:00-0500
; FORMAT={-:-/ absolute / inch / decimal}
; #@! TF.CreationDate,2024-11-10T15:41:00-05:00
; #@! TF.GenerationSoftware,Kicad,Pcbnew,8.0.6-1.fc41
; #@! TF.FileFunction,Plated,1,2,PTH
FMAT,2
INCH
; #@! TA.AperFunction,Plated,PTH,ViaDrill
T1C0.0157
; #@! TA.AperFunction,Plated,PTH,ComponentDrill
T2C0.0394
%
G90
G05
T1
X1.0236Y-1.0236
X1.0236Y-1.063
X1.0236Y-1.1024
X1.0236Y-1.1417
X1.0236Y-1.1811
X1.0236Y-1.2205
X1.0236Y-1.2598
X1.0236Y-1.2992
X1.0236Y-1.3386
X1.0236Y-1.378
X1.0236Y-1.4173
X1.0236Y-1.4567
X1.0236Y-1.4961
X1.0236Y-1.5354
X1.0236Y-1.5748
X1.0236Y-1.6142
X1.0236Y-1.6535
X1.0236Y-1.6929
X1.0236Y-1.7323
X1.0236Y-1.7717
X1.0236Y-1.811
X1.0236Y-1.8504
X1.0236Y-1.8898
X1.0236Y-1.9291
X1.063Y-1.0236
X1.063Y-1.9291
X1.1024Y-1.0236
X1.1024Y-1.9291
X1.1417Y-1.0236
X1.1417Y-1.9291
X1.1516Y-1.6732
X1.1614Y-1.2106
X1.1811Y-1.0236
X1.1811Y-1.8504
X1.1811Y-1.9291
X1.1909Y-1.1811
X1.1909Y-1.2598
X1.1909Y-1.2992
X1.1909Y-1.3386
X1.1909Y-1.5748
X1.2106Y-1.7421
X1.2205Y-1.0236
X1.2205Y-1.1516
X1.2205Y-1.2303
X1.2205Y-1.9291
X1.25Y-1.3583
X1.2598Y-1.0236
X1.2598Y-1.1516
X1.2598Y-1.2106
X1.2598Y-1.9291
X1.2992Y-1.0236
X1.2992Y-1.1516
X1.2992Y-1.2106
X1.2992Y-1.8504
X1.2992Y-1.9291
X1.3376Y-1.4783
X1.3386Y-1.0236
X1.3386Y-1.1516
X1.3386Y-1.2106
X1.3386Y-1.9291
X1.3484Y-1.752
X1.3484Y-1.8498
X1.3585Y-1.3585
X1.378Y-1.0236
X1.378Y-1.1516
X1.378Y-1.2106
X1.378Y-1.9291
X1.3957Y-1.8498
X1.4173Y-1.0236
X1.4173Y-1.9291
X1.437Y-1.4783
X1.4567Y-1.0236
X1.4567Y-1.9291
X1.4665Y-1.8504
X1.4862Y-1.6929
X1.4961Y-1.0236
X1.4961Y-1.0748
X1.4961Y-1.9291
X1.5157Y-1.8504
X1.5354Y-1.0236
X1.5354Y-1.1417
X1.5354Y-1.9291
X1.5453Y-1.624
X1.565Y-1.7913
X1.565Y-1.8504
X1.5669Y-1.4882
X1.5748Y-1.0236
X1.5748Y-1.1024
X1.5748Y-1.1417
X1.5748Y-1.9291
X1.5945Y-1.2151
X1.5945Y-1.752
X1.6142Y-1.0236
X1.6142Y-1.1024
X1.6142Y-1.1417
X1.6142Y-1.4646
X1.6142Y-1.5276
X1.6142Y-1.9291
X1.6201Y-1.4035
X1.624Y-1.7913
X1.624Y-1.8504
X1.6535Y-1.0236
X1.6535Y-1.1024
X1.6535Y-1.9291
X1.6732Y-1.8504
X1.6929Y-1.0236
X1.6929Y-1.1024
X1.6929Y-1.9291
X1.7323Y-1.0236
X1.7323Y-1.1024
X1.7323Y-1.8504
X1.7323Y-1.9291
X1.7638Y-1.5846
X1.7657Y-1.6874
X1.7717Y-1.0236
X1.7717Y-1.1024
X1.7717Y-1.9291
X1.8012Y-1.5276
X1.811Y-1.0236
X1.811Y-1.1024
X1.811Y-1.9291
X1.8169Y-1.6929
X1.8504Y-1.0236
X1.8504Y-1.1024
X1.8504Y-1.1417
X1.8504Y-1.1811
X1.8504Y-1.2205
X1.8504Y-1.9291
X1.8898Y-1.0236
X1.8898Y-1.9291
X1.8996Y-1.5561
X1.9291Y-1.0236
X1.9291Y-1.063
X1.9291Y-1.1024
X1.9291Y-1.1417
X1.9291Y-1.1811
X1.9291Y-1.2205
X1.9291Y-1.2598
X1.9291Y-1.2992
X1.9291Y-1.3386
X1.9291Y-1.378
X1.9291Y-1.4173
X1.9291Y-1.4567
X1.9291Y-1.4961
X1.9291Y-1.6142
X1.9291Y-1.6535
X1.9291Y-1.6929
X1.9291Y-1.7323
X1.9291Y-1.7717
X1.9291Y-1.811
X1.9291Y-1.8504
X1.9291Y-1.8898
X1.9291Y-1.9291
T2
X1.1024Y-1.1219
X1.1024Y-1.2219
X1.1024Y-1.3219
X1.1024Y-1.4219
X1.1024Y-1.5219
X1.1024Y-1.6219
X1.1024Y-1.7219
X1.1024Y-1.8219
M30
