%TF.GenerationSoftware,KiCad,Pcbnew,8.0.6-1.fc41*%
%TF.CreationDate,2024-11-09T22:52:13-05:00*%
%TF.ProjectId,Dead-Time-Insertion-PCB,44656164-2d54-4696-9d65-2d496e736572,rev?*%
%TF.SameCoordinates,Original*%
%TF.FileFunction,Copper,L2,Bot*%
%TF.FilePolarity,Positive*%
%FSLAX46Y46*%
G04 Gerber Fmt 4.6, Leading zero omitted, Abs format (unit mm)*
G04 Created by KiCad (PCBNEW 8.0.6-1.fc41) date 2024-11-09 22:52:13*
%MOMM*%
%LPD*%
G01*
G04 APERTURE LIST*
%TA.AperFunction,ComponentPad*%
%ADD10R,1.700000X1.700000*%
%TD*%
%TA.AperFunction,ComponentPad*%
%ADD11O,1.700000X1.700000*%
%TD*%
%TA.AperFunction,ViaPad*%
%ADD12C,0.800000*%
%TD*%
%TA.AperFunction,Conductor*%
%ADD13C,0.250000*%
%TD*%
G04 APERTURE END LIST*
D10*
%TO.P,J1,1,Pin_1*%
%TO.N,/DEAD_TIME_CTRL*%
X114681000Y-86726000D03*
D11*
%TO.P,J1,2,Pin_2*%
%TO.N,/INPUT*%
X114681000Y-84186000D03*
%TO.P,J1,3,Pin_3*%
%TO.N,/INVERT_OUTPUT*%
X114681000Y-81646000D03*
%TO.P,J1,4,Pin_4*%
%TO.N,/~{ENABLE}*%
X114681000Y-79106000D03*
%TO.P,J1,5,Pin_5*%
%TO.N,VCC*%
X114681000Y-76566000D03*
%TO.P,J1,6,Pin_6*%
%TO.N,GND*%
X114681000Y-74026000D03*
%TO.P,J1,7,Pin_7*%
%TO.N,/OUT_L*%
X114681000Y-71486000D03*
%TO.P,J1,8,Pin_8*%
%TO.N,/OUT_H*%
X114681000Y-68946000D03*
%TD*%
D12*
%TO.N,GND*%
X120800000Y-80200000D03*
%TO.N,/DEAD_TIME_CTRL*%
X133050000Y-83600000D03*
X135318500Y-75604000D03*
%TO.N,/INPUT*%
X129158000Y-78603500D03*
X124078000Y-78476500D03*
%TO.N,/~{ENABLE}*%
X128546500Y-69840500D03*
X125856000Y-69713500D03*
%TO.N,+5V*%
X128020000Y-81400000D03*
X117550000Y-78800000D03*
X123526500Y-84270000D03*
X129653000Y-68763000D03*
X124761500Y-68649000D03*
X135143000Y-80902500D03*
X130600000Y-78400000D03*
%TO.N,Net-(Q2-C)*%
X132600000Y-80800000D03*
X133000000Y-75600000D03*
%TO.N,Net-(Q3-C)*%
X125602000Y-82667500D03*
X130400000Y-73015500D03*
X134381000Y-69713500D03*
%TD*%
D13*
%TO.N,/DEAD_TIME_CTRL*%
X133600000Y-77322500D02*
X133600000Y-83050000D01*
X133600000Y-83050000D02*
X133050000Y-83600000D01*
X135318500Y-75604000D02*
X133600000Y-77322500D01*
%TO.N,/INPUT*%
X129158000Y-78603500D02*
X124205000Y-78603500D01*
X124205000Y-78603500D02*
X124078000Y-78476500D01*
%TO.N,/~{ENABLE}*%
X128419500Y-69713500D02*
X125856000Y-69713500D01*
X128546500Y-69840500D02*
X128419500Y-69713500D01*
X124073500Y-69713500D02*
X114681000Y-79106000D01*
X125856000Y-69713500D02*
X124073500Y-69713500D01*
%TO.N,+5V*%
X123456500Y-84200000D02*
X123526500Y-84270000D01*
%TO.N,Net-(Q2-C)*%
X132600000Y-80241500D02*
X133000000Y-79841500D01*
X132600000Y-80800000D02*
X132600000Y-80241500D01*
X133000000Y-79841500D02*
X133000000Y-75600000D01*
%TO.N,Net-(Q3-C)*%
X132200000Y-79550000D02*
X129082500Y-82667500D01*
X134381000Y-70634500D02*
X134381000Y-69713500D01*
X132200000Y-73215500D02*
X132200000Y-79550000D01*
X130400000Y-73015500D02*
X132000000Y-73015500D01*
X129082500Y-82667500D02*
X125602000Y-82667500D01*
X132000000Y-73015500D02*
X132200000Y-73215500D01*
X132000000Y-73015500D02*
X134381000Y-70634500D01*
%TD*%
%TA.AperFunction,Conductor*%
%TO.N,+5V*%
G36*
X136213121Y-66441002D02*
G01*
X136259614Y-66494658D01*
X136271000Y-66547000D01*
X136271000Y-89155000D01*
X136250998Y-89223121D01*
X136197342Y-89269614D01*
X136145000Y-89281000D01*
X112267000Y-89281000D01*
X112198879Y-89260998D01*
X112152386Y-89207342D01*
X112141000Y-89155000D01*
X112141000Y-85856249D01*
X113630500Y-85856249D01*
X113630500Y-85856252D01*
X113630500Y-87595748D01*
X113642133Y-87654231D01*
X113686448Y-87720552D01*
X113752769Y-87764867D01*
X113811252Y-87776500D01*
X113811253Y-87776500D01*
X115550747Y-87776500D01*
X115550748Y-87776500D01*
X115609231Y-87764867D01*
X115675552Y-87720552D01*
X115719867Y-87654231D01*
X115731500Y-87595748D01*
X115731500Y-85856252D01*
X115719867Y-85797769D01*
X115675552Y-85731448D01*
X115609231Y-85687133D01*
X115609228Y-85687132D01*
X115550750Y-85675500D01*
X115550748Y-85675500D01*
X113811252Y-85675500D01*
X113811249Y-85675500D01*
X113752771Y-85687132D01*
X113752768Y-85687133D01*
X113686448Y-85731448D01*
X113642133Y-85797768D01*
X113642132Y-85797771D01*
X113630500Y-85856249D01*
X112141000Y-85856249D01*
X112141000Y-84185996D01*
X113625417Y-84185996D01*
X113625417Y-84186003D01*
X113645698Y-84391927D01*
X113645699Y-84391933D01*
X113645700Y-84391934D01*
X113705768Y-84589954D01*
X113803315Y-84772450D01*
X113934590Y-84932410D01*
X114094550Y-85063685D01*
X114277046Y-85161232D01*
X114475066Y-85221300D01*
X114475070Y-85221300D01*
X114475072Y-85221301D01*
X114680997Y-85241583D01*
X114681000Y-85241583D01*
X114681003Y-85241583D01*
X114886927Y-85221301D01*
X114886928Y-85221300D01*
X114886934Y-85221300D01*
X115084954Y-85161232D01*
X115267450Y-85063685D01*
X115427410Y-84932410D01*
X115558685Y-84772450D01*
X115656232Y-84589954D01*
X115716300Y-84391934D01*
X115734645Y-84205682D01*
X115736583Y-84186003D01*
X115736583Y-84185996D01*
X115716301Y-83980072D01*
X115716300Y-83980070D01*
X115716300Y-83980066D01*
X115656232Y-83782046D01*
X115558685Y-83599550D01*
X115427410Y-83439590D01*
X115267450Y-83308315D01*
X115267448Y-83308314D01*
X115267447Y-83308313D01*
X115084954Y-83210768D01*
X115023202Y-83192036D01*
X114886934Y-83150700D01*
X114886933Y-83150699D01*
X114886927Y-83150698D01*
X114681003Y-83130417D01*
X114680997Y-83130417D01*
X114475072Y-83150698D01*
X114277045Y-83210768D01*
X114094552Y-83308313D01*
X113934590Y-83439590D01*
X113803313Y-83599552D01*
X113705768Y-83782045D01*
X113645698Y-83980072D01*
X113625417Y-84185996D01*
X112141000Y-84185996D01*
X112141000Y-81645996D01*
X113625417Y-81645996D01*
X113625417Y-81646003D01*
X113645698Y-81851927D01*
X113645699Y-81851933D01*
X113645700Y-81851934D01*
X113705768Y-82049954D01*
X113803315Y-82232450D01*
X113934590Y-82392410D01*
X114094550Y-82523685D01*
X114277046Y-82621232D01*
X114475066Y-82681300D01*
X114475070Y-82681300D01*
X114475072Y-82681301D01*
X114680997Y-82701583D01*
X114681000Y-82701583D01*
X114681003Y-82701583D01*
X114886927Y-82681301D01*
X114886928Y-82681300D01*
X114886934Y-82681300D01*
X114932430Y-82667499D01*
X124996318Y-82667499D01*
X124996318Y-82667500D01*
X125016955Y-82824260D01*
X125069900Y-82952079D01*
X125077464Y-82970341D01*
X125173718Y-83095782D01*
X125299159Y-83192036D01*
X125445238Y-83252544D01*
X125602000Y-83273182D01*
X125758762Y-83252544D01*
X125904841Y-83192036D01*
X126030282Y-83095782D01*
X126045872Y-83075465D01*
X126071324Y-83042296D01*
X126128662Y-83000429D01*
X126171286Y-82993000D01*
X129125351Y-82993000D01*
X129125353Y-82993000D01*
X129208139Y-82970818D01*
X129282362Y-82927965D01*
X131910949Y-80299376D01*
X131973257Y-80265354D01*
X132044072Y-80270418D01*
X132100908Y-80312965D01*
X132125719Y-80379485D01*
X132110628Y-80448859D01*
X132100004Y-80465176D01*
X132075468Y-80497153D01*
X132075463Y-80497160D01*
X132014955Y-80643239D01*
X131994318Y-80799999D01*
X131994318Y-80800000D01*
X132014955Y-80956760D01*
X132014956Y-80956762D01*
X132075464Y-81102841D01*
X132171718Y-81228282D01*
X132297159Y-81324536D01*
X132443238Y-81385044D01*
X132600000Y-81405682D01*
X132756762Y-81385044D01*
X132902841Y-81324536D01*
X133028282Y-81228282D01*
X133048537Y-81201884D01*
X133105874Y-81160017D01*
X133176745Y-81155795D01*
X133238649Y-81190558D01*
X133271930Y-81253271D01*
X133274500Y-81278588D01*
X133274500Y-82862981D01*
X133254498Y-82931102D01*
X133237593Y-82952079D01*
X133222378Y-82967293D01*
X133160064Y-83001316D01*
X133116839Y-83003117D01*
X133050002Y-82994318D01*
X133050000Y-82994318D01*
X132893239Y-83014955D01*
X132747160Y-83075463D01*
X132747157Y-83075465D01*
X132621718Y-83171718D01*
X132525465Y-83297157D01*
X132525463Y-83297160D01*
X132464955Y-83443239D01*
X132444318Y-83599999D01*
X132444318Y-83600000D01*
X132464955Y-83756760D01*
X132475429Y-83782045D01*
X132525464Y-83902841D01*
X132621718Y-84028282D01*
X132747159Y-84124536D01*
X132893238Y-84185044D01*
X133050000Y-84205682D01*
X133206762Y-84185044D01*
X133352841Y-84124536D01*
X133478282Y-84028282D01*
X133574536Y-83902841D01*
X133635044Y-83756762D01*
X133655682Y-83600000D01*
X133646881Y-83533158D01*
X133657819Y-83463013D01*
X133682705Y-83427621D01*
X133860465Y-83249862D01*
X133883036Y-83210768D01*
X133903318Y-83175638D01*
X133925500Y-83092853D01*
X133925500Y-77509516D01*
X133945502Y-77441395D01*
X133962400Y-77420426D01*
X135146119Y-76236706D01*
X135208429Y-76202683D01*
X135251654Y-76200881D01*
X135318500Y-76209682D01*
X135475262Y-76189044D01*
X135621341Y-76128536D01*
X135746782Y-76032282D01*
X135843036Y-75906841D01*
X135903544Y-75760762D01*
X135924182Y-75604000D01*
X135923655Y-75600000D01*
X135903544Y-75447239D01*
X135901888Y-75443239D01*
X135843036Y-75301159D01*
X135746782Y-75175718D01*
X135621341Y-75079464D01*
X135611685Y-75075464D01*
X135475260Y-75018955D01*
X135318500Y-74998318D01*
X135161739Y-75018955D01*
X135015660Y-75079463D01*
X135015657Y-75079465D01*
X134890218Y-75175718D01*
X134793965Y-75301157D01*
X134793963Y-75301160D01*
X134733455Y-75447239D01*
X134712818Y-75603999D01*
X134712818Y-75604001D01*
X134721617Y-75670841D01*
X134710677Y-75740989D01*
X134685790Y-75776381D01*
X133540595Y-76921577D01*
X133478283Y-76955602D01*
X133407468Y-76950538D01*
X133350632Y-76907991D01*
X133325821Y-76841471D01*
X133325500Y-76832482D01*
X133325500Y-76169285D01*
X133345502Y-76101164D01*
X133374797Y-76069322D01*
X133428282Y-76028282D01*
X133524536Y-75902841D01*
X133585044Y-75756762D01*
X133605682Y-75600000D01*
X133585044Y-75443238D01*
X133524536Y-75297159D01*
X133428282Y-75171718D01*
X133302841Y-75075464D01*
X133268647Y-75061300D01*
X133156760Y-75014955D01*
X133000000Y-74994318D01*
X132843239Y-75014955D01*
X132699718Y-75074404D01*
X132629128Y-75081993D01*
X132565641Y-75050214D01*
X132529414Y-74989155D01*
X132525500Y-74957995D01*
X132525500Y-73268516D01*
X132525501Y-73268503D01*
X132525501Y-73172647D01*
X132525500Y-73172643D01*
X132503320Y-73089867D01*
X132501164Y-73084662D01*
X132493575Y-73014072D01*
X132525354Y-72950585D01*
X132528450Y-72947376D01*
X134641465Y-70834362D01*
X134649228Y-70820916D01*
X134684318Y-70760138D01*
X134706500Y-70677353D01*
X134706500Y-70282785D01*
X134726502Y-70214664D01*
X134755797Y-70182822D01*
X134809282Y-70141782D01*
X134905536Y-70016341D01*
X134966044Y-69870262D01*
X134986682Y-69713500D01*
X134983905Y-69692410D01*
X134966044Y-69556739D01*
X134958142Y-69537660D01*
X134905536Y-69410659D01*
X134809282Y-69285218D01*
X134683841Y-69188964D01*
X134537762Y-69128456D01*
X134537760Y-69128455D01*
X134381000Y-69107818D01*
X134224239Y-69128455D01*
X134078160Y-69188963D01*
X134078157Y-69188965D01*
X133952718Y-69285218D01*
X133856465Y-69410657D01*
X133856463Y-69410660D01*
X133795955Y-69556739D01*
X133775318Y-69713499D01*
X133775318Y-69713500D01*
X133795955Y-69870260D01*
X133841950Y-69981300D01*
X133856464Y-70016341D01*
X133930371Y-70112658D01*
X133952719Y-70141783D01*
X134006203Y-70182822D01*
X134048071Y-70240159D01*
X134055500Y-70282785D01*
X134055500Y-70447483D01*
X134035498Y-70515604D01*
X134018595Y-70536578D01*
X131902078Y-72653095D01*
X131839766Y-72687121D01*
X131812983Y-72690000D01*
X130969286Y-72690000D01*
X130901165Y-72669998D01*
X130869324Y-72640704D01*
X130828284Y-72587220D01*
X130828282Y-72587219D01*
X130828282Y-72587218D01*
X130702841Y-72490964D01*
X130631060Y-72461231D01*
X130556760Y-72430455D01*
X130400000Y-72409818D01*
X130243239Y-72430455D01*
X130097160Y-72490963D01*
X130097157Y-72490965D01*
X129971718Y-72587218D01*
X129875465Y-72712657D01*
X129875463Y-72712660D01*
X129814955Y-72858739D01*
X129794318Y-73015499D01*
X129794318Y-73015500D01*
X129814955Y-73172260D01*
X129814956Y-73172262D01*
X129875464Y-73318341D01*
X129971718Y-73443782D01*
X130097159Y-73540036D01*
X130243238Y-73600544D01*
X130400000Y-73621182D01*
X130556762Y-73600544D01*
X130702841Y-73540036D01*
X130828282Y-73443782D01*
X130850630Y-73414658D01*
X130869324Y-73390296D01*
X130926662Y-73348429D01*
X130969286Y-73341000D01*
X131748500Y-73341000D01*
X131816621Y-73361002D01*
X131863114Y-73414658D01*
X131874500Y-73467000D01*
X131874500Y-79362983D01*
X131854498Y-79431104D01*
X131837595Y-79452078D01*
X128984578Y-82305095D01*
X128922266Y-82339121D01*
X128895483Y-82342000D01*
X126171286Y-82342000D01*
X126103165Y-82321998D01*
X126071324Y-82292704D01*
X126030284Y-82239220D01*
X126030282Y-82239219D01*
X126030282Y-82239218D01*
X125904841Y-82142964D01*
X125758762Y-82082456D01*
X125758760Y-82082455D01*
X125602000Y-82061818D01*
X125445239Y-82082455D01*
X125299160Y-82142963D01*
X125299157Y-82142965D01*
X125173718Y-82239218D01*
X125077465Y-82364657D01*
X125077463Y-82364660D01*
X125016955Y-82510739D01*
X124996318Y-82667499D01*
X114932430Y-82667499D01*
X115084954Y-82621232D01*
X115267450Y-82523685D01*
X115427410Y-82392410D01*
X115558685Y-82232450D01*
X115656232Y-82049954D01*
X115716300Y-81851934D01*
X115736583Y-81646000D01*
X115716300Y-81440066D01*
X115656232Y-81242046D01*
X115558685Y-81059550D01*
X115427410Y-80899590D01*
X115267450Y-80768315D01*
X115267448Y-80768314D01*
X115267447Y-80768313D01*
X115084954Y-80670768D01*
X114994202Y-80643239D01*
X114886934Y-80610700D01*
X114886933Y-80610699D01*
X114886927Y-80610698D01*
X114681003Y-80590417D01*
X114680997Y-80590417D01*
X114475072Y-80610698D01*
X114277045Y-80670768D01*
X114094552Y-80768313D01*
X113934590Y-80899590D01*
X113803313Y-81059552D01*
X113705768Y-81242045D01*
X113645698Y-81440072D01*
X113625417Y-81645996D01*
X112141000Y-81645996D01*
X112141000Y-80199999D01*
X120194318Y-80199999D01*
X120194318Y-80200000D01*
X120214955Y-80356760D01*
X120259863Y-80465176D01*
X120275464Y-80502841D01*
X120371718Y-80628282D01*
X120497159Y-80724536D01*
X120643238Y-80785044D01*
X120800000Y-80805682D01*
X120956762Y-80785044D01*
X121102841Y-80724536D01*
X121228282Y-80628282D01*
X121324536Y-80502841D01*
X121385044Y-80356762D01*
X121405682Y-80200000D01*
X121385044Y-80043238D01*
X121324536Y-79897159D01*
X121228282Y-79771718D01*
X121102841Y-79675464D01*
X120956762Y-79614956D01*
X120956760Y-79614955D01*
X120800000Y-79594318D01*
X120643239Y-79614955D01*
X120497160Y-79675463D01*
X120497157Y-79675465D01*
X120371718Y-79771718D01*
X120275465Y-79897157D01*
X120275463Y-79897160D01*
X120214955Y-80043239D01*
X120194318Y-80199999D01*
X112141000Y-80199999D01*
X112141000Y-79105996D01*
X113625417Y-79105996D01*
X113625417Y-79106003D01*
X113645698Y-79311927D01*
X113705768Y-79509954D01*
X113801444Y-79688951D01*
X113803315Y-79692450D01*
X113934590Y-79852410D01*
X114094550Y-79983685D01*
X114277046Y-80081232D01*
X114475066Y-80141300D01*
X114475070Y-80141300D01*
X114475072Y-80141301D01*
X114680997Y-80161583D01*
X114681000Y-80161583D01*
X114681003Y-80161583D01*
X114886927Y-80141301D01*
X114886928Y-80141300D01*
X114886934Y-80141300D01*
X115084954Y-80081232D01*
X115267450Y-79983685D01*
X115427410Y-79852410D01*
X115558685Y-79692450D01*
X115656232Y-79509954D01*
X115716300Y-79311934D01*
X115726421Y-79209182D01*
X115736583Y-79106003D01*
X115736583Y-79105996D01*
X115716301Y-78900072D01*
X115716300Y-78900070D01*
X115716300Y-78900066D01*
X115656232Y-78702046D01*
X115656226Y-78702035D01*
X115655958Y-78701387D01*
X115655917Y-78701008D01*
X115654435Y-78696122D01*
X115655361Y-78695841D01*
X115648360Y-78630798D01*
X115680132Y-78567307D01*
X115683238Y-78564087D01*
X115770826Y-78476499D01*
X123472318Y-78476499D01*
X123472318Y-78476500D01*
X123492955Y-78633260D01*
X123521451Y-78702054D01*
X123553464Y-78779341D01*
X123649718Y-78904782D01*
X123775159Y-79001036D01*
X123921238Y-79061544D01*
X124078000Y-79082182D01*
X124234762Y-79061544D01*
X124380841Y-79001036D01*
X124440787Y-78955038D01*
X124507007Y-78929437D01*
X124517491Y-78929000D01*
X128588714Y-78929000D01*
X128656835Y-78949002D01*
X128688676Y-78978296D01*
X128729715Y-79031779D01*
X128729716Y-79031780D01*
X128729718Y-79031782D01*
X128855159Y-79128036D01*
X129001238Y-79188544D01*
X129158000Y-79209182D01*
X129314762Y-79188544D01*
X129460841Y-79128036D01*
X129586282Y-79031782D01*
X129682536Y-78906341D01*
X129743044Y-78760262D01*
X129763682Y-78603500D01*
X129743044Y-78446738D01*
X129682536Y-78300659D01*
X129586282Y-78175218D01*
X129460841Y-78078964D01*
X129440886Y-78070698D01*
X129314760Y-78018455D01*
X129158000Y-77997818D01*
X129001239Y-78018455D01*
X128855160Y-78078963D01*
X128855157Y-78078965D01*
X128729715Y-78175220D01*
X128688676Y-78228704D01*
X128631338Y-78270571D01*
X128588714Y-78278000D01*
X124729946Y-78278000D01*
X124661825Y-78257998D01*
X124615332Y-78204342D01*
X124613538Y-78200219D01*
X124608931Y-78189099D01*
X124602536Y-78173659D01*
X124506282Y-78048218D01*
X124380841Y-77951964D01*
X124234762Y-77891456D01*
X124234760Y-77891455D01*
X124078000Y-77870818D01*
X123921239Y-77891455D01*
X123775160Y-77951963D01*
X123775157Y-77951965D01*
X123649718Y-78048218D01*
X123553465Y-78173657D01*
X123553463Y-78173660D01*
X123492955Y-78319739D01*
X123472318Y-78476499D01*
X115770826Y-78476499D01*
X124171422Y-70075905D01*
X124233734Y-70041879D01*
X124260517Y-70039000D01*
X125286714Y-70039000D01*
X125354835Y-70059002D01*
X125386676Y-70088296D01*
X125427715Y-70141779D01*
X125427716Y-70141780D01*
X125427718Y-70141782D01*
X125553159Y-70238036D01*
X125699238Y-70298544D01*
X125856000Y-70319182D01*
X126012762Y-70298544D01*
X126158841Y-70238036D01*
X126284282Y-70141782D01*
X126306630Y-70112658D01*
X126325324Y-70088296D01*
X126382662Y-70046429D01*
X126425286Y-70039000D01*
X127894554Y-70039000D01*
X127962675Y-70059002D01*
X128009168Y-70112658D01*
X128010962Y-70116781D01*
X128021964Y-70143341D01*
X128118218Y-70268782D01*
X128243659Y-70365036D01*
X128389738Y-70425544D01*
X128546500Y-70446182D01*
X128703262Y-70425544D01*
X128849341Y-70365036D01*
X128974782Y-70268782D01*
X129071036Y-70143341D01*
X129131544Y-69997262D01*
X129152182Y-69840500D01*
X129149968Y-69823686D01*
X129132686Y-69692410D01*
X129131544Y-69683738D01*
X129071036Y-69537659D01*
X128974782Y-69412218D01*
X128849341Y-69315964D01*
X128703262Y-69255456D01*
X128703260Y-69255455D01*
X128546500Y-69234818D01*
X128389739Y-69255455D01*
X128243660Y-69315963D01*
X128243652Y-69315968D01*
X128183713Y-69361962D01*
X128117493Y-69387563D01*
X128107009Y-69388000D01*
X126425286Y-69388000D01*
X126357165Y-69367998D01*
X126325324Y-69338704D01*
X126284284Y-69285220D01*
X126284282Y-69285219D01*
X126284282Y-69285218D01*
X126158841Y-69188964D01*
X126012762Y-69128456D01*
X126012760Y-69128455D01*
X125856000Y-69107818D01*
X125699239Y-69128455D01*
X125553160Y-69188963D01*
X125553157Y-69188965D01*
X125427715Y-69285220D01*
X125386676Y-69338704D01*
X125329338Y-69380571D01*
X125286714Y-69388000D01*
X124116353Y-69388000D01*
X124030647Y-69388000D01*
X123947861Y-69410182D01*
X123947859Y-69410183D01*
X123947856Y-69410184D01*
X123873641Y-69453032D01*
X123873631Y-69453040D01*
X115222939Y-78103732D01*
X115160627Y-78137758D01*
X115089812Y-78132693D01*
X115085630Y-78131047D01*
X115084963Y-78130770D01*
X114886927Y-78070698D01*
X114681003Y-78050417D01*
X114680997Y-78050417D01*
X114475072Y-78070698D01*
X114277045Y-78130768D01*
X114094552Y-78228313D01*
X113934590Y-78359590D01*
X113803313Y-78519552D01*
X113705768Y-78702045D01*
X113645698Y-78900072D01*
X113625417Y-79105996D01*
X112141000Y-79105996D01*
X112141000Y-76565996D01*
X113625417Y-76565996D01*
X113625417Y-76566003D01*
X113645698Y-76771927D01*
X113705768Y-76969954D01*
X113800373Y-77146947D01*
X113803315Y-77152450D01*
X113934590Y-77312410D01*
X114094550Y-77443685D01*
X114277046Y-77541232D01*
X114475066Y-77601300D01*
X114475070Y-77601300D01*
X114475072Y-77601301D01*
X114680997Y-77621583D01*
X114681000Y-77621583D01*
X114681003Y-77621583D01*
X114886927Y-77601301D01*
X114886928Y-77601300D01*
X114886934Y-77601300D01*
X115084954Y-77541232D01*
X115267450Y-77443685D01*
X115427410Y-77312410D01*
X115558685Y-77152450D01*
X115656232Y-76969954D01*
X115716300Y-76771934D01*
X115736583Y-76566000D01*
X115716300Y-76360066D01*
X115656232Y-76162046D01*
X115558685Y-75979550D01*
X115427410Y-75819590D01*
X115267450Y-75688315D01*
X115267448Y-75688314D01*
X115267447Y-75688313D01*
X115084954Y-75590768D01*
X114886927Y-75530698D01*
X114681003Y-75510417D01*
X114680997Y-75510417D01*
X114475072Y-75530698D01*
X114277045Y-75590768D01*
X114094552Y-75688313D01*
X113934590Y-75819590D01*
X113803313Y-75979552D01*
X113705768Y-76162045D01*
X113645698Y-76360072D01*
X113625417Y-76565996D01*
X112141000Y-76565996D01*
X112141000Y-74025996D01*
X113625417Y-74025996D01*
X113625417Y-74026003D01*
X113645698Y-74231927D01*
X113645699Y-74231933D01*
X113645700Y-74231934D01*
X113705768Y-74429954D01*
X113803315Y-74612450D01*
X113934590Y-74772410D01*
X114094550Y-74903685D01*
X114277046Y-75001232D01*
X114475066Y-75061300D01*
X114475070Y-75061300D01*
X114475072Y-75061301D01*
X114680997Y-75081583D01*
X114681000Y-75081583D01*
X114681003Y-75081583D01*
X114886927Y-75061301D01*
X114886928Y-75061300D01*
X114886934Y-75061300D01*
X115084954Y-75001232D01*
X115267450Y-74903685D01*
X115427410Y-74772410D01*
X115558685Y-74612450D01*
X115656232Y-74429954D01*
X115716300Y-74231934D01*
X115736583Y-74026000D01*
X115716300Y-73820066D01*
X115656232Y-73622046D01*
X115558685Y-73439550D01*
X115427410Y-73279590D01*
X115267450Y-73148315D01*
X115267448Y-73148314D01*
X115267447Y-73148313D01*
X115084954Y-73050768D01*
X114886934Y-72990700D01*
X114886933Y-72990699D01*
X114886927Y-72990698D01*
X114681003Y-72970417D01*
X114680997Y-72970417D01*
X114475072Y-72990698D01*
X114277045Y-73050768D01*
X114094552Y-73148313D01*
X113934590Y-73279590D01*
X113803313Y-73439552D01*
X113705768Y-73622045D01*
X113645698Y-73820072D01*
X113625417Y-74025996D01*
X112141000Y-74025996D01*
X112141000Y-71485996D01*
X113625417Y-71485996D01*
X113625417Y-71486003D01*
X113645698Y-71691927D01*
X113645699Y-71691933D01*
X113645700Y-71691934D01*
X113705768Y-71889954D01*
X113803315Y-72072450D01*
X113934590Y-72232410D01*
X114094550Y-72363685D01*
X114277046Y-72461232D01*
X114475066Y-72521300D01*
X114475070Y-72521300D01*
X114475072Y-72521301D01*
X114680997Y-72541583D01*
X114681000Y-72541583D01*
X114681003Y-72541583D01*
X114886927Y-72521301D01*
X114886928Y-72521300D01*
X114886934Y-72521300D01*
X115084954Y-72461232D01*
X115267450Y-72363685D01*
X115427410Y-72232410D01*
X115558685Y-72072450D01*
X115656232Y-71889954D01*
X115716300Y-71691934D01*
X115736583Y-71486000D01*
X115716300Y-71280066D01*
X115656232Y-71082046D01*
X115558685Y-70899550D01*
X115427410Y-70739590D01*
X115267450Y-70608315D01*
X115267448Y-70608314D01*
X115267447Y-70608313D01*
X115084954Y-70510768D01*
X114886927Y-70450698D01*
X114681003Y-70430417D01*
X114680997Y-70430417D01*
X114475072Y-70450698D01*
X114277045Y-70510768D01*
X114094552Y-70608313D01*
X113934590Y-70739590D01*
X113803313Y-70899552D01*
X113705768Y-71082045D01*
X113645698Y-71280072D01*
X113625417Y-71485996D01*
X112141000Y-71485996D01*
X112141000Y-68945996D01*
X113625417Y-68945996D01*
X113625417Y-68946003D01*
X113645698Y-69151927D01*
X113645699Y-69151933D01*
X113645700Y-69151934D01*
X113705768Y-69349954D01*
X113803315Y-69532450D01*
X113934590Y-69692410D01*
X114094550Y-69823685D01*
X114277046Y-69921232D01*
X114475066Y-69981300D01*
X114475070Y-69981300D01*
X114475072Y-69981301D01*
X114680997Y-70001583D01*
X114681000Y-70001583D01*
X114681003Y-70001583D01*
X114886927Y-69981301D01*
X114886928Y-69981300D01*
X114886934Y-69981300D01*
X115084954Y-69921232D01*
X115267450Y-69823685D01*
X115427410Y-69692410D01*
X115558685Y-69532450D01*
X115656232Y-69349954D01*
X115716300Y-69151934D01*
X115718613Y-69128456D01*
X115736583Y-68946003D01*
X115736583Y-68945996D01*
X115716301Y-68740072D01*
X115716300Y-68740070D01*
X115716300Y-68740066D01*
X115656232Y-68542046D01*
X115558685Y-68359550D01*
X115427410Y-68199590D01*
X115267450Y-68068315D01*
X115267448Y-68068314D01*
X115267447Y-68068313D01*
X115084954Y-67970768D01*
X114886927Y-67910698D01*
X114681003Y-67890417D01*
X114680997Y-67890417D01*
X114475072Y-67910698D01*
X114277045Y-67970768D01*
X114094552Y-68068313D01*
X113934590Y-68199590D01*
X113803313Y-68359552D01*
X113705768Y-68542045D01*
X113645698Y-68740072D01*
X113625417Y-68945996D01*
X112141000Y-68945996D01*
X112141000Y-66547000D01*
X112161002Y-66478879D01*
X112214658Y-66432386D01*
X112267000Y-66421000D01*
X136145000Y-66421000D01*
X136213121Y-66441002D01*
G37*
%TD.AperFunction*%
%TD*%
M02*
