%TF.GenerationSoftware,KiCad,Pcbnew,6.0.2-1.fc35*%
%TF.CreationDate,2022-03-27T16:33:53-04:00*%
%TF.ProjectId,DeadTimeInsertionPCB,44656164-5469-46d6-9549-6e7365727469,rev?*%
%TF.SameCoordinates,Original*%
%TF.FileFunction,Paste,Top*%
%TF.FilePolarity,Positive*%
%FSLAX46Y46*%
G04 Gerber Fmt 4.6, Leading zero omitted, Abs format (unit mm)*
G04 Created by KiCad (PCBNEW 6.0.2-1.fc35) date 2022-03-27 16:33:53*
%MOMM*%
%LPD*%
G01*
G04 APERTURE LIST*
G04 Aperture macros list*
%AMRoundRect*
0 Rectangle with rounded corners*
0 $1 Rounding radius*
0 $2 $3 $4 $5 $6 $7 $8 $9 X,Y pos of 4 corners*
0 Add a 4 corners polygon primitive as box body*
4,1,4,$2,$3,$4,$5,$6,$7,$8,$9,$2,$3,0*
0 Add four circle primitives for the rounded corners*
1,1,$1+$1,$2,$3*
1,1,$1+$1,$4,$5*
1,1,$1+$1,$6,$7*
1,1,$1+$1,$8,$9*
0 Add four rect primitives between the rounded corners*
20,1,$1+$1,$2,$3,$4,$5,0*
20,1,$1+$1,$4,$5,$6,$7,0*
20,1,$1+$1,$6,$7,$8,$9,0*
20,1,$1+$1,$8,$9,$2,$3,0*%
G04 Aperture macros list end*
%ADD10RoundRect,0.150000X-0.150000X0.587500X-0.150000X-0.587500X0.150000X-0.587500X0.150000X0.587500X0*%
%ADD11RoundRect,0.225000X0.250000X-0.225000X0.250000X0.225000X-0.250000X0.225000X-0.250000X-0.225000X0*%
%ADD12RoundRect,0.225000X-0.225000X-0.250000X0.225000X-0.250000X0.225000X0.250000X-0.225000X0.250000X0*%
%ADD13RoundRect,0.150000X0.150000X-0.587500X0.150000X0.587500X-0.150000X0.587500X-0.150000X-0.587500X0*%
%ADD14RoundRect,0.150000X-0.150000X0.825000X-0.150000X-0.825000X0.150000X-0.825000X0.150000X0.825000X0*%
G04 APERTURE END LIST*
D10*
%TO.C,Q3*%
X133284000Y-69801500D03*
X131384000Y-69801500D03*
X132334000Y-71676500D03*
%TD*%
D11*
%TO.C,C1*%
X129286000Y-81166000D03*
X129286000Y-79616000D03*
%TD*%
D10*
%TO.C,Q1*%
X133284000Y-73992500D03*
X131384000Y-73992500D03*
X132334000Y-75867500D03*
%TD*%
D12*
%TO.C,C5*%
X125870000Y-86741000D03*
X124320000Y-86741000D03*
%TD*%
D11*
%TO.C,C3*%
X133096000Y-81166000D03*
X133096000Y-79616000D03*
%TD*%
D12*
%TO.C,C6*%
X126606000Y-67945000D03*
X128156000Y-67945000D03*
%TD*%
D13*
%TO.C,Q4*%
X123891000Y-84630500D03*
X125791000Y-84630500D03*
X124841000Y-82755500D03*
%TD*%
%TO.C,Q7*%
X123825000Y-69801500D03*
X124775000Y-71676500D03*
X122875000Y-71676500D03*
%TD*%
D12*
%TO.C,C4*%
X121171000Y-82550000D03*
X119621000Y-82550000D03*
%TD*%
%TO.C,C7*%
X122936000Y-67945000D03*
X124486000Y-67945000D03*
%TD*%
D14*
%TO.C,U1*%
X127381000Y-75376000D03*
X126111000Y-75376000D03*
X124841000Y-75376000D03*
X123571000Y-75376000D03*
X122301000Y-75376000D03*
X121031000Y-75376000D03*
X119761000Y-75376000D03*
X119761000Y-80326000D03*
X121031000Y-80326000D03*
X122301000Y-80326000D03*
X123571000Y-80326000D03*
X124841000Y-80326000D03*
X126111000Y-80326000D03*
X127381000Y-80326000D03*
%TD*%
D13*
%TO.C,Q6*%
X121158000Y-84533500D03*
X122108000Y-86408500D03*
X120208000Y-86408500D03*
%TD*%
%TO.C,Q5*%
X127381000Y-69801500D03*
X128331000Y-71676500D03*
X126431000Y-71676500D03*
%TD*%
%TO.C,Q2*%
X131003000Y-85138500D03*
X132903000Y-85138500D03*
X131953000Y-83263500D03*
%TD*%
D11*
%TO.C,C2*%
X131191000Y-81166000D03*
X131191000Y-79616000D03*
%TD*%
M02*
