%TF.GenerationSoftware,KiCad,Pcbnew,8.0.6-1.fc41*%
%TF.CreationDate,2024-11-09T22:52:13-05:00*%
%TF.ProjectId,Dead-Time-Insertion-PCB,44656164-2d54-4696-9d65-2d496e736572,rev?*%
%TF.SameCoordinates,Original*%
%TF.FileFunction,Paste,Top*%
%TF.FilePolarity,Positive*%
%FSLAX46Y46*%
G04 Gerber Fmt 4.6, Leading zero omitted, Abs format (unit mm)*
G04 Created by KiCad (PCBNEW 8.0.6-1.fc41) date 2024-11-09 22:52:13*
%MOMM*%
%LPD*%
G01*
G04 APERTURE LIST*
G04 Aperture macros list*
%AMRoundRect*
0 Rectangle with rounded corners*
0 $1 Rounding radius*
0 $2 $3 $4 $5 $6 $7 $8 $9 X,Y pos of 4 corners*
0 Add a 4 corners polygon primitive as box body*
4,1,4,$2,$3,$4,$5,$6,$7,$8,$9,$2,$3,0*
0 Add four circle primitives for the rounded corners*
1,1,$1+$1,$2,$3*
1,1,$1+$1,$4,$5*
1,1,$1+$1,$6,$7*
1,1,$1+$1,$8,$9*
0 Add four rect primitives between the rounded corners*
20,1,$1+$1,$2,$3,$4,$5,0*
20,1,$1+$1,$4,$5,$6,$7,0*
20,1,$1+$1,$6,$7,$8,$9,0*
20,1,$1+$1,$8,$9,$2,$3,0*%
%AMFreePoly0*
4,1,9,3.862500,-0.866500,0.737500,-0.866500,0.737500,-0.450000,-0.737500,-0.450000,-0.737500,0.450000,0.737500,0.450000,0.737500,0.866500,3.862500,0.866500,3.862500,-0.866500,3.862500,-0.866500,$1*%
G04 Aperture macros list end*
%ADD10RoundRect,0.225000X-0.425000X-0.225000X0.425000X-0.225000X0.425000X0.225000X-0.425000X0.225000X0*%
%ADD11FreePoly0,0.000000*%
%ADD12RoundRect,0.225000X-0.225000X-0.250000X0.225000X-0.250000X0.225000X0.250000X-0.225000X0.250000X0*%
%ADD13RoundRect,0.150000X0.150000X-0.587500X0.150000X0.587500X-0.150000X0.587500X-0.150000X-0.587500X0*%
%ADD14RoundRect,0.150000X-0.150000X0.587500X-0.150000X-0.587500X0.150000X-0.587500X0.150000X0.587500X0*%
%ADD15RoundRect,0.150000X-0.150000X0.825000X-0.150000X-0.825000X0.150000X-0.825000X0.150000X0.825000X0*%
%ADD16RoundRect,0.225000X0.250000X-0.225000X0.250000X0.225000X-0.250000X0.225000X-0.250000X-0.225000X0*%
G04 APERTURE END LIST*
D10*
%TO.C,U2*%
X117550000Y-74500000D03*
D11*
X117637500Y-76000000D03*
D10*
X117550000Y-77500000D03*
%TD*%
D12*
%TO.C,C7*%
X126115000Y-67681500D03*
X127665000Y-67681500D03*
%TD*%
D13*
%TO.C,Q2*%
X133050000Y-84875000D03*
X134950000Y-84875000D03*
X134000000Y-83000000D03*
%TD*%
%TO.C,Q4*%
X127070000Y-84367000D03*
X128970000Y-84367000D03*
X128020000Y-82492000D03*
%TD*%
%TO.C,Q5*%
X129800000Y-71437500D03*
X131700000Y-71437500D03*
X130750000Y-69562500D03*
%TD*%
%TO.C,Q6*%
X123387000Y-86145000D03*
X125287000Y-86145000D03*
X124337000Y-84270000D03*
%TD*%
%TO.C,Q7*%
X126054000Y-71413000D03*
X127954000Y-71413000D03*
X127004000Y-69538000D03*
%TD*%
D12*
%TO.C,C6*%
X129785000Y-67681500D03*
X131335000Y-67681500D03*
%TD*%
%TO.C,C4*%
X122800000Y-82286500D03*
X124350000Y-82286500D03*
%TD*%
D14*
%TO.C,Q1*%
X135331000Y-73729000D03*
X133431000Y-73729000D03*
X134381000Y-75604000D03*
%TD*%
D12*
%TO.C,C8*%
X117425000Y-72600000D03*
X118975000Y-72600000D03*
%TD*%
D15*
%TO.C,U1*%
X130560000Y-75112500D03*
X129290000Y-75112500D03*
X128020000Y-75112500D03*
X126750000Y-75112500D03*
X125480000Y-75112500D03*
X124210000Y-75112500D03*
X122940000Y-75112500D03*
X122940000Y-80062500D03*
X124210000Y-80062500D03*
X125480000Y-80062500D03*
X126750000Y-80062500D03*
X128020000Y-80062500D03*
X129290000Y-80062500D03*
X130560000Y-80062500D03*
%TD*%
D14*
%TO.C,Q3*%
X135331000Y-69538000D03*
X133431000Y-69538000D03*
X134381000Y-71413000D03*
%TD*%
D16*
%TO.C,C3*%
X135143000Y-80902500D03*
X135143000Y-79352500D03*
%TD*%
D12*
%TO.C,C5*%
X127499000Y-86477500D03*
X129049000Y-86477500D03*
%TD*%
M02*
