M48
; DRILL file {KiCad 8.0.6-1.fc41} date 2024-11-09T22:52:03-0500
; FORMAT={-:-/ absolute / inch / decimal}
; #@! TF.CreationDate,2024-11-09T22:52:03-05:00
; #@! TF.GenerationSoftware,Kicad,Pcbnew,8.0.6-1.fc41
; #@! TF.FileFunction,Plated,1,2,PTH
FMAT,2
INCH
; #@! TA.AperFunction,Plated,PTH,ViaDrill
T1C0.0157
; #@! TA.AperFunction,Plated,PTH,ComponentDrill
T2C0.0394
%
G90
G05
T1
X4.628Y-3.1024
X4.7559Y-3.1575
X4.8632Y-3.3177
X4.885Y-3.0896
X4.9119Y-2.7027
X4.945Y-3.2546
X4.955Y-2.7446
X5.0402Y-3.2047
X5.0609Y-2.7496
X5.085Y-3.0946
X5.1044Y-2.7072
X5.1339Y-2.8746
X5.1417Y-3.0866
X5.2205Y-3.1811
X5.2362Y-2.9764
X5.2382Y-3.2913
X5.2906Y-2.7446
X5.3206Y-3.1851
X5.3275Y-2.9765
T2
X4.515Y-2.7144
X4.515Y-2.8144
X4.515Y-2.9144
X4.515Y-3.0144
X4.515Y-3.1144
X4.515Y-3.2144
X4.515Y-3.3144
X4.515Y-3.4144
M30
