%TF.GenerationSoftware,KiCad,Pcbnew,8.0.6-1.fc41*%
%TF.CreationDate,2024-11-10T15:40:55-05:00*%
%TF.ProjectId,Dead-Time-Insertion-PCB,44656164-2d54-4696-9d65-2d496e736572,rev?*%
%TF.SameCoordinates,Original*%
%TF.FileFunction,Copper,L1,Top*%
%TF.FilePolarity,Positive*%
%FSLAX46Y46*%
G04 Gerber Fmt 4.6, Leading zero omitted, Abs format (unit mm)*
G04 Created by KiCad (PCBNEW 8.0.6-1.fc41) date 2024-11-10 15:40:55*
%MOMM*%
%LPD*%
G01*
G04 APERTURE LIST*
G04 Aperture macros list*
%AMRoundRect*
0 Rectangle with rounded corners*
0 $1 Rounding radius*
0 $2 $3 $4 $5 $6 $7 $8 $9 X,Y pos of 4 corners*
0 Add a 4 corners polygon primitive as box body*
4,1,4,$2,$3,$4,$5,$6,$7,$8,$9,$2,$3,0*
0 Add four circle primitives for the rounded corners*
1,1,$1+$1,$2,$3*
1,1,$1+$1,$4,$5*
1,1,$1+$1,$6,$7*
1,1,$1+$1,$8,$9*
0 Add four rect primitives between the rounded corners*
20,1,$1+$1,$2,$3,$4,$5,0*
20,1,$1+$1,$4,$5,$6,$7,0*
20,1,$1+$1,$6,$7,$8,$9,0*
20,1,$1+$1,$8,$9,$2,$3,0*%
%AMFreePoly0*
4,1,9,3.862500,-0.866500,0.737500,-0.866500,0.737500,-0.450000,-0.737500,-0.450000,-0.737500,0.450000,0.737500,0.450000,0.737500,0.866500,3.862500,0.866500,3.862500,-0.866500,3.862500,-0.866500,$1*%
G04 Aperture macros list end*
%TA.AperFunction,SMDPad,CuDef*%
%ADD10RoundRect,0.100000X-0.100000X0.225000X-0.100000X-0.225000X0.100000X-0.225000X0.100000X0.225000X0*%
%TD*%
%TA.AperFunction,SMDPad,CuDef*%
%ADD11RoundRect,0.225000X-0.225000X-0.250000X0.225000X-0.250000X0.225000X0.250000X-0.225000X0.250000X0*%
%TD*%
%TA.AperFunction,ComponentPad*%
%ADD12R,1.700000X1.700000*%
%TD*%
%TA.AperFunction,ComponentPad*%
%ADD13O,1.700000X1.700000*%
%TD*%
%TA.AperFunction,SMDPad,CuDef*%
%ADD14RoundRect,0.200000X-0.275000X0.200000X-0.275000X-0.200000X0.275000X-0.200000X0.275000X0.200000X0*%
%TD*%
%TA.AperFunction,SMDPad,CuDef*%
%ADD15RoundRect,0.150000X-0.150000X0.587500X-0.150000X-0.587500X0.150000X-0.587500X0.150000X0.587500X0*%
%TD*%
%TA.AperFunction,SMDPad,CuDef*%
%ADD16RoundRect,0.225000X0.250000X-0.225000X0.250000X0.225000X-0.250000X0.225000X-0.250000X-0.225000X0*%
%TD*%
%TA.AperFunction,SMDPad,CuDef*%
%ADD17RoundRect,0.200000X-0.200000X-0.275000X0.200000X-0.275000X0.200000X0.275000X-0.200000X0.275000X0*%
%TD*%
%TA.AperFunction,SMDPad,CuDef*%
%ADD18RoundRect,0.150000X-0.825000X-0.150000X0.825000X-0.150000X0.825000X0.150000X-0.825000X0.150000X0*%
%TD*%
%TA.AperFunction,SMDPad,CuDef*%
%ADD19RoundRect,0.150000X0.587500X0.150000X-0.587500X0.150000X-0.587500X-0.150000X0.587500X-0.150000X0*%
%TD*%
%TA.AperFunction,SMDPad,CuDef*%
%ADD20RoundRect,0.225000X-0.250000X0.225000X-0.250000X-0.225000X0.250000X-0.225000X0.250000X0.225000X0*%
%TD*%
%TA.AperFunction,SMDPad,CuDef*%
%ADD21RoundRect,0.225000X0.225000X0.250000X-0.225000X0.250000X-0.225000X-0.250000X0.225000X-0.250000X0*%
%TD*%
%TA.AperFunction,SMDPad,CuDef*%
%ADD22RoundRect,0.225000X0.225000X-0.425000X0.225000X0.425000X-0.225000X0.425000X-0.225000X-0.425000X0*%
%TD*%
%TA.AperFunction,SMDPad,CuDef*%
%ADD23FreePoly0,90.000000*%
%TD*%
%TA.AperFunction,SMDPad,CuDef*%
%ADD24RoundRect,0.150000X0.150000X-0.587500X0.150000X0.587500X-0.150000X0.587500X-0.150000X-0.587500X0*%
%TD*%
%TA.AperFunction,SMDPad,CuDef*%
%ADD25RoundRect,0.150000X-0.587500X-0.150000X0.587500X-0.150000X0.587500X0.150000X-0.587500X0.150000X0*%
%TD*%
%TA.AperFunction,SMDPad,CuDef*%
%ADD26RoundRect,0.200000X0.275000X-0.200000X0.275000X0.200000X-0.275000X0.200000X-0.275000X-0.200000X0*%
%TD*%
%TA.AperFunction,ViaPad*%
%ADD27C,0.800000*%
%TD*%
%TA.AperFunction,Conductor*%
%ADD28C,1.000000*%
%TD*%
%TA.AperFunction,Conductor*%
%ADD29C,0.300000*%
%TD*%
%TA.AperFunction,Conductor*%
%ADD30C,0.500000*%
%TD*%
%TA.AperFunction,Conductor*%
%ADD31C,0.400000*%
%TD*%
%TA.AperFunction,Conductor*%
%ADD32C,0.250000*%
%TD*%
%TA.AperFunction,Conductor*%
%ADD33C,0.200000*%
%TD*%
G04 APERTURE END LIST*
D10*
%TO.P,Q2,1,E1*%
%TO.N,GND*%
X46150000Y-44050000D03*
%TO.P,Q2,2,B1*%
%TO.N,/DEAD_TIME_CTRL*%
X45500000Y-44050000D03*
%TO.P,Q2,3,C2*%
%TO.N,/L*%
X44850000Y-44050000D03*
%TO.P,Q2,4,E2*%
%TO.N,GND*%
X44850000Y-45950000D03*
%TO.P,Q2,5,B2*%
%TO.N,/DEAD_TIME_CTRL*%
X45500000Y-45950000D03*
%TO.P,Q2,6,C1*%
X46150000Y-45950000D03*
%TD*%
D11*
%TO.P,C5,1*%
%TO.N,+5V*%
X33975000Y-36750000D03*
%TO.P,C5,2*%
%TO.N,/H*%
X35525000Y-36750000D03*
%TD*%
D12*
%TO.P,J1,1,Pin_1*%
%TO.N,/DEAD_TIME_CTRL*%
X28000000Y-46275000D03*
D13*
%TO.P,J1,2,Pin_2*%
%TO.N,/INPUT*%
X28000000Y-43735000D03*
%TO.P,J1,3,Pin_3*%
%TO.N,/INVERT_OUTPUT*%
X28000000Y-41195000D03*
%TO.P,J1,4,Pin_4*%
%TO.N,/~{ENABLE}*%
X28000000Y-38655000D03*
%TO.P,J1,5,Pin_5*%
%TO.N,VCC*%
X28000000Y-36115000D03*
%TO.P,J1,6,Pin_6*%
%TO.N,GND*%
X28000000Y-33575000D03*
%TO.P,J1,7,Pin_7*%
%TO.N,/OUT_L*%
X28000000Y-31035000D03*
%TO.P,J1,8,Pin_8*%
%TO.N,/OUT_H*%
X28000000Y-28495000D03*
%TD*%
D14*
%TO.P,R2,1*%
%TO.N,/INVERT_OUTPUT*%
X30750000Y-41425000D03*
%TO.P,R2,2*%
%TO.N,GND*%
X30750000Y-43075000D03*
%TD*%
D15*
%TO.P,Q6,1,B*%
%TO.N,Net-(Q6-B)*%
X46700000Y-38062500D03*
%TO.P,Q6,2,E*%
%TO.N,/L*%
X44800000Y-38062500D03*
%TO.P,Q6,3,C*%
%TO.N,+5V*%
X45750000Y-39937500D03*
%TD*%
D16*
%TO.P,C4,1*%
%TO.N,+5V*%
X48250000Y-39525000D03*
%TO.P,C4,2*%
%TO.N,GND*%
X48250000Y-37975000D03*
%TD*%
D17*
%TO.P,R1,1*%
%TO.N,/INPUT*%
X30675000Y-45750000D03*
%TO.P,R1,2*%
%TO.N,GND*%
X32325000Y-45750000D03*
%TD*%
D16*
%TO.P,C3,1*%
%TO.N,+5V*%
X44000000Y-31025000D03*
%TO.P,C3,2*%
%TO.N,GND*%
X44000000Y-29475000D03*
%TD*%
D18*
%TO.P,U1,1*%
%TO.N,/H*%
X37775000Y-33690000D03*
%TO.P,U1,2*%
%TO.N,/INVERT_OUTPUT*%
X37775000Y-34960000D03*
%TO.P,U1,3*%
%TO.N,/OUT_H*%
X37775000Y-36230000D03*
%TO.P,U1,4*%
%TO.N,+5V*%
X37775000Y-37500000D03*
%TO.P,U1,5*%
%TO.N,/INPUT*%
X37775000Y-38770000D03*
%TO.P,U1,6*%
%TO.N,Net-(Q4-B)*%
X37775000Y-40040000D03*
%TO.P,U1,7,GND*%
%TO.N,GND*%
X37775000Y-41310000D03*
%TO.P,U1,8*%
%TO.N,Net-(Q6-B)*%
X42725000Y-41310000D03*
%TO.P,U1,9*%
%TO.N,/INPUT*%
X42725000Y-40040000D03*
%TO.P,U1,10*%
%TO.N,GND*%
X42725000Y-38770000D03*
%TO.P,U1,11*%
%TO.N,/OUT_L*%
X42725000Y-37500000D03*
%TO.P,U1,12*%
%TO.N,/INVERT_OUTPUT*%
X42725000Y-36230000D03*
%TO.P,U1,13*%
%TO.N,/L*%
X42725000Y-34960000D03*
%TO.P,U1,14,VCC*%
%TO.N,+5V*%
X42725000Y-33690000D03*
%TD*%
D19*
%TO.P,Q4,1,B*%
%TO.N,Net-(Q4-B)*%
X35437500Y-40250000D03*
%TO.P,Q4,2,E*%
%TO.N,/H*%
X35437500Y-38350000D03*
%TO.P,Q4,3,C*%
%TO.N,+5V*%
X33562500Y-39300000D03*
%TD*%
D20*
%TO.P,C6,1*%
%TO.N,+5V*%
X33000000Y-42225000D03*
%TO.P,C6,2*%
%TO.N,GND*%
X33000000Y-43775000D03*
%TD*%
D21*
%TO.P,C7,1*%
%TO.N,+5V*%
X46525000Y-36250000D03*
%TO.P,C7,2*%
%TO.N,/L*%
X44975000Y-36250000D03*
%TD*%
D22*
%TO.P,U2,1,IN*%
%TO.N,VCC*%
X39000000Y-30950000D03*
D23*
%TO.P,U2,2,GND*%
%TO.N,GND*%
X40500000Y-30862500D03*
D22*
%TO.P,U2,3,OUT*%
%TO.N,+5V*%
X42000000Y-30950000D03*
%TD*%
D10*
%TO.P,Q1,1,E1*%
%TO.N,GND*%
X36900000Y-43050000D03*
%TO.P,Q1,2,B1*%
%TO.N,/DEAD_TIME_CTRL*%
X36250000Y-43050000D03*
%TO.P,Q1,3,C2*%
%TO.N,/H*%
X35600000Y-43050000D03*
%TO.P,Q1,4,E2*%
%TO.N,GND*%
X35600000Y-44950000D03*
%TO.P,Q1,5,B2*%
%TO.N,/DEAD_TIME_CTRL*%
X36250000Y-44950000D03*
%TO.P,Q1,6,C1*%
X36900000Y-44950000D03*
%TD*%
D24*
%TO.P,Q5,1,B*%
%TO.N,/~{ENABLE}*%
X33550000Y-34937500D03*
%TO.P,Q5,2,E*%
%TO.N,/H*%
X35450000Y-34937500D03*
%TO.P,Q5,3,C*%
%TO.N,+5V*%
X34500000Y-33062500D03*
%TD*%
D16*
%TO.P,C8,1*%
%TO.N,VCC*%
X37000000Y-31025000D03*
%TO.P,C8,2*%
%TO.N,GND*%
X37000000Y-29475000D03*
%TD*%
D14*
%TO.P,R4,1*%
%TO.N,+5V*%
X47750000Y-45750000D03*
%TO.P,R4,2*%
%TO.N,/DEAD_TIME_CTRL*%
X47750000Y-47400000D03*
%TD*%
D25*
%TO.P,Q7,1,B*%
%TO.N,/~{ENABLE}*%
X45062500Y-32800000D03*
%TO.P,Q7,2,E*%
%TO.N,/L*%
X45062500Y-34700000D03*
%TO.P,Q7,3,C*%
%TO.N,+5V*%
X46937500Y-33750000D03*
%TD*%
D26*
%TO.P,R3,1*%
%TO.N,/~{ENABLE}*%
X30750000Y-38575000D03*
%TO.P,R3,2*%
%TO.N,GND*%
X30750000Y-36925000D03*
%TD*%
D27*
%TO.N,VCC*%
X38000000Y-27300000D03*
%TO.N,GND*%
X36000000Y-49000000D03*
X44000000Y-28000000D03*
X48000000Y-49000000D03*
X33000000Y-30750000D03*
X35000000Y-49000000D03*
X26000000Y-43000000D03*
X44000000Y-49000000D03*
X41250000Y-47000000D03*
X49000000Y-45000000D03*
X37000000Y-26000000D03*
X39750000Y-45500000D03*
X49000000Y-48000000D03*
X26000000Y-30000000D03*
X33000000Y-29250000D03*
X46000000Y-49000000D03*
X26000000Y-29000000D03*
X28000000Y-49000000D03*
X34000000Y-49000000D03*
X30750000Y-44250000D03*
X37750000Y-43000000D03*
X49000000Y-30000000D03*
X26000000Y-42000000D03*
X39000000Y-49000000D03*
X44000000Y-26000000D03*
X49000000Y-49000000D03*
X26000000Y-27000000D03*
X40000000Y-26000000D03*
X41250000Y-45500000D03*
X35000000Y-29250000D03*
X26000000Y-34000000D03*
X30250000Y-40000000D03*
X39750000Y-47000000D03*
X37250000Y-47000000D03*
X41000000Y-26000000D03*
X49000000Y-29000000D03*
X47000000Y-49000000D03*
X28000000Y-26000000D03*
X45000000Y-49000000D03*
X43000000Y-28000000D03*
X32000000Y-26000000D03*
X49000000Y-47000000D03*
X44000000Y-47000000D03*
X31000000Y-31250000D03*
X47000000Y-30000000D03*
X30250000Y-30000000D03*
X31000000Y-26000000D03*
X32000000Y-30750000D03*
X47000000Y-31000000D03*
X40500000Y-30862500D03*
X26000000Y-33000000D03*
X34250000Y-46985422D03*
X46000000Y-26000000D03*
X49000000Y-28000000D03*
X32000000Y-29250000D03*
X31000000Y-29250000D03*
X34250000Y-44500000D03*
X26000000Y-32000000D03*
X30250000Y-33000000D03*
X43000000Y-26000000D03*
X40000000Y-49000000D03*
X30000000Y-49000000D03*
X34000000Y-29250000D03*
X26000000Y-41000000D03*
X38000000Y-26000000D03*
X49000000Y-42000000D03*
X26000000Y-48000000D03*
X35450000Y-46985422D03*
X30250000Y-34000000D03*
X27000000Y-26000000D03*
X39250000Y-41250000D03*
X49000000Y-31000000D03*
X46150000Y-43000000D03*
X29000000Y-49000000D03*
X26000000Y-35000000D03*
X29500000Y-30750000D03*
X48000000Y-26000000D03*
X29000000Y-26000000D03*
X33000000Y-49000000D03*
X42000000Y-49000000D03*
X49000000Y-27000000D03*
X37000000Y-49000000D03*
X33000000Y-26000000D03*
X38000000Y-49000000D03*
X29250000Y-42500000D03*
X26000000Y-28000000D03*
X34000000Y-26000000D03*
X26000000Y-26000000D03*
X46000000Y-28000000D03*
X49000000Y-46000000D03*
X27000000Y-49000000D03*
X49000000Y-44000000D03*
X26000000Y-38000000D03*
X49000000Y-35000000D03*
X47000000Y-29000000D03*
X41000000Y-38800000D03*
X30250000Y-32000000D03*
X26000000Y-40000000D03*
X47000000Y-26000000D03*
X42000000Y-28000000D03*
X26000000Y-46000000D03*
X49000000Y-36000000D03*
X42500000Y-47000000D03*
X35000000Y-26000000D03*
X41000000Y-28000000D03*
X26000000Y-49000000D03*
X36000000Y-26000000D03*
X49000000Y-37000000D03*
X49000000Y-33000000D03*
X26000000Y-31000000D03*
X43000000Y-49000000D03*
X39000000Y-29000000D03*
X45000000Y-26000000D03*
X45000000Y-28000000D03*
X26000000Y-36000000D03*
X40000000Y-28000000D03*
X42000000Y-26000000D03*
X30000000Y-26000000D03*
X26000000Y-45000000D03*
X40000000Y-29000000D03*
X26000000Y-44000000D03*
X41000000Y-49000000D03*
X26000000Y-39000000D03*
X26000000Y-37000000D03*
X49000000Y-26000000D03*
X41000000Y-29000000D03*
X39000000Y-26000000D03*
X30000000Y-47000000D03*
X26000000Y-47000000D03*
X47000000Y-28000000D03*
X49000000Y-32000000D03*
X31000000Y-49000000D03*
X38500000Y-47000000D03*
X49000000Y-34000000D03*
X33000000Y-47000000D03*
X35000000Y-30750000D03*
X32000000Y-49000000D03*
X49000000Y-43000000D03*
X49000000Y-38000000D03*
X34000000Y-30750000D03*
X49000000Y-41000000D03*
%TO.N,/INPUT*%
X40500000Y-44500000D03*
%TO.N,/INVERT_OUTPUT*%
X41150000Y-35650000D03*
%TO.N,/~{ENABLE}*%
X31750000Y-34500000D03*
X34504724Y-34504724D03*
%TO.N,/OUT_H*%
X39800000Y-37800000D03*
%TO.N,/OUT_L*%
X41000000Y-37200000D03*
%TO.N,+5V*%
X33975000Y-37550000D03*
X48250000Y-39525000D03*
X36500000Y-37550000D03*
X45750000Y-38800000D03*
%TO.N,/L*%
X44800000Y-40250000D03*
X44850000Y-42860000D03*
%TD*%
D28*
%TO.N,VCC*%
X38925000Y-31025000D02*
X39000000Y-30950000D01*
D29*
X38000000Y-27300000D02*
X38000000Y-30625000D01*
D28*
X38400000Y-31025000D02*
X38925000Y-31025000D01*
D30*
X36795000Y-30820000D02*
X37000000Y-31025000D01*
D28*
X37000000Y-31025000D02*
X38400000Y-31025000D01*
D29*
X38000000Y-30625000D02*
X38400000Y-31025000D01*
D31*
%TO.N,GND*%
X46150000Y-43000000D02*
X46150000Y-44050000D01*
D30*
X39190000Y-41310000D02*
X39250000Y-41250000D01*
X37775000Y-41310000D02*
X39190000Y-41310000D01*
D31*
X44800000Y-46000000D02*
X44850000Y-45950000D01*
D30*
%TO.N,/DEAD_TIME_CTRL*%
X28000000Y-47500000D02*
X28350000Y-47850000D01*
D31*
X36900000Y-44950000D02*
X36250000Y-44950000D01*
X36250000Y-43050000D02*
X36250000Y-44950000D01*
X46150000Y-45950000D02*
X45500000Y-45950000D01*
D32*
X47750000Y-47400000D02*
X45600000Y-47400000D01*
D30*
X45150000Y-47850000D02*
X45500000Y-47500000D01*
D32*
X45600000Y-47400000D02*
X45500000Y-47500000D01*
D30*
X45500000Y-47500000D02*
X45500000Y-44050000D01*
X34250000Y-47850000D02*
X45150000Y-47850000D01*
X28000000Y-46275000D02*
X28000000Y-47500000D01*
X28350000Y-47850000D02*
X34250000Y-47850000D01*
D31*
X36250000Y-44950000D02*
X36250000Y-47600000D01*
D33*
%TO.N,/INPUT*%
X39230000Y-38770000D02*
X37775000Y-38770000D01*
X40500000Y-40040000D02*
X39230000Y-38770000D01*
X40500000Y-44500000D02*
X40500000Y-40040000D01*
X40500000Y-40040000D02*
X42725000Y-40040000D01*
D32*
X28000000Y-43449092D02*
X28000000Y-43520000D01*
D30*
X37745000Y-38800000D02*
X37775000Y-38770000D01*
D32*
X30015000Y-45750000D02*
X28000000Y-43735000D01*
X30675000Y-45750000D02*
X30015000Y-45750000D01*
%TO.N,/INVERT_OUTPUT*%
X30750000Y-41425000D02*
X28230000Y-41425000D01*
D33*
X41730000Y-36230000D02*
X42725000Y-36230000D01*
D32*
X28230000Y-41425000D02*
X28000000Y-41195000D01*
D33*
X41150000Y-35650000D02*
X40460000Y-34960000D01*
X40460000Y-34960000D02*
X37775000Y-34960000D01*
X41150000Y-35650000D02*
X41730000Y-36230000D01*
%TO.N,/~{ENABLE}*%
X32000000Y-34750000D02*
X32000000Y-38000000D01*
X28000000Y-38655000D02*
X31020000Y-38655000D01*
X45062500Y-32800000D02*
X36209448Y-32800000D01*
X34071948Y-34937500D02*
X33550000Y-34937500D01*
X31750000Y-34500000D02*
X32000000Y-34750000D01*
X36209448Y-32800000D02*
X34504724Y-34504724D01*
X34504724Y-34504724D02*
X34071948Y-34937500D01*
X31425000Y-38575000D02*
X30750000Y-38575000D01*
X32000000Y-38000000D02*
X31425000Y-38575000D01*
%TO.N,/OUT_H*%
X38230000Y-36230000D02*
X37775000Y-36230000D01*
X39800000Y-37800000D02*
X38230000Y-36230000D01*
D32*
X28062000Y-27979000D02*
X28008000Y-27925000D01*
%TO.N,/OUT_L*%
X28008000Y-30465000D02*
X28059500Y-30516500D01*
D33*
X41000000Y-37200000D02*
X41300000Y-37500000D01*
X41300000Y-37500000D02*
X42725000Y-37500000D01*
D32*
X28008000Y-30465000D02*
X28122000Y-30579000D01*
D30*
%TO.N,+5V*%
X42000000Y-31600000D02*
X42000000Y-30950000D01*
X32750000Y-34000000D02*
X32750000Y-41975000D01*
X34500000Y-33062500D02*
X33687500Y-33062500D01*
X41350000Y-32250000D02*
X42000000Y-31600000D01*
D33*
X37775000Y-37500000D02*
X36550000Y-37500000D01*
X36550000Y-37500000D02*
X36500000Y-37550000D01*
D30*
X34500000Y-33062500D02*
X35312500Y-32250000D01*
X46877500Y-33690000D02*
X46937500Y-33750000D01*
X35312500Y-32250000D02*
X41350000Y-32250000D01*
X46750000Y-33937500D02*
X46937500Y-33750000D01*
D33*
X45750000Y-39937500D02*
X45750000Y-38800000D01*
D30*
X42725000Y-33690000D02*
X46877500Y-33690000D01*
X32750000Y-41975000D02*
X33000000Y-42225000D01*
D28*
X44000000Y-31025000D02*
X45231238Y-31025000D01*
D30*
X33562500Y-39300000D02*
X32750000Y-39300000D01*
D32*
X47750000Y-40025000D02*
X48250000Y-39525000D01*
D30*
X46750000Y-36025000D02*
X46750000Y-33937500D01*
D32*
X47750000Y-45750000D02*
X47750000Y-40025000D01*
D28*
X44000000Y-31025000D02*
X42075000Y-31025000D01*
X42075000Y-31025000D02*
X42000000Y-30950000D01*
X45231238Y-31025000D02*
X46937500Y-32731262D01*
D30*
X33975000Y-36750000D02*
X32750000Y-36750000D01*
X33687500Y-33062500D02*
X32750000Y-34000000D01*
X46525000Y-36250000D02*
X45750000Y-37025000D01*
X46525000Y-36250000D02*
X46750000Y-36025000D01*
X45750000Y-37025000D02*
X45750000Y-38800000D01*
D28*
X46937500Y-32731262D02*
X46937500Y-33750000D01*
D33*
%TO.N,/H*%
X34250000Y-40000000D02*
X35437500Y-38812500D01*
D31*
X35600000Y-42100000D02*
X35600000Y-43050000D01*
D32*
X35450000Y-34937500D02*
X35450000Y-34300000D01*
D30*
X35450000Y-34937500D02*
X35437500Y-34950000D01*
D32*
X35450000Y-34300000D02*
X36060000Y-33690000D01*
X36060000Y-33690000D02*
X37775000Y-33690000D01*
D33*
X35437500Y-38812500D02*
X35437500Y-38350000D01*
D30*
X35437500Y-34950000D02*
X35437500Y-38350000D01*
D31*
X34250000Y-40000000D02*
X34250000Y-40750000D01*
X34250000Y-40750000D02*
X35600000Y-42100000D01*
%TO.N,/L*%
X44850000Y-42860000D02*
X44850000Y-44050000D01*
D33*
X42725000Y-34960000D02*
X43790000Y-34960000D01*
D30*
X44800000Y-34962500D02*
X45062500Y-34700000D01*
D33*
X44800000Y-40250000D02*
X44800000Y-40450000D01*
D32*
X42735000Y-34950000D02*
X42725000Y-34960000D01*
D33*
X44800000Y-38062500D02*
X44800000Y-40250000D01*
X44050000Y-34700000D02*
X45062500Y-34700000D01*
X43790000Y-34960000D02*
X44050000Y-34700000D01*
D30*
X44800000Y-38062500D02*
X44800000Y-34962500D01*
D33*
%TO.N,Net-(Q4-B)*%
X37565000Y-40250000D02*
X35437500Y-40250000D01*
X37775000Y-40040000D02*
X37565000Y-40250000D01*
%TO.N,Net-(Q6-B)*%
X46700000Y-41050000D02*
X46440000Y-41310000D01*
X46440000Y-41310000D02*
X42725000Y-41310000D01*
D30*
X42725000Y-41310000D02*
X43422500Y-41310000D01*
D33*
X46700000Y-38062500D02*
X46700000Y-41050000D01*
%TD*%
%TA.AperFunction,Conductor*%
%TO.N,GND*%
G36*
X40595879Y-37647226D02*
G01*
X40603201Y-37652440D01*
X40697159Y-37724536D01*
X40843238Y-37785044D01*
X40893196Y-37791621D01*
X40999999Y-37805682D01*
X40999999Y-37805681D01*
X41000000Y-37805682D01*
X41156762Y-37785044D01*
X41156762Y-37785043D01*
X41162754Y-37784255D01*
X41211809Y-37787469D01*
X41260438Y-37800500D01*
X41505973Y-37800500D01*
X41574094Y-37820502D01*
X41608517Y-37853283D01*
X41616391Y-37864311D01*
X41639697Y-37931374D01*
X41623046Y-38000390D01*
X41577986Y-38045981D01*
X41493503Y-38095943D01*
X41493496Y-38095949D01*
X41375949Y-38213496D01*
X41375948Y-38213498D01*
X41291318Y-38356598D01*
X41245007Y-38516000D01*
X42853000Y-38516000D01*
X42921121Y-38536002D01*
X42967614Y-38589658D01*
X42979000Y-38642000D01*
X42979000Y-38898000D01*
X42958998Y-38966121D01*
X42905342Y-39012614D01*
X42853000Y-39024000D01*
X41245007Y-39024000D01*
X41291318Y-39183401D01*
X41375948Y-39326501D01*
X41375949Y-39326503D01*
X41493497Y-39444051D01*
X41577986Y-39494017D01*
X41626438Y-39545910D01*
X41639144Y-39615760D01*
X41616394Y-39675683D01*
X41608520Y-39686712D01*
X41552660Y-39730531D01*
X41505973Y-39739500D01*
X40676661Y-39739500D01*
X40608540Y-39719498D01*
X40587566Y-39702595D01*
X39454019Y-38569047D01*
X39419993Y-38506735D01*
X39425058Y-38435919D01*
X39467605Y-38379084D01*
X39534125Y-38354273D01*
X39591328Y-38363542D01*
X39643238Y-38385044D01*
X39800000Y-38405682D01*
X39956762Y-38385044D01*
X40102841Y-38324536D01*
X40228282Y-38228282D01*
X40324536Y-38102841D01*
X40385044Y-37956762D01*
X40405682Y-37800000D01*
X40401581Y-37768852D01*
X40412520Y-37698706D01*
X40459647Y-37645607D01*
X40528001Y-37626416D01*
X40595879Y-37647226D01*
G37*
%TD.AperFunction*%
%TA.AperFunction,Conductor*%
G36*
X49942121Y-25020002D02*
G01*
X49988614Y-25073658D01*
X50000000Y-25126000D01*
X50000000Y-49874000D01*
X49979998Y-49942121D01*
X49926342Y-49988614D01*
X49874000Y-50000000D01*
X25126000Y-50000000D01*
X25057879Y-49979998D01*
X25011386Y-49926342D01*
X25000000Y-49874000D01*
X25000000Y-41194996D01*
X26944417Y-41194996D01*
X26944417Y-41195003D01*
X26964698Y-41400927D01*
X26964699Y-41400933D01*
X26964700Y-41400934D01*
X26992707Y-41493261D01*
X27024768Y-41598954D01*
X27105771Y-41750500D01*
X27122315Y-41781450D01*
X27253590Y-41941410D01*
X27413550Y-42072685D01*
X27596046Y-42170232D01*
X27794066Y-42230300D01*
X27794070Y-42230300D01*
X27794072Y-42230301D01*
X27999997Y-42250583D01*
X28000000Y-42250583D01*
X28000003Y-42250583D01*
X28205927Y-42230301D01*
X28205928Y-42230300D01*
X28205934Y-42230300D01*
X28403954Y-42170232D01*
X28586450Y-42072685D01*
X28746410Y-41941410D01*
X28865279Y-41796565D01*
X28923955Y-41756598D01*
X28962678Y-41750500D01*
X30012241Y-41750500D01*
X30080362Y-41770502D01*
X30124508Y-41819297D01*
X30146950Y-41863343D01*
X30236655Y-41953048D01*
X30236660Y-41953052D01*
X30271031Y-41970565D01*
X30322646Y-42019313D01*
X30339711Y-42088228D01*
X30316810Y-42155430D01*
X30261212Y-42199581D01*
X30251313Y-42203126D01*
X30182293Y-42224633D01*
X30035159Y-42313578D01*
X30035149Y-42313586D01*
X29913586Y-42435149D01*
X29913578Y-42435159D01*
X29824633Y-42582293D01*
X29773481Y-42746446D01*
X29773481Y-42746447D01*
X29767000Y-42817777D01*
X29767000Y-42821000D01*
X31732999Y-42821000D01*
X31732999Y-42817778D01*
X31726518Y-42746446D01*
X31675366Y-42582293D01*
X31586421Y-42435159D01*
X31586413Y-42435149D01*
X31464850Y-42313586D01*
X31464840Y-42313578D01*
X31317706Y-42224633D01*
X31248686Y-42203126D01*
X31189601Y-42163763D01*
X31161176Y-42098705D01*
X31172436Y-42028607D01*
X31219807Y-41975725D01*
X31228969Y-41970564D01*
X31263342Y-41953050D01*
X31353050Y-41863342D01*
X31379974Y-41810500D01*
X31410646Y-41750304D01*
X31425500Y-41656519D01*
X31425499Y-41193482D01*
X31410646Y-41099696D01*
X31357764Y-40995909D01*
X31353050Y-40986657D01*
X31263342Y-40896949D01*
X31182349Y-40855682D01*
X31150304Y-40839354D01*
X31056519Y-40824500D01*
X31056515Y-40824500D01*
X30443483Y-40824500D01*
X30349697Y-40839353D01*
X30236657Y-40896949D01*
X30146950Y-40986656D01*
X30124508Y-41030703D01*
X30075759Y-41082318D01*
X30012241Y-41099500D01*
X29160377Y-41099500D01*
X29092256Y-41079498D01*
X29045763Y-41025842D01*
X29037439Y-40994960D01*
X29036510Y-40995145D01*
X29035302Y-40989076D01*
X29035300Y-40989071D01*
X29035300Y-40989066D01*
X28975232Y-40791046D01*
X28877685Y-40608550D01*
X28746410Y-40448590D01*
X28586450Y-40317315D01*
X28586448Y-40317314D01*
X28586447Y-40317313D01*
X28403954Y-40219768D01*
X28221662Y-40164471D01*
X28205934Y-40159700D01*
X28205933Y-40159699D01*
X28205927Y-40159698D01*
X28000003Y-40139417D01*
X27999997Y-40139417D01*
X27794072Y-40159698D01*
X27596045Y-40219768D01*
X27413552Y-40317313D01*
X27253590Y-40448590D01*
X27122313Y-40608552D01*
X27024768Y-40791045D01*
X26964698Y-40989072D01*
X26944417Y-41194996D01*
X25000000Y-41194996D01*
X25000000Y-38654996D01*
X26944417Y-38654996D01*
X26944417Y-38655003D01*
X26964698Y-38860927D01*
X26964699Y-38860933D01*
X26964700Y-38860934D01*
X27020240Y-39044026D01*
X27024768Y-39058954D01*
X27105075Y-39209198D01*
X27122315Y-39241450D01*
X27253590Y-39401410D01*
X27413550Y-39532685D01*
X27596046Y-39630232D01*
X27794066Y-39690300D01*
X27794070Y-39690300D01*
X27794072Y-39690301D01*
X27999997Y-39710583D01*
X28000000Y-39710583D01*
X28000003Y-39710583D01*
X28205927Y-39690301D01*
X28205928Y-39690300D01*
X28205934Y-39690300D01*
X28403954Y-39630232D01*
X28586450Y-39532685D01*
X28746410Y-39401410D01*
X28877685Y-39241450D01*
X28975232Y-39058954D01*
X28979489Y-39044922D01*
X29018405Y-38985542D01*
X29083247Y-38956627D01*
X29100063Y-38955500D01*
X30040725Y-38955500D01*
X30108846Y-38975502D01*
X30142658Y-39007435D01*
X30146947Y-39013338D01*
X30146948Y-39013339D01*
X30146950Y-39013342D01*
X30236658Y-39103050D01*
X30236657Y-39103050D01*
X30263526Y-39116740D01*
X30349696Y-39160646D01*
X30443481Y-39175500D01*
X31056518Y-39175499D01*
X31150304Y-39160646D01*
X31263342Y-39103050D01*
X31353050Y-39013342D01*
X31391290Y-38938291D01*
X31440035Y-38886679D01*
X31470937Y-38873791D01*
X31540989Y-38855021D01*
X31609511Y-38815460D01*
X31665460Y-38759511D01*
X32084405Y-38340566D01*
X32146717Y-38306540D01*
X32217532Y-38311605D01*
X32274368Y-38354152D01*
X32299179Y-38420672D01*
X32299500Y-38429661D01*
X32299500Y-42034309D01*
X32302974Y-42047274D01*
X32304002Y-42051108D01*
X32304003Y-42051113D01*
X32320207Y-42111587D01*
X32324500Y-42144198D01*
X32324500Y-42483488D01*
X32340281Y-42583126D01*
X32340282Y-42583127D01*
X32401471Y-42703219D01*
X32412823Y-42714571D01*
X32446849Y-42776883D01*
X32441784Y-42847698D01*
X32399237Y-42904534D01*
X32389875Y-42910907D01*
X32292271Y-42971109D01*
X32292265Y-42971114D01*
X32171114Y-43092265D01*
X32171109Y-43092271D01*
X32081152Y-43238115D01*
X32027257Y-43400758D01*
X32027255Y-43400770D01*
X32017000Y-43501147D01*
X32017000Y-43521000D01*
X33983000Y-43521000D01*
X33983000Y-43501147D01*
X33972744Y-43400770D01*
X33972742Y-43400758D01*
X33918847Y-43238115D01*
X33828890Y-43092271D01*
X33828885Y-43092265D01*
X33707734Y-42971114D01*
X33707728Y-42971109D01*
X33610124Y-42910907D01*
X33562646Y-42858121D01*
X33551243Y-42788046D01*
X33579535Y-42722931D01*
X33587156Y-42714591D01*
X33598528Y-42703220D01*
X33659719Y-42583126D01*
X33675500Y-42483488D01*
X33675500Y-41966512D01*
X33659719Y-41866874D01*
X33598528Y-41746780D01*
X33503220Y-41651472D01*
X33503219Y-41651471D01*
X33422806Y-41610499D01*
X33383126Y-41590281D01*
X33306787Y-41578190D01*
X33242636Y-41547778D01*
X33205109Y-41487510D01*
X33200500Y-41453742D01*
X33200500Y-39926500D01*
X33220502Y-39858379D01*
X33274158Y-39811886D01*
X33326500Y-39800500D01*
X33725148Y-39800500D01*
X33793269Y-39820502D01*
X33839762Y-39874158D01*
X33849480Y-39939015D01*
X33849500Y-39939015D01*
X33849500Y-39939146D01*
X33850070Y-39942950D01*
X33849501Y-39947268D01*
X33849500Y-39947273D01*
X33849500Y-40697273D01*
X33849500Y-40802727D01*
X33876793Y-40904588D01*
X33876794Y-40904590D01*
X33876795Y-40904592D01*
X33929517Y-40995909D01*
X33929525Y-40995919D01*
X35162595Y-42228988D01*
X35196620Y-42291300D01*
X35199500Y-42318083D01*
X35199500Y-43319860D01*
X35199501Y-43319866D01*
X35202414Y-43344989D01*
X35202416Y-43344994D01*
X35247793Y-43447765D01*
X35327232Y-43527204D01*
X35327234Y-43527205D01*
X35327235Y-43527206D01*
X35430009Y-43572585D01*
X35430008Y-43572585D01*
X35431810Y-43572794D01*
X35455135Y-43575500D01*
X35723500Y-43575499D01*
X35791620Y-43595501D01*
X35838113Y-43649156D01*
X35849500Y-43701499D01*
X35849500Y-44024418D01*
X35829498Y-44092539D01*
X35806578Y-44119149D01*
X35800000Y-44124917D01*
X35800000Y-45775080D01*
X35806577Y-45780848D01*
X35844605Y-45840801D01*
X35849500Y-45875580D01*
X35849500Y-47273500D01*
X35829498Y-47341621D01*
X35775842Y-47388114D01*
X35723500Y-47399500D01*
X29143453Y-47399500D01*
X29075332Y-47379498D01*
X29028839Y-47325842D01*
X29018735Y-47255568D01*
X29034359Y-47214794D01*
X29034118Y-47214694D01*
X29037853Y-47205676D01*
X29038687Y-47203499D01*
X29038867Y-47203231D01*
X29050500Y-47144748D01*
X29050500Y-45550017D01*
X29070502Y-45481896D01*
X29124158Y-45435403D01*
X29194432Y-45425299D01*
X29259012Y-45454793D01*
X29265595Y-45460922D01*
X29754534Y-45949861D01*
X29754535Y-45949862D01*
X29815138Y-46010465D01*
X29815139Y-46010466D01*
X29815141Y-46010467D01*
X29889357Y-46053316D01*
X29889359Y-46053316D01*
X29889362Y-46053318D01*
X29972147Y-46075500D01*
X29974026Y-46075500D01*
X29975552Y-46075948D01*
X29980336Y-46076578D01*
X29980237Y-46077323D01*
X30042147Y-46095502D01*
X30086293Y-46144297D01*
X30146949Y-46263341D01*
X30146951Y-46263344D01*
X30236657Y-46353050D01*
X30275299Y-46372738D01*
X30349696Y-46410646D01*
X30443481Y-46425500D01*
X30906518Y-46425499D01*
X31000304Y-46410646D01*
X31113342Y-46353050D01*
X31203050Y-46263342D01*
X31220564Y-46228969D01*
X31269312Y-46177354D01*
X31338227Y-46160288D01*
X31405429Y-46183189D01*
X31449581Y-46238786D01*
X31453126Y-46248686D01*
X31474633Y-46317706D01*
X31563578Y-46464840D01*
X31563586Y-46464850D01*
X31685149Y-46586413D01*
X31685159Y-46586421D01*
X31832293Y-46675366D01*
X31996446Y-46726518D01*
X32067781Y-46732999D01*
X32070999Y-46732999D01*
X32579000Y-46732999D01*
X32582222Y-46732999D01*
X32653553Y-46726518D01*
X32817706Y-46675366D01*
X32964840Y-46586421D01*
X32964850Y-46586413D01*
X33086413Y-46464850D01*
X33086421Y-46464840D01*
X33175366Y-46317706D01*
X33226518Y-46153553D01*
X33226518Y-46153552D01*
X33233000Y-46082222D01*
X33233000Y-46004000D01*
X32579000Y-46004000D01*
X32579000Y-46732999D01*
X32070999Y-46732999D01*
X32071000Y-46732998D01*
X32071000Y-45622000D01*
X32091002Y-45553879D01*
X32144658Y-45507386D01*
X32197000Y-45496000D01*
X33232999Y-45496000D01*
X33232999Y-45417778D01*
X33226518Y-45346446D01*
X33185512Y-45214854D01*
X34892001Y-45214854D01*
X34907650Y-45333718D01*
X34907650Y-45333719D01*
X34968912Y-45481621D01*
X34968917Y-45481629D01*
X35066369Y-45608630D01*
X35193370Y-45706082D01*
X35193378Y-45706087D01*
X35341280Y-45767349D01*
X35341281Y-45767350D01*
X35400000Y-45775079D01*
X35400000Y-45150000D01*
X34892001Y-45150000D01*
X34892001Y-45214854D01*
X33185512Y-45214854D01*
X33175366Y-45182293D01*
X33086421Y-45035159D01*
X33086413Y-45035149D01*
X32964850Y-44913586D01*
X32964840Y-44913578D01*
X32811184Y-44820691D01*
X32812257Y-44818914D01*
X32766376Y-44779595D01*
X32752417Y-44733000D01*
X33254000Y-44733000D01*
X33298853Y-44733000D01*
X33298852Y-44732999D01*
X33399229Y-44722744D01*
X33399241Y-44722742D01*
X33512685Y-44685150D01*
X34892000Y-44685150D01*
X34892000Y-44750000D01*
X35400000Y-44750000D01*
X35400000Y-44124919D01*
X35399999Y-44124919D01*
X35341281Y-44132649D01*
X35193378Y-44193912D01*
X35193370Y-44193917D01*
X35066369Y-44291369D01*
X34968917Y-44418370D01*
X34968912Y-44418378D01*
X34907649Y-44566281D01*
X34892000Y-44685150D01*
X33512685Y-44685150D01*
X33561884Y-44668847D01*
X33707728Y-44578890D01*
X33707734Y-44578885D01*
X33828885Y-44457734D01*
X33828890Y-44457728D01*
X33918847Y-44311884D01*
X33972742Y-44149241D01*
X33972744Y-44149229D01*
X33982999Y-44048852D01*
X33983000Y-44048852D01*
X33983000Y-44029000D01*
X33254000Y-44029000D01*
X33254000Y-44733000D01*
X32752417Y-44733000D01*
X32746002Y-44711585D01*
X32746000Y-44710896D01*
X32746000Y-44029000D01*
X32017000Y-44029000D01*
X32017000Y-44048852D01*
X32027255Y-44149229D01*
X32027257Y-44149241D01*
X32081152Y-44311884D01*
X32171109Y-44457728D01*
X32171114Y-44457734D01*
X32265285Y-44551905D01*
X32299311Y-44614217D01*
X32294246Y-44685032D01*
X32251699Y-44741868D01*
X32185179Y-44766679D01*
X32176191Y-44767000D01*
X32067778Y-44767000D01*
X31996446Y-44773481D01*
X31832293Y-44824633D01*
X31685159Y-44913578D01*
X31685149Y-44913586D01*
X31563586Y-45035149D01*
X31563578Y-45035159D01*
X31474633Y-45182293D01*
X31453126Y-45251313D01*
X31413763Y-45310399D01*
X31348705Y-45338823D01*
X31278607Y-45327562D01*
X31225725Y-45280191D01*
X31220565Y-45271031D01*
X31203052Y-45236660D01*
X31203048Y-45236655D01*
X31113342Y-45146949D01*
X31032349Y-45105682D01*
X31000304Y-45089354D01*
X30906519Y-45074500D01*
X30906515Y-45074500D01*
X30443483Y-45074500D01*
X30349697Y-45089353D01*
X30236657Y-45146949D01*
X30236655Y-45146951D01*
X30143562Y-45240045D01*
X30081250Y-45274071D01*
X30010435Y-45269006D01*
X29965372Y-45240045D01*
X29002267Y-44276940D01*
X28968241Y-44214628D01*
X28973306Y-44143813D01*
X28974955Y-44139621D01*
X28975223Y-44138969D01*
X28975232Y-44138954D01*
X29035300Y-43940934D01*
X29036834Y-43925366D01*
X29055583Y-43735003D01*
X29055583Y-43734996D01*
X29035301Y-43529072D01*
X29035300Y-43529070D01*
X29035300Y-43529066D01*
X28975588Y-43332221D01*
X29767001Y-43332221D01*
X29773481Y-43403553D01*
X29824633Y-43567706D01*
X29913578Y-43714840D01*
X29913586Y-43714850D01*
X30035149Y-43836413D01*
X30035159Y-43836421D01*
X30182293Y-43925366D01*
X30346447Y-43976518D01*
X30417777Y-43982999D01*
X31004000Y-43982999D01*
X31082222Y-43982999D01*
X31153553Y-43976518D01*
X31317706Y-43925366D01*
X31464840Y-43836421D01*
X31464850Y-43836413D01*
X31586413Y-43714850D01*
X31586421Y-43714840D01*
X31675366Y-43567706D01*
X31726518Y-43403553D01*
X31726518Y-43403552D01*
X31733000Y-43332222D01*
X31733000Y-43329000D01*
X31004000Y-43329000D01*
X31004000Y-43982999D01*
X30417777Y-43982999D01*
X30495999Y-43982998D01*
X30496000Y-43982998D01*
X30496000Y-43329000D01*
X29767001Y-43329000D01*
X29767001Y-43332221D01*
X28975588Y-43332221D01*
X28975232Y-43331046D01*
X28877685Y-43148550D01*
X28746410Y-42988590D01*
X28586450Y-42857315D01*
X28586448Y-42857314D01*
X28586447Y-42857313D01*
X28403954Y-42759768D01*
X28282517Y-42722931D01*
X28205934Y-42699700D01*
X28205933Y-42699699D01*
X28205927Y-42699698D01*
X28000003Y-42679417D01*
X27999997Y-42679417D01*
X27794072Y-42699698D01*
X27596045Y-42759768D01*
X27413552Y-42857313D01*
X27253590Y-42988590D01*
X27122313Y-43148552D01*
X27024768Y-43331045D01*
X26964698Y-43529072D01*
X26944417Y-43734996D01*
X26944417Y-43735003D01*
X26964698Y-43940927D01*
X26964699Y-43940933D01*
X26964700Y-43940934D01*
X26986104Y-44011493D01*
X27024768Y-44138954D01*
X27118786Y-44314849D01*
X27122315Y-44321450D01*
X27253590Y-44481410D01*
X27413550Y-44612685D01*
X27596046Y-44710232D01*
X27794066Y-44770300D01*
X27794070Y-44770300D01*
X27794072Y-44770301D01*
X27999997Y-44790583D01*
X28000000Y-44790583D01*
X28000003Y-44790583D01*
X28205927Y-44770301D01*
X28205928Y-44770300D01*
X28205934Y-44770300D01*
X28403954Y-44710232D01*
X28403969Y-44710223D01*
X28404621Y-44709955D01*
X28405002Y-44709913D01*
X28409878Y-44708435D01*
X28410158Y-44709359D01*
X28475211Y-44702363D01*
X28538699Y-44734139D01*
X28541940Y-44737267D01*
X28814078Y-45009405D01*
X28848104Y-45071717D01*
X28843039Y-45142532D01*
X28800492Y-45199368D01*
X28733972Y-45224179D01*
X28724983Y-45224500D01*
X27130249Y-45224500D01*
X27071771Y-45236132D01*
X27071768Y-45236133D01*
X27005448Y-45280448D01*
X26961133Y-45346768D01*
X26961132Y-45346771D01*
X26949500Y-45405249D01*
X26949500Y-47144750D01*
X26961132Y-47203228D01*
X26961133Y-47203231D01*
X27005448Y-47269552D01*
X27071769Y-47313867D01*
X27130252Y-47325500D01*
X27423500Y-47325500D01*
X27491621Y-47345502D01*
X27538114Y-47399158D01*
X27549500Y-47451500D01*
X27549500Y-47559312D01*
X27568848Y-47631516D01*
X27568849Y-47631520D01*
X27580198Y-47673881D01*
X27580201Y-47673887D01*
X27639508Y-47776610D01*
X27639510Y-47776612D01*
X27639511Y-47776614D01*
X28073386Y-48210490D01*
X28073387Y-48210491D01*
X28073389Y-48210492D01*
X28176109Y-48269797D01*
X28176110Y-48269797D01*
X28176113Y-48269799D01*
X28189540Y-48273396D01*
X28200314Y-48276283D01*
X28200318Y-48276284D01*
X28200326Y-48276286D01*
X28290691Y-48300500D01*
X45209309Y-48300500D01*
X45299673Y-48276286D01*
X45323887Y-48269799D01*
X45426614Y-48210489D01*
X45860490Y-47776614D01*
X45860495Y-47776605D01*
X45861881Y-47774800D01*
X45863449Y-47773654D01*
X45866330Y-47770774D01*
X45866779Y-47771223D01*
X45919218Y-47732930D01*
X45961847Y-47725500D01*
X47012241Y-47725500D01*
X47080362Y-47745502D01*
X47124508Y-47794297D01*
X47146950Y-47838343D01*
X47236657Y-47928050D01*
X47275299Y-47947738D01*
X47349696Y-47985646D01*
X47443481Y-48000500D01*
X48056518Y-48000499D01*
X48150304Y-47985646D01*
X48263342Y-47928050D01*
X48353050Y-47838342D01*
X48410646Y-47725304D01*
X48425500Y-47631519D01*
X48425499Y-47168482D01*
X48410646Y-47074696D01*
X48373015Y-47000842D01*
X48353050Y-46961657D01*
X48263342Y-46871949D01*
X48187502Y-46833307D01*
X48150304Y-46814354D01*
X48056519Y-46799500D01*
X48056515Y-46799500D01*
X47443483Y-46799500D01*
X47349697Y-46814353D01*
X47236657Y-46871949D01*
X47146950Y-46961656D01*
X47124508Y-47005703D01*
X47075759Y-47057318D01*
X47012241Y-47074500D01*
X46076500Y-47074500D01*
X46008379Y-47054498D01*
X45961886Y-47000842D01*
X45950500Y-46948500D01*
X45950500Y-46601499D01*
X45970502Y-46533378D01*
X46024158Y-46486885D01*
X46076496Y-46475499D01*
X46294864Y-46475499D01*
X46319991Y-46472585D01*
X46422765Y-46427206D01*
X46502206Y-46347765D01*
X46547585Y-46244991D01*
X46550500Y-46219865D01*
X46550500Y-45981518D01*
X46550500Y-45897273D01*
X46550500Y-45887123D01*
X46550499Y-45887109D01*
X46550499Y-45680140D01*
X46550499Y-45680136D01*
X46547585Y-45655009D01*
X46502206Y-45552235D01*
X46502206Y-45552234D01*
X46422767Y-45472795D01*
X46422765Y-45472794D01*
X46319989Y-45427414D01*
X46319991Y-45427414D01*
X46294869Y-45424500D01*
X46076500Y-45424500D01*
X46008379Y-45404498D01*
X45961886Y-45350842D01*
X45950500Y-45298500D01*
X45950500Y-44875079D01*
X46350000Y-44875079D01*
X46408718Y-44867350D01*
X46408719Y-44867349D01*
X46556621Y-44806087D01*
X46556629Y-44806082D01*
X46683630Y-44708630D01*
X46781082Y-44581629D01*
X46781087Y-44581621D01*
X46842350Y-44433718D01*
X46857999Y-44314849D01*
X46858000Y-44314840D01*
X46858000Y-44250000D01*
X46350000Y-44250000D01*
X46350000Y-44875079D01*
X45950500Y-44875079D01*
X45950500Y-43986267D01*
X45950000Y-43978637D01*
X45950000Y-43850000D01*
X46350000Y-43850000D01*
X46857999Y-43850000D01*
X46857999Y-43785154D01*
X46857998Y-43785145D01*
X46842349Y-43666281D01*
X46842349Y-43666280D01*
X46781087Y-43518378D01*
X46781082Y-43518370D01*
X46683630Y-43391369D01*
X46556629Y-43293917D01*
X46556621Y-43293912D01*
X46408718Y-43232649D01*
X46350000Y-43224919D01*
X46350000Y-43850000D01*
X45950000Y-43850000D01*
X45950000Y-43224919D01*
X45949999Y-43224919D01*
X45891281Y-43232649D01*
X45743378Y-43293912D01*
X45743370Y-43293917D01*
X45616371Y-43391368D01*
X45552040Y-43475205D01*
X45494701Y-43517072D01*
X45452078Y-43524500D01*
X45376500Y-43524500D01*
X45308379Y-43504498D01*
X45261886Y-43450842D01*
X45250500Y-43398500D01*
X45250500Y-43367259D01*
X45270502Y-43299138D01*
X45276538Y-43290555D01*
X45316776Y-43238115D01*
X45374536Y-43162841D01*
X45435044Y-43016762D01*
X45455682Y-42860000D01*
X45454365Y-42850000D01*
X45441860Y-42755009D01*
X45435044Y-42703238D01*
X45374536Y-42557159D01*
X45278282Y-42431718D01*
X45152841Y-42335464D01*
X45006762Y-42274956D01*
X45006760Y-42274955D01*
X44850000Y-42254318D01*
X44693239Y-42274955D01*
X44547160Y-42335463D01*
X44547157Y-42335465D01*
X44421718Y-42431718D01*
X44325465Y-42557157D01*
X44325463Y-42557160D01*
X44264955Y-42703239D01*
X44244318Y-42859999D01*
X44244318Y-42860000D01*
X44264955Y-43016760D01*
X44325463Y-43162839D01*
X44325468Y-43162847D01*
X44423462Y-43290555D01*
X44449063Y-43356775D01*
X44449500Y-43367259D01*
X44449500Y-44319860D01*
X44449501Y-44319866D01*
X44452414Y-44344989D01*
X44452416Y-44344994D01*
X44497793Y-44447765D01*
X44577232Y-44527204D01*
X44577234Y-44527205D01*
X44577235Y-44527206D01*
X44680009Y-44572585D01*
X44680008Y-44572585D01*
X44684478Y-44573103D01*
X44705135Y-44575500D01*
X44923499Y-44575499D01*
X44991620Y-44595501D01*
X45038113Y-44649156D01*
X45049500Y-44701499D01*
X45049500Y-47261205D01*
X45029498Y-47329326D01*
X45012599Y-47350297D01*
X45000305Y-47362592D01*
X44937994Y-47396619D01*
X44911206Y-47399500D01*
X36776500Y-47399500D01*
X36708379Y-47379498D01*
X36661886Y-47325842D01*
X36650500Y-47273500D01*
X36650500Y-46214854D01*
X44142001Y-46214854D01*
X44157650Y-46333718D01*
X44157650Y-46333719D01*
X44218912Y-46481621D01*
X44218917Y-46481629D01*
X44316369Y-46608630D01*
X44443370Y-46706082D01*
X44443378Y-46706087D01*
X44591280Y-46767349D01*
X44591281Y-46767350D01*
X44650000Y-46775079D01*
X44650000Y-46150000D01*
X44142001Y-46150000D01*
X44142001Y-46214854D01*
X36650500Y-46214854D01*
X36650500Y-45685150D01*
X44142000Y-45685150D01*
X44142000Y-45750000D01*
X44650000Y-45750000D01*
X44650000Y-45124919D01*
X44649999Y-45124919D01*
X44591281Y-45132649D01*
X44443378Y-45193912D01*
X44443370Y-45193917D01*
X44316369Y-45291369D01*
X44218917Y-45418370D01*
X44218912Y-45418378D01*
X44157649Y-45566281D01*
X44142000Y-45685150D01*
X36650500Y-45685150D01*
X36650500Y-45601499D01*
X36670502Y-45533378D01*
X36724158Y-45486885D01*
X36776495Y-45475499D01*
X37044864Y-45475499D01*
X37069991Y-45472585D01*
X37172765Y-45427206D01*
X37252206Y-45347765D01*
X37297585Y-45244991D01*
X37300500Y-45219865D01*
X37300500Y-44950500D01*
X37300500Y-44897273D01*
X37300500Y-44887123D01*
X37300499Y-44887109D01*
X37300499Y-44680140D01*
X37300499Y-44680136D01*
X37297585Y-44655009D01*
X37265181Y-44581621D01*
X37252206Y-44552234D01*
X37172767Y-44472795D01*
X37172765Y-44472794D01*
X37069989Y-44427414D01*
X37069991Y-44427414D01*
X37044869Y-44424500D01*
X36776500Y-44424500D01*
X36708379Y-44404498D01*
X36661886Y-44350842D01*
X36650500Y-44298500D01*
X36650500Y-43975580D01*
X36670502Y-43907459D01*
X36693423Y-43880848D01*
X36700000Y-43875080D01*
X36700000Y-43875079D01*
X37100000Y-43875079D01*
X37158718Y-43867350D01*
X37158719Y-43867349D01*
X37306621Y-43806087D01*
X37306629Y-43806082D01*
X37433630Y-43708630D01*
X37531082Y-43581629D01*
X37531087Y-43581621D01*
X37592350Y-43433718D01*
X37607999Y-43314849D01*
X37608000Y-43314840D01*
X37608000Y-43250000D01*
X37100000Y-43250000D01*
X37100000Y-43875079D01*
X36700000Y-43875079D01*
X36700000Y-42976000D01*
X36720002Y-42907879D01*
X36773658Y-42861386D01*
X36826000Y-42850000D01*
X37607999Y-42850000D01*
X37607999Y-42785154D01*
X37607998Y-42785145D01*
X37592349Y-42666281D01*
X37592349Y-42666280D01*
X37531087Y-42518378D01*
X37531082Y-42518370D01*
X37433632Y-42391372D01*
X37371846Y-42343962D01*
X37329979Y-42286624D01*
X37325757Y-42215753D01*
X37360521Y-42153850D01*
X37423234Y-42120569D01*
X37448550Y-42117999D01*
X37521000Y-42117999D01*
X38029000Y-42117999D01*
X38666456Y-42117999D01*
X38703750Y-42115065D01*
X38863400Y-42068681D01*
X39006501Y-41984051D01*
X39006503Y-41984050D01*
X39124050Y-41866503D01*
X39124051Y-41866501D01*
X39208681Y-41723401D01*
X39254993Y-41564000D01*
X38029000Y-41564000D01*
X38029000Y-42117999D01*
X37521000Y-42117999D01*
X37521000Y-41564000D01*
X36295007Y-41564000D01*
X36341318Y-41723401D01*
X36425948Y-41866501D01*
X36425949Y-41866503D01*
X36543496Y-41984050D01*
X36543498Y-41984051D01*
X36613935Y-42025708D01*
X36662388Y-42077601D01*
X36675093Y-42147452D01*
X36648018Y-42213083D01*
X36598015Y-42250571D01*
X36493376Y-42293914D01*
X36493370Y-42293917D01*
X36366371Y-42391368D01*
X36302040Y-42475205D01*
X36244701Y-42517072D01*
X36202078Y-42524500D01*
X36126500Y-42524500D01*
X36058379Y-42504498D01*
X36011886Y-42450842D01*
X36000500Y-42398500D01*
X36000500Y-42047274D01*
X35997026Y-42034308D01*
X35973207Y-41945413D01*
X35973205Y-41945410D01*
X35973205Y-41945408D01*
X35920482Y-41854090D01*
X35920478Y-41854085D01*
X35885690Y-41819297D01*
X35845913Y-41779520D01*
X35031988Y-40965595D01*
X34997962Y-40903283D01*
X35003027Y-40832468D01*
X35045574Y-40775632D01*
X35112094Y-40750821D01*
X35121083Y-40750500D01*
X36058255Y-40750500D01*
X36058260Y-40750500D01*
X36126393Y-40740573D01*
X36180594Y-40714075D01*
X36250577Y-40702127D01*
X36315911Y-40729911D01*
X36355853Y-40788607D01*
X36357720Y-40859579D01*
X36344387Y-40891410D01*
X36341319Y-40896597D01*
X36295007Y-41056000D01*
X39254992Y-41056000D01*
X39208681Y-40896598D01*
X39124051Y-40753498D01*
X39124050Y-40753496D01*
X39006502Y-40635948D01*
X38922013Y-40585982D01*
X38873560Y-40534089D01*
X38860855Y-40464239D01*
X38883609Y-40404309D01*
X38889191Y-40396489D01*
X38889198Y-40396483D01*
X38940573Y-40291393D01*
X38950500Y-40223260D01*
X38950500Y-39856740D01*
X38940573Y-39788607D01*
X38889198Y-39683517D01*
X38889196Y-39683514D01*
X38806485Y-39600803D01*
X38806482Y-39600801D01*
X38701394Y-39549427D01*
X38633261Y-39539500D01*
X38633260Y-39539500D01*
X36916740Y-39539500D01*
X36916738Y-39539500D01*
X36848605Y-39549427D01*
X36743517Y-39600801D01*
X36743514Y-39600803D01*
X36660803Y-39683514D01*
X36660801Y-39683517D01*
X36609427Y-39788605D01*
X36609427Y-39788607D01*
X36601696Y-39841666D01*
X36572083Y-39906191D01*
X36512285Y-39944462D01*
X36477013Y-39949500D01*
X36419027Y-39949500D01*
X36350906Y-39929498D01*
X36316483Y-39896717D01*
X36314196Y-39893514D01*
X36231485Y-39810803D01*
X36231482Y-39810801D01*
X36126394Y-39759427D01*
X36058261Y-39749500D01*
X36058260Y-39749500D01*
X35229661Y-39749500D01*
X35161540Y-39729498D01*
X35115047Y-39675842D01*
X35104943Y-39605568D01*
X35134437Y-39540988D01*
X35140552Y-39534418D01*
X35677960Y-38997011D01*
X35717522Y-38928488D01*
X35717524Y-38928480D01*
X35717608Y-38928279D01*
X35717729Y-38928128D01*
X35721651Y-38921336D01*
X35722710Y-38921947D01*
X35762158Y-38872999D01*
X35829522Y-38850580D01*
X35834016Y-38850500D01*
X36058255Y-38850500D01*
X36058260Y-38850500D01*
X36126393Y-38840573D01*
X36231483Y-38789198D01*
X36314198Y-38706483D01*
X36360304Y-38612170D01*
X36408190Y-38559758D01*
X36476813Y-38541555D01*
X36544384Y-38563341D01*
X36589450Y-38618201D01*
X36599500Y-38667511D01*
X36599500Y-38953261D01*
X36609427Y-39021394D01*
X36660801Y-39126482D01*
X36660803Y-39126485D01*
X36743514Y-39209196D01*
X36743517Y-39209198D01*
X36848607Y-39260573D01*
X36916740Y-39270500D01*
X36916745Y-39270500D01*
X38633255Y-39270500D01*
X38633260Y-39270500D01*
X38701393Y-39260573D01*
X38806483Y-39209198D01*
X38889198Y-39126483D01*
X38889199Y-39126480D01*
X38891483Y-39123283D01*
X38895730Y-39119951D01*
X38896581Y-39119101D01*
X38896683Y-39119203D01*
X38947346Y-39079466D01*
X38994027Y-39070500D01*
X39053339Y-39070500D01*
X39121460Y-39090502D01*
X39142434Y-39107405D01*
X40162595Y-40127566D01*
X40196621Y-40189878D01*
X40199500Y-40216661D01*
X40199500Y-43911531D01*
X40179498Y-43979652D01*
X40150204Y-44011493D01*
X40071720Y-44071715D01*
X39975465Y-44197157D01*
X39975463Y-44197160D01*
X39914955Y-44343239D01*
X39894318Y-44499999D01*
X39894318Y-44500000D01*
X39914955Y-44656760D01*
X39970387Y-44790583D01*
X39975464Y-44802841D01*
X40071718Y-44928282D01*
X40197159Y-45024536D01*
X40343238Y-45085044D01*
X40500000Y-45105682D01*
X40656762Y-45085044D01*
X40802841Y-45024536D01*
X40928282Y-44928282D01*
X41024536Y-44802841D01*
X41085044Y-44656762D01*
X41105682Y-44500000D01*
X41103234Y-44481409D01*
X41085275Y-44344991D01*
X41085044Y-44343238D01*
X41024536Y-44197159D01*
X40928282Y-44071718D01*
X40928280Y-44071716D01*
X40928279Y-44071715D01*
X40849796Y-44011493D01*
X40807929Y-43954156D01*
X40800500Y-43911531D01*
X40800500Y-40466500D01*
X40820502Y-40398379D01*
X40874158Y-40351886D01*
X40926500Y-40340500D01*
X41505973Y-40340500D01*
X41574094Y-40360502D01*
X41608517Y-40393283D01*
X41610803Y-40396485D01*
X41693514Y-40479196D01*
X41693517Y-40479198D01*
X41798607Y-40530573D01*
X41866740Y-40540500D01*
X41866745Y-40540500D01*
X43583255Y-40540500D01*
X43583260Y-40540500D01*
X43651393Y-40530573D01*
X43756483Y-40479198D01*
X43839198Y-40396483D01*
X43890573Y-40291393D01*
X43900500Y-40223260D01*
X43900500Y-39856740D01*
X43890573Y-39788607D01*
X43861677Y-39729498D01*
X43839200Y-39683521D01*
X43839199Y-39683520D01*
X43839198Y-39683517D01*
X43839195Y-39683514D01*
X43833607Y-39675687D01*
X43810302Y-39608624D01*
X43826954Y-39539608D01*
X43872014Y-39494017D01*
X43956499Y-39444053D01*
X43956503Y-39444050D01*
X44074050Y-39326503D01*
X44074051Y-39326501D01*
X44158681Y-39183401D01*
X44205065Y-39023749D01*
X44207187Y-38996787D01*
X44232471Y-38930445D01*
X44289609Y-38888305D01*
X44360459Y-38883744D01*
X44421894Y-38917576D01*
X44443512Y-38939194D01*
X44443515Y-38939196D01*
X44443517Y-38939198D01*
X44443518Y-38939198D01*
X44446711Y-38941478D01*
X44450041Y-38945723D01*
X44450899Y-38946581D01*
X44450795Y-38946684D01*
X44490531Y-38997338D01*
X44499500Y-39044026D01*
X44499500Y-39661531D01*
X44479498Y-39729652D01*
X44450204Y-39761493D01*
X44371720Y-39821715D01*
X44275465Y-39947157D01*
X44275463Y-39947160D01*
X44214955Y-40093239D01*
X44194318Y-40249999D01*
X44194318Y-40250000D01*
X44214955Y-40406760D01*
X44267697Y-40534089D01*
X44275464Y-40552841D01*
X44371718Y-40678282D01*
X44497159Y-40774536D01*
X44497160Y-40774536D01*
X44503711Y-40779563D01*
X44502872Y-40780656D01*
X44545881Y-40825758D01*
X44559321Y-40895471D01*
X44532938Y-40961383D01*
X44475108Y-41002568D01*
X44433891Y-41009500D01*
X43944027Y-41009500D01*
X43875906Y-40989498D01*
X43841483Y-40956717D01*
X43839196Y-40953514D01*
X43756485Y-40870803D01*
X43756482Y-40870801D01*
X43651394Y-40819427D01*
X43583261Y-40809500D01*
X43583260Y-40809500D01*
X41866740Y-40809500D01*
X41866738Y-40809500D01*
X41798605Y-40819427D01*
X41693517Y-40870801D01*
X41693514Y-40870803D01*
X41610803Y-40953514D01*
X41610801Y-40953517D01*
X41559427Y-41058605D01*
X41549500Y-41126738D01*
X41549500Y-41493261D01*
X41559427Y-41561394D01*
X41610801Y-41666482D01*
X41610803Y-41666485D01*
X41693514Y-41749196D01*
X41693517Y-41749198D01*
X41798607Y-41800573D01*
X41866740Y-41810500D01*
X41866745Y-41810500D01*
X43583255Y-41810500D01*
X43583260Y-41810500D01*
X43651393Y-41800573D01*
X43756483Y-41749198D01*
X43839198Y-41666483D01*
X43839199Y-41666480D01*
X43841483Y-41663283D01*
X43845730Y-41659951D01*
X43846581Y-41659101D01*
X43846683Y-41659203D01*
X43897346Y-41619466D01*
X43944027Y-41610500D01*
X46479562Y-41610500D01*
X46555989Y-41590021D01*
X46624511Y-41550460D01*
X46680460Y-41494511D01*
X46940460Y-41234511D01*
X46980022Y-41165988D01*
X47000500Y-41089562D01*
X47000500Y-41010438D01*
X47000500Y-39044026D01*
X47020502Y-38975905D01*
X47053289Y-38941478D01*
X47056477Y-38939200D01*
X47056483Y-38939198D01*
X47139198Y-38856483D01*
X47190573Y-38751393D01*
X47195808Y-38715458D01*
X47225422Y-38650934D01*
X47285220Y-38612663D01*
X47356217Y-38612796D01*
X47415871Y-38651291D01*
X47419333Y-38655481D01*
X47421115Y-38657735D01*
X47542265Y-38778885D01*
X47542274Y-38778892D01*
X47639874Y-38839092D01*
X47687353Y-38891877D01*
X47698756Y-38961952D01*
X47670464Y-39027068D01*
X47662826Y-39035426D01*
X47651472Y-39046780D01*
X47651471Y-39046780D01*
X47610861Y-39126483D01*
X47590281Y-39166874D01*
X47577336Y-39248607D01*
X47574500Y-39266515D01*
X47574500Y-39687982D01*
X47554498Y-39756103D01*
X47537595Y-39777077D01*
X47489540Y-39825131D01*
X47489532Y-39825141D01*
X47446684Y-39899356D01*
X47446683Y-39899359D01*
X47446682Y-39899361D01*
X47433843Y-39947278D01*
X47424500Y-39982148D01*
X47424500Y-45049026D01*
X47404498Y-45117147D01*
X47355703Y-45161293D01*
X47236658Y-45221949D01*
X47236655Y-45221951D01*
X47146949Y-45311657D01*
X47099645Y-45404498D01*
X47089354Y-45424696D01*
X47074500Y-45518481D01*
X47074500Y-45518484D01*
X47074500Y-45981516D01*
X47089353Y-46075302D01*
X47146949Y-46188342D01*
X47236657Y-46278050D01*
X47275299Y-46297738D01*
X47349696Y-46335646D01*
X47443481Y-46350500D01*
X48056518Y-46350499D01*
X48150304Y-46335646D01*
X48263342Y-46278050D01*
X48353050Y-46188342D01*
X48410646Y-46075304D01*
X48425500Y-45981519D01*
X48425499Y-45518482D01*
X48410646Y-45424696D01*
X48373015Y-45350842D01*
X48353050Y-45311657D01*
X48263344Y-45221951D01*
X48263341Y-45221949D01*
X48144297Y-45161293D01*
X48092682Y-45112544D01*
X48075500Y-45049026D01*
X48075500Y-40301500D01*
X48095502Y-40233379D01*
X48149158Y-40186886D01*
X48201500Y-40175500D01*
X48533485Y-40175500D01*
X48533488Y-40175500D01*
X48633126Y-40159719D01*
X48753220Y-40098528D01*
X48848528Y-40003220D01*
X48909719Y-39883126D01*
X48925500Y-39783488D01*
X48925500Y-39266512D01*
X48909719Y-39166874D01*
X48848528Y-39046780D01*
X48837176Y-39035428D01*
X48803150Y-38973116D01*
X48808215Y-38902301D01*
X48850762Y-38845465D01*
X48860125Y-38839092D01*
X48957725Y-38778892D01*
X48957734Y-38778885D01*
X49078885Y-38657734D01*
X49078890Y-38657728D01*
X49168847Y-38511884D01*
X49222742Y-38349241D01*
X49222744Y-38349229D01*
X49232999Y-38248852D01*
X49233000Y-38248852D01*
X49233000Y-38229000D01*
X48122000Y-38229000D01*
X48053879Y-38208998D01*
X48007386Y-38155342D01*
X47996000Y-38103000D01*
X47996000Y-37721000D01*
X48504000Y-37721000D01*
X49233000Y-37721000D01*
X49233000Y-37701147D01*
X49222744Y-37600770D01*
X49222742Y-37600758D01*
X49168847Y-37438115D01*
X49078890Y-37292271D01*
X49078885Y-37292265D01*
X48957734Y-37171114D01*
X48957728Y-37171109D01*
X48811884Y-37081152D01*
X48649241Y-37027257D01*
X48649229Y-37027255D01*
X48548852Y-37017000D01*
X48504000Y-37017000D01*
X48504000Y-37721000D01*
X47996000Y-37721000D01*
X47996000Y-37017000D01*
X47951147Y-37017000D01*
X47850770Y-37027255D01*
X47850758Y-37027257D01*
X47688115Y-37081152D01*
X47542271Y-37171109D01*
X47542265Y-37171114D01*
X47421114Y-37292265D01*
X47421110Y-37292270D01*
X47390345Y-37342147D01*
X47337558Y-37389624D01*
X47267483Y-37401026D01*
X47202368Y-37372732D01*
X47169909Y-37331339D01*
X47139198Y-37268517D01*
X47139196Y-37268515D01*
X47139196Y-37268514D01*
X47056485Y-37185803D01*
X47056482Y-37185801D01*
X46951392Y-37134426D01*
X46947341Y-37133836D01*
X46942931Y-37131811D01*
X46942042Y-37131537D01*
X46942078Y-37131420D01*
X46882817Y-37104218D01*
X46844549Y-37044418D01*
X46844686Y-36973421D01*
X46883185Y-36913769D01*
X46908307Y-36896888D01*
X47003220Y-36848528D01*
X47098528Y-36753220D01*
X47159719Y-36633126D01*
X47175500Y-36533488D01*
X47175500Y-36194200D01*
X47179793Y-36161590D01*
X47188842Y-36127816D01*
X47200500Y-36084309D01*
X47200500Y-34483076D01*
X47220502Y-34414955D01*
X47264352Y-34374495D01*
X47264164Y-34374214D01*
X47265952Y-34373018D01*
X47267110Y-34371951D01*
X47269298Y-34370780D01*
X47269311Y-34370775D01*
X47384042Y-34294114D01*
X47384047Y-34294109D01*
X47390752Y-34287405D01*
X47453064Y-34253379D01*
X47479847Y-34250500D01*
X47558255Y-34250500D01*
X47558260Y-34250500D01*
X47626393Y-34240573D01*
X47731483Y-34189198D01*
X47814198Y-34106483D01*
X47865573Y-34001393D01*
X47875500Y-33933260D01*
X47875500Y-33566740D01*
X47865573Y-33498607D01*
X47814198Y-33393517D01*
X47814196Y-33393514D01*
X47731484Y-33310802D01*
X47708660Y-33299644D01*
X47656246Y-33251755D01*
X47638000Y-33186447D01*
X47638000Y-32662270D01*
X47637999Y-32662266D01*
X47611080Y-32526934D01*
X47558275Y-32399451D01*
X47541007Y-32373607D01*
X47541007Y-32373606D01*
X47491490Y-32299500D01*
X47481614Y-32284719D01*
X45677781Y-30480886D01*
X45563049Y-30404225D01*
X45479218Y-30369501D01*
X45435569Y-30351421D01*
X45435566Y-30351420D01*
X45300235Y-30324500D01*
X45300232Y-30324500D01*
X45300231Y-30324500D01*
X44951783Y-30324500D01*
X44883662Y-30304498D01*
X44837169Y-30250842D01*
X44827065Y-30180568D01*
X44844542Y-30132353D01*
X44918847Y-30011884D01*
X44972742Y-29849241D01*
X44972744Y-29849229D01*
X44982999Y-29748852D01*
X44983000Y-29748852D01*
X44983000Y-29729000D01*
X43017000Y-29729000D01*
X43017000Y-29748852D01*
X43027255Y-29849229D01*
X43027257Y-29849241D01*
X43081152Y-30011884D01*
X43155458Y-30132353D01*
X43174195Y-30200833D01*
X43152936Y-30268571D01*
X43098428Y-30314063D01*
X43048217Y-30324500D01*
X42676031Y-30324500D01*
X42607910Y-30304498D01*
X42580613Y-30278718D01*
X42580540Y-30278792D01*
X42577965Y-30276217D01*
X42574096Y-30272563D01*
X42573530Y-30271785D01*
X42573528Y-30271780D01*
X42478220Y-30176472D01*
X42478219Y-30176471D01*
X42418173Y-30145876D01*
X42358126Y-30115281D01*
X42258488Y-30099500D01*
X41741512Y-30099500D01*
X41641874Y-30115281D01*
X41641872Y-30115281D01*
X41641872Y-30115282D01*
X41521780Y-30176471D01*
X41426471Y-30271780D01*
X41366093Y-30390281D01*
X41365281Y-30391874D01*
X41349500Y-30491512D01*
X41349500Y-30491515D01*
X41349500Y-30664888D01*
X41339909Y-30713106D01*
X41326422Y-30745665D01*
X41326421Y-30745669D01*
X41299500Y-30881004D01*
X41299500Y-31018997D01*
X41302684Y-31035003D01*
X41326420Y-31154328D01*
X41339909Y-31186894D01*
X41349500Y-31235111D01*
X41349500Y-31408486D01*
X41366832Y-31517921D01*
X41363828Y-31518396D01*
X41365392Y-31573209D01*
X41332629Y-31630266D01*
X41200302Y-31762595D01*
X41137990Y-31796620D01*
X41111206Y-31799500D01*
X39691870Y-31799500D01*
X39623749Y-31779498D01*
X39577256Y-31725842D01*
X39567152Y-31655568D01*
X39579603Y-31616297D01*
X39588657Y-31598528D01*
X39634719Y-31508126D01*
X39650500Y-31408488D01*
X39650500Y-31235111D01*
X39660090Y-31186894D01*
X39673580Y-31154328D01*
X39700500Y-31018994D01*
X39700500Y-30881006D01*
X39673580Y-30745672D01*
X39660091Y-30713106D01*
X39650500Y-30664888D01*
X39650500Y-30491515D01*
X39650500Y-30491512D01*
X39634719Y-30391874D01*
X39573528Y-30271780D01*
X39478220Y-30176472D01*
X39478219Y-30176471D01*
X39418173Y-30145876D01*
X39358126Y-30115281D01*
X39258488Y-30099500D01*
X38741512Y-30099500D01*
X38641874Y-30115281D01*
X38560387Y-30156801D01*
X38533703Y-30170397D01*
X38463926Y-30183501D01*
X38398141Y-30156801D01*
X38357235Y-30098773D01*
X38350500Y-30058130D01*
X38350500Y-29201147D01*
X43017000Y-29201147D01*
X43017000Y-29221000D01*
X43746000Y-29221000D01*
X44254000Y-29221000D01*
X44983000Y-29221000D01*
X44983000Y-29201147D01*
X44972744Y-29100770D01*
X44972742Y-29100758D01*
X44918847Y-28938115D01*
X44828890Y-28792271D01*
X44828885Y-28792265D01*
X44707734Y-28671114D01*
X44707728Y-28671109D01*
X44561884Y-28581152D01*
X44399241Y-28527257D01*
X44399229Y-28527255D01*
X44298852Y-28517000D01*
X44254000Y-28517000D01*
X44254000Y-29221000D01*
X43746000Y-29221000D01*
X43746000Y-28517000D01*
X43701147Y-28517000D01*
X43600770Y-28527255D01*
X43600758Y-28527257D01*
X43438115Y-28581152D01*
X43292271Y-28671109D01*
X43292265Y-28671114D01*
X43171114Y-28792265D01*
X43171109Y-28792271D01*
X43081152Y-28938115D01*
X43027257Y-29100758D01*
X43027255Y-29100770D01*
X43017000Y-29201147D01*
X38350500Y-29201147D01*
X38350500Y-27850102D01*
X38370502Y-27781981D01*
X38399797Y-27750139D01*
X38401816Y-27748590D01*
X38428282Y-27728282D01*
X38524536Y-27602841D01*
X38585044Y-27456762D01*
X38605682Y-27300000D01*
X38585044Y-27143238D01*
X38524536Y-26997159D01*
X38428282Y-26871718D01*
X38302841Y-26775464D01*
X38156762Y-26714956D01*
X38156760Y-26714955D01*
X38000000Y-26694318D01*
X37843239Y-26714955D01*
X37697160Y-26775463D01*
X37697157Y-26775465D01*
X37571718Y-26871718D01*
X37475465Y-26997157D01*
X37475463Y-26997160D01*
X37414955Y-27143239D01*
X37394318Y-27299999D01*
X37394318Y-27300000D01*
X37414955Y-27456760D01*
X37475463Y-27602839D01*
X37475465Y-27602842D01*
X37571719Y-27728283D01*
X37600203Y-27750139D01*
X37642071Y-27807476D01*
X37649500Y-27850102D01*
X37649500Y-28435696D01*
X37629498Y-28503817D01*
X37575842Y-28550310D01*
X37505568Y-28560414D01*
X37483867Y-28555300D01*
X37399241Y-28527257D01*
X37399229Y-28527255D01*
X37298852Y-28517000D01*
X37254000Y-28517000D01*
X37254000Y-29603000D01*
X37233998Y-29671121D01*
X37180342Y-29717614D01*
X37128000Y-29729000D01*
X36017000Y-29729000D01*
X36017000Y-29748852D01*
X36027255Y-29849229D01*
X36027257Y-29849241D01*
X36081152Y-30011884D01*
X36171109Y-30157728D01*
X36171114Y-30157734D01*
X36292265Y-30278885D01*
X36292274Y-30278892D01*
X36389874Y-30339092D01*
X36437353Y-30391877D01*
X36448756Y-30461952D01*
X36420464Y-30527068D01*
X36412826Y-30535426D01*
X36401472Y-30546780D01*
X36401471Y-30546780D01*
X36358536Y-30631046D01*
X36340281Y-30666874D01*
X36327801Y-30745672D01*
X36324500Y-30766515D01*
X36324500Y-30817913D01*
X36322079Y-30842495D01*
X36299500Y-30956004D01*
X36299500Y-31093996D01*
X36322079Y-31207504D01*
X36324500Y-31232086D01*
X36324500Y-31283488D01*
X36340281Y-31383126D01*
X36340282Y-31383127D01*
X36401471Y-31503219D01*
X36482657Y-31584405D01*
X36516683Y-31646717D01*
X36511618Y-31717532D01*
X36469071Y-31774368D01*
X36402551Y-31799179D01*
X36393562Y-31799500D01*
X35253191Y-31799500D01*
X35183067Y-31818289D01*
X35138609Y-31830202D01*
X35035890Y-31889507D01*
X35035884Y-31889512D01*
X34830638Y-32094757D01*
X34768326Y-32128782D01*
X34723377Y-32130345D01*
X34683261Y-32124500D01*
X34683260Y-32124500D01*
X34316740Y-32124500D01*
X34316738Y-32124500D01*
X34248605Y-32134427D01*
X34143517Y-32185801D01*
X34143514Y-32185803D01*
X34060803Y-32268514D01*
X34060801Y-32268517D01*
X34009427Y-32373605D01*
X33999500Y-32441738D01*
X33999500Y-32486000D01*
X33979498Y-32554121D01*
X33925842Y-32600614D01*
X33873500Y-32612000D01*
X33628190Y-32612000D01*
X33537825Y-32636213D01*
X33537824Y-32636212D01*
X33513614Y-32642700D01*
X33410889Y-32702008D01*
X33410879Y-32702016D01*
X32389516Y-33723379D01*
X32389508Y-33723389D01*
X32330199Y-33826114D01*
X32330200Y-33826115D01*
X32298511Y-33944377D01*
X32261560Y-34004999D01*
X32197699Y-34036021D01*
X32127204Y-34027591D01*
X32100102Y-34011728D01*
X32052846Y-33975468D01*
X32052842Y-33975465D01*
X32052841Y-33975464D01*
X31977791Y-33944377D01*
X31906760Y-33914955D01*
X31750000Y-33894318D01*
X31593239Y-33914955D01*
X31447160Y-33975463D01*
X31447157Y-33975465D01*
X31321718Y-34071718D01*
X31225465Y-34197157D01*
X31225463Y-34197160D01*
X31164955Y-34343239D01*
X31144318Y-34499999D01*
X31144318Y-34500000D01*
X31164955Y-34656760D01*
X31214653Y-34776740D01*
X31225464Y-34802841D01*
X31321718Y-34928282D01*
X31447159Y-35024536D01*
X31593238Y-35085044D01*
X31593240Y-35085044D01*
X31593242Y-35085045D01*
X31601216Y-35087182D01*
X31600637Y-35089342D01*
X31654862Y-35113323D01*
X31693961Y-35172584D01*
X31699500Y-35209532D01*
X31699500Y-36094046D01*
X31679498Y-36162167D01*
X31625842Y-36208660D01*
X31555568Y-36218764D01*
X31490988Y-36189270D01*
X31484405Y-36183141D01*
X31464850Y-36163586D01*
X31464840Y-36163578D01*
X31317706Y-36074633D01*
X31153552Y-36023481D01*
X31082223Y-36017000D01*
X31004000Y-36017000D01*
X31004000Y-37053000D01*
X30983998Y-37121121D01*
X30930342Y-37167614D01*
X30878000Y-37179000D01*
X29767001Y-37179000D01*
X29767001Y-37182221D01*
X29773481Y-37253553D01*
X29824633Y-37417706D01*
X29913578Y-37564840D01*
X29913586Y-37564850D01*
X30035149Y-37686413D01*
X30035159Y-37686421D01*
X30182294Y-37775366D01*
X30251312Y-37796873D01*
X30310398Y-37836235D01*
X30338823Y-37901293D01*
X30327563Y-37971391D01*
X30280193Y-38024274D01*
X30271033Y-38029433D01*
X30236661Y-38046947D01*
X30236655Y-38046951D01*
X30146949Y-38136657D01*
X30089352Y-38249698D01*
X30086291Y-38259123D01*
X30084667Y-38258595D01*
X30059178Y-38312364D01*
X29998910Y-38349891D01*
X29965141Y-38354500D01*
X29100063Y-38354500D01*
X29031942Y-38334498D01*
X28985449Y-38280842D01*
X28979489Y-38265078D01*
X28975232Y-38251046D01*
X28914089Y-38136657D01*
X28877685Y-38068550D01*
X28746410Y-37908590D01*
X28586450Y-37777315D01*
X28586448Y-37777314D01*
X28586447Y-37777313D01*
X28403954Y-37679768D01*
X28283529Y-37643238D01*
X28205934Y-37619700D01*
X28205933Y-37619699D01*
X28205927Y-37619698D01*
X28000003Y-37599417D01*
X27999997Y-37599417D01*
X27794072Y-37619698D01*
X27596045Y-37679768D01*
X27413552Y-37777313D01*
X27253590Y-37908590D01*
X27122313Y-38068552D01*
X27024768Y-38251045D01*
X26964698Y-38449072D01*
X26944417Y-38654996D01*
X25000000Y-38654996D01*
X25000000Y-33320999D01*
X26663455Y-33320999D01*
X26663456Y-33321000D01*
X27569297Y-33321000D01*
X27534075Y-33382007D01*
X27500000Y-33509174D01*
X27500000Y-33640826D01*
X27534075Y-33767993D01*
X27569297Y-33829000D01*
X26663455Y-33829000D01*
X26711176Y-34017449D01*
X26711179Y-34017456D01*
X26801580Y-34223548D01*
X26924674Y-34411958D01*
X27077097Y-34577534D01*
X27254698Y-34715767D01*
X27254699Y-34715768D01*
X27452628Y-34822882D01*
X27452630Y-34822883D01*
X27641230Y-34887629D01*
X27699165Y-34928666D01*
X27725717Y-34994511D01*
X27712456Y-35064258D01*
X27663591Y-35115763D01*
X27636894Y-35127376D01*
X27596051Y-35139765D01*
X27596046Y-35139767D01*
X27413552Y-35237313D01*
X27253590Y-35368590D01*
X27122313Y-35528552D01*
X27024768Y-35711045D01*
X26964698Y-35909072D01*
X26944417Y-36114996D01*
X26944417Y-36115003D01*
X26964698Y-36320927D01*
X26964699Y-36320933D01*
X26964700Y-36320934D01*
X26992707Y-36413261D01*
X27024768Y-36518954D01*
X27108425Y-36675465D01*
X27122315Y-36701450D01*
X27253590Y-36861410D01*
X27413550Y-36992685D01*
X27596046Y-37090232D01*
X27794066Y-37150300D01*
X27794070Y-37150300D01*
X27794072Y-37150301D01*
X27999997Y-37170583D01*
X28000000Y-37170583D01*
X28000003Y-37170583D01*
X28205927Y-37150301D01*
X28205928Y-37150300D01*
X28205934Y-37150300D01*
X28403954Y-37090232D01*
X28586450Y-36992685D01*
X28746410Y-36861410D01*
X28877685Y-36701450D01*
X28895684Y-36667777D01*
X29767000Y-36667777D01*
X29767000Y-36671000D01*
X30496000Y-36671000D01*
X30496000Y-36016999D01*
X30417778Y-36017000D01*
X30346446Y-36023481D01*
X30182293Y-36074633D01*
X30035159Y-36163578D01*
X30035149Y-36163586D01*
X29913586Y-36285149D01*
X29913578Y-36285159D01*
X29824633Y-36432293D01*
X29773481Y-36596446D01*
X29773481Y-36596447D01*
X29767000Y-36667777D01*
X28895684Y-36667777D01*
X28975232Y-36518954D01*
X29035300Y-36320934D01*
X29041922Y-36253708D01*
X29055583Y-36115003D01*
X29055583Y-36114996D01*
X29035301Y-35909072D01*
X29035300Y-35909070D01*
X29035300Y-35909066D01*
X28975232Y-35711046D01*
X28877685Y-35528550D01*
X28746410Y-35368590D01*
X28586450Y-35237315D01*
X28586448Y-35237314D01*
X28586447Y-35237313D01*
X28403955Y-35139768D01*
X28382042Y-35133121D01*
X28363104Y-35127376D01*
X28303724Y-35088462D01*
X28274808Y-35023620D01*
X28285539Y-34953439D01*
X28332509Y-34900200D01*
X28358769Y-34887629D01*
X28547369Y-34822883D01*
X28547371Y-34822882D01*
X28745300Y-34715768D01*
X28745301Y-34715767D01*
X28922902Y-34577534D01*
X29075325Y-34411958D01*
X29198419Y-34223548D01*
X29288820Y-34017456D01*
X29288823Y-34017449D01*
X29336544Y-33829000D01*
X28430703Y-33829000D01*
X28465925Y-33767993D01*
X28500000Y-33640826D01*
X28500000Y-33509174D01*
X28465925Y-33382007D01*
X28430703Y-33321000D01*
X29336544Y-33321000D01*
X29336544Y-33320999D01*
X29288823Y-33132550D01*
X29288820Y-33132543D01*
X29198419Y-32926451D01*
X29075325Y-32738041D01*
X28922902Y-32572465D01*
X28745301Y-32434232D01*
X28745300Y-32434231D01*
X28547371Y-32327117D01*
X28547368Y-32327116D01*
X28358769Y-32262370D01*
X28300834Y-32221333D01*
X28274282Y-32155488D01*
X28287544Y-32085741D01*
X28336408Y-32034236D01*
X28363105Y-32022623D01*
X28403954Y-32010232D01*
X28586450Y-31912685D01*
X28746410Y-31781410D01*
X28877685Y-31621450D01*
X28975232Y-31438954D01*
X29035300Y-31240934D01*
X29036172Y-31232086D01*
X29055583Y-31035003D01*
X29055583Y-31034996D01*
X29035301Y-30829072D01*
X29035300Y-30829070D01*
X29035300Y-30829066D01*
X28975232Y-30631046D01*
X28877685Y-30448550D01*
X28746410Y-30288590D01*
X28586450Y-30157315D01*
X28586448Y-30157314D01*
X28586447Y-30157313D01*
X28403954Y-30059768D01*
X28398554Y-30058130D01*
X28205934Y-29999700D01*
X28205933Y-29999699D01*
X28205927Y-29999698D01*
X28000003Y-29979417D01*
X27999997Y-29979417D01*
X27794072Y-29999698D01*
X27596045Y-30059768D01*
X27413552Y-30157313D01*
X27253590Y-30288590D01*
X27122313Y-30448552D01*
X27024768Y-30631045D01*
X26964698Y-30829072D01*
X26944417Y-31034996D01*
X26944417Y-31035003D01*
X26964698Y-31240927D01*
X26964699Y-31240933D01*
X26964700Y-31240934D01*
X27007833Y-31383126D01*
X27024768Y-31438954D01*
X27119560Y-31616297D01*
X27122315Y-31621450D01*
X27253590Y-31781410D01*
X27413550Y-31912685D01*
X27596046Y-32010232D01*
X27636893Y-32022622D01*
X27696274Y-32061536D01*
X27725190Y-32126377D01*
X27714461Y-32196558D01*
X27667492Y-32249798D01*
X27641231Y-32262370D01*
X27452628Y-32327118D01*
X27254699Y-32434231D01*
X27254698Y-32434232D01*
X27077097Y-32572465D01*
X26924674Y-32738041D01*
X26801580Y-32926451D01*
X26711179Y-33132543D01*
X26711176Y-33132550D01*
X26663455Y-33320999D01*
X25000000Y-33320999D01*
X25000000Y-28494996D01*
X26944417Y-28494996D01*
X26944417Y-28495003D01*
X26964698Y-28700927D01*
X26964699Y-28700933D01*
X26964700Y-28700934D01*
X27024768Y-28898954D01*
X27122315Y-29081450D01*
X27253590Y-29241410D01*
X27413550Y-29372685D01*
X27596046Y-29470232D01*
X27794066Y-29530300D01*
X27794070Y-29530300D01*
X27794072Y-29530301D01*
X27999997Y-29550583D01*
X28000000Y-29550583D01*
X28000003Y-29550583D01*
X28205927Y-29530301D01*
X28205928Y-29530300D01*
X28205934Y-29530300D01*
X28403954Y-29470232D01*
X28586450Y-29372685D01*
X28746410Y-29241410D01*
X28779453Y-29201147D01*
X36017000Y-29201147D01*
X36017000Y-29221000D01*
X36746000Y-29221000D01*
X36746000Y-28517000D01*
X36701147Y-28517000D01*
X36600770Y-28527255D01*
X36600758Y-28527257D01*
X36438115Y-28581152D01*
X36292271Y-28671109D01*
X36292265Y-28671114D01*
X36171114Y-28792265D01*
X36171109Y-28792271D01*
X36081152Y-28938115D01*
X36027257Y-29100758D01*
X36027255Y-29100770D01*
X36017000Y-29201147D01*
X28779453Y-29201147D01*
X28877685Y-29081450D01*
X28975232Y-28898954D01*
X29035300Y-28700934D01*
X29050136Y-28550310D01*
X29055583Y-28495003D01*
X29055583Y-28494996D01*
X29035301Y-28289072D01*
X29035300Y-28289070D01*
X29035300Y-28289066D01*
X28975232Y-28091046D01*
X28877685Y-27908550D01*
X28746410Y-27748590D01*
X28586450Y-27617315D01*
X28586448Y-27617314D01*
X28586447Y-27617313D01*
X28403954Y-27519768D01*
X28205927Y-27459698D01*
X28000003Y-27439417D01*
X27999997Y-27439417D01*
X27794072Y-27459698D01*
X27596045Y-27519768D01*
X27413552Y-27617313D01*
X27253590Y-27748590D01*
X27122313Y-27908552D01*
X27024768Y-28091045D01*
X26964698Y-28289072D01*
X26944417Y-28494996D01*
X25000000Y-28494996D01*
X25000000Y-25126000D01*
X25020002Y-25057879D01*
X25073658Y-25011386D01*
X25126000Y-25000000D01*
X49874000Y-25000000D01*
X49942121Y-25020002D01*
G37*
%TD.AperFunction*%
%TD*%
M02*
