M48
; DRILL file {KiCad 6.0.2-1.fc35} date Sun 27 Mar 2022 04:35:25 PM EDT
; FORMAT={-:-/ absolute / inch / decimal}
; #@! TF.CreationDate,2022-03-27T16:35:25-04:00
; #@! TF.GenerationSoftware,Kicad,Pcbnew,6.0.2-1.fc35
; #@! TF.FileFunction,Plated,1,2,PTH
FMAT,2
INCH
; #@! TA.AperFunction,Plated,PTH,ViaDrill
T1C0.0157
; #@! TA.AperFunction,Plated,PTH,ComponentDrill
T2C0.0394
%
G90
G05
T1
X4.765Y-3.1
X4.77Y-3.405
X4.775Y-2.73
X4.825Y-3.265
X4.835Y-2.755
X4.915Y-3.22
X4.9409Y-2.76
X4.965Y-3.105
X4.9845Y-2.7176
X5.005Y-2.885
X5.03Y-3.24
X5.07Y-2.97
X5.07Y-3.27
X5.17Y-2.985
X5.21Y-2.755
X5.295Y-3.195
T2
X4.515Y-2.7144
X4.515Y-2.8144
X4.515Y-2.9144
X4.515Y-3.0144
X4.515Y-3.1144
X4.515Y-3.2144
X4.515Y-3.3144
X4.515Y-3.4144
T0
M30
