%TF.GenerationSoftware,KiCad,Pcbnew,8.0.6-1.fc41*%
%TF.CreationDate,2024-11-10T15:40:55-05:00*%
%TF.ProjectId,Dead-Time-Insertion-PCB,44656164-2d54-4696-9d65-2d496e736572,rev?*%
%TF.SameCoordinates,Original*%
%TF.FileFunction,Copper,L2,Bot*%
%TF.FilePolarity,Positive*%
%FSLAX46Y46*%
G04 Gerber Fmt 4.6, Leading zero omitted, Abs format (unit mm)*
G04 Created by KiCad (PCBNEW 8.0.6-1.fc41) date 2024-11-10 15:40:55*
%MOMM*%
%LPD*%
G01*
G04 APERTURE LIST*
%TA.AperFunction,ComponentPad*%
%ADD10R,1.700000X1.700000*%
%TD*%
%TA.AperFunction,ComponentPad*%
%ADD11O,1.700000X1.700000*%
%TD*%
%TA.AperFunction,ViaPad*%
%ADD12C,0.800000*%
%TD*%
%TA.AperFunction,Conductor*%
%ADD13C,0.300000*%
%TD*%
%TA.AperFunction,Conductor*%
%ADD14C,0.200000*%
%TD*%
%TA.AperFunction,Conductor*%
%ADD15C,0.500000*%
%TD*%
%TA.AperFunction,Conductor*%
%ADD16C,0.250000*%
%TD*%
G04 APERTURE END LIST*
D10*
%TO.P,J1,1,Pin_1*%
%TO.N,/DEAD_TIME_CTRL*%
X28000000Y-46275000D03*
D11*
%TO.P,J1,2,Pin_2*%
%TO.N,/INPUT*%
X28000000Y-43735000D03*
%TO.P,J1,3,Pin_3*%
%TO.N,/INVERT_OUTPUT*%
X28000000Y-41195000D03*
%TO.P,J1,4,Pin_4*%
%TO.N,/~{ENABLE}*%
X28000000Y-38655000D03*
%TO.P,J1,5,Pin_5*%
%TO.N,VCC*%
X28000000Y-36115000D03*
%TO.P,J1,6,Pin_6*%
%TO.N,GND*%
X28000000Y-33575000D03*
%TO.P,J1,7,Pin_7*%
%TO.N,/OUT_L*%
X28000000Y-31035000D03*
%TO.P,J1,8,Pin_8*%
%TO.N,/OUT_H*%
X28000000Y-28495000D03*
%TD*%
D12*
%TO.N,VCC*%
X38000000Y-27300000D03*
%TO.N,GND*%
X36000000Y-49000000D03*
X44000000Y-28000000D03*
X48000000Y-49000000D03*
X33000000Y-30750000D03*
X35000000Y-49000000D03*
X26000000Y-43000000D03*
X44000000Y-49000000D03*
X41250000Y-47000000D03*
X49000000Y-45000000D03*
X37000000Y-26000000D03*
X39750000Y-45500000D03*
X49000000Y-48000000D03*
X26000000Y-30000000D03*
X33000000Y-29250000D03*
X46000000Y-49000000D03*
X26000000Y-29000000D03*
X28000000Y-49000000D03*
X34000000Y-49000000D03*
X30750000Y-44250000D03*
X37750000Y-43000000D03*
X49000000Y-30000000D03*
X26000000Y-42000000D03*
X39000000Y-49000000D03*
X44000000Y-26000000D03*
X49000000Y-49000000D03*
X26000000Y-27000000D03*
X40000000Y-26000000D03*
X41250000Y-45500000D03*
X35000000Y-29250000D03*
X26000000Y-34000000D03*
X30250000Y-40000000D03*
X39750000Y-47000000D03*
X37250000Y-47000000D03*
X41000000Y-26000000D03*
X49000000Y-29000000D03*
X47000000Y-49000000D03*
X28000000Y-26000000D03*
X45000000Y-49000000D03*
X43000000Y-28000000D03*
X32000000Y-26000000D03*
X49000000Y-47000000D03*
X44000000Y-47000000D03*
X31000000Y-31250000D03*
X47000000Y-30000000D03*
X30250000Y-30000000D03*
X31000000Y-26000000D03*
X32000000Y-30750000D03*
X47000000Y-31000000D03*
X40500000Y-30862500D03*
X26000000Y-33000000D03*
X34250000Y-46985422D03*
X46000000Y-26000000D03*
X49000000Y-28000000D03*
X32000000Y-29250000D03*
X31000000Y-29250000D03*
X34250000Y-44500000D03*
X26000000Y-32000000D03*
X30250000Y-33000000D03*
X43000000Y-26000000D03*
X40000000Y-49000000D03*
X30000000Y-49000000D03*
X34000000Y-29250000D03*
X26000000Y-41000000D03*
X38000000Y-26000000D03*
X49000000Y-42000000D03*
X26000000Y-48000000D03*
X35450000Y-46985422D03*
X30250000Y-34000000D03*
X27000000Y-26000000D03*
X39250000Y-41250000D03*
X49000000Y-31000000D03*
X46150000Y-43000000D03*
X29000000Y-49000000D03*
X26000000Y-35000000D03*
X29500000Y-30750000D03*
X48000000Y-26000000D03*
X29000000Y-26000000D03*
X33000000Y-49000000D03*
X42000000Y-49000000D03*
X49000000Y-27000000D03*
X37000000Y-49000000D03*
X33000000Y-26000000D03*
X38000000Y-49000000D03*
X29250000Y-42500000D03*
X26000000Y-28000000D03*
X34000000Y-26000000D03*
X26000000Y-26000000D03*
X46000000Y-28000000D03*
X49000000Y-46000000D03*
X27000000Y-49000000D03*
X49000000Y-44000000D03*
X26000000Y-38000000D03*
X49000000Y-35000000D03*
X47000000Y-29000000D03*
X41000000Y-38800000D03*
X30250000Y-32000000D03*
X26000000Y-40000000D03*
X47000000Y-26000000D03*
X42000000Y-28000000D03*
X26000000Y-46000000D03*
X49000000Y-36000000D03*
X42500000Y-47000000D03*
X35000000Y-26000000D03*
X41000000Y-28000000D03*
X26000000Y-49000000D03*
X36000000Y-26000000D03*
X49000000Y-37000000D03*
X49000000Y-33000000D03*
X26000000Y-31000000D03*
X43000000Y-49000000D03*
X39000000Y-29000000D03*
X45000000Y-26000000D03*
X45000000Y-28000000D03*
X26000000Y-36000000D03*
X40000000Y-28000000D03*
X42000000Y-26000000D03*
X30000000Y-26000000D03*
X26000000Y-45000000D03*
X40000000Y-29000000D03*
X26000000Y-44000000D03*
X41000000Y-49000000D03*
X26000000Y-39000000D03*
X26000000Y-37000000D03*
X49000000Y-26000000D03*
X41000000Y-29000000D03*
X39000000Y-26000000D03*
X30000000Y-47000000D03*
X26000000Y-47000000D03*
X47000000Y-28000000D03*
X49000000Y-32000000D03*
X31000000Y-49000000D03*
X38500000Y-47000000D03*
X49000000Y-34000000D03*
X33000000Y-47000000D03*
X35000000Y-30750000D03*
X32000000Y-49000000D03*
X49000000Y-43000000D03*
X49000000Y-38000000D03*
X34000000Y-30750000D03*
X49000000Y-41000000D03*
%TO.N,/INPUT*%
X40500000Y-44500000D03*
%TO.N,/INVERT_OUTPUT*%
X41150000Y-35650000D03*
%TO.N,/~{ENABLE}*%
X31750000Y-34500000D03*
X34504724Y-34504724D03*
%TO.N,/OUT_H*%
X39800000Y-37800000D03*
%TO.N,/OUT_L*%
X41000000Y-37200000D03*
%TO.N,+5V*%
X33975000Y-37550000D03*
X48250000Y-39525000D03*
X36500000Y-37550000D03*
X45750000Y-38800000D03*
%TO.N,/L*%
X44800000Y-40250000D03*
X44850000Y-42860000D03*
%TD*%
D13*
%TO.N,VCC*%
X27200000Y-26800000D02*
X26800000Y-27200000D01*
X38000000Y-27300000D02*
X37500000Y-26800000D01*
X26800000Y-34915000D02*
X28000000Y-36115000D01*
X26800000Y-27200000D02*
X26800000Y-34915000D01*
X37500000Y-26800000D02*
X27200000Y-26800000D01*
D14*
%TO.N,/INPUT*%
X28000000Y-43735000D02*
X32015000Y-47750000D01*
X40000000Y-47750000D02*
X40500000Y-47250000D01*
X32015000Y-47750000D02*
X40000000Y-47750000D01*
X40500000Y-47250000D02*
X40500000Y-44500000D01*
%TO.N,/INVERT_OUTPUT*%
X31250000Y-30000000D02*
X29500000Y-31750000D01*
X29500000Y-31750000D02*
X29500000Y-39695000D01*
X41200000Y-30450000D02*
X40750000Y-30000000D01*
X41200000Y-35600000D02*
X41200000Y-30450000D01*
X40750000Y-30000000D02*
X31250000Y-30000000D01*
X41150000Y-35650000D02*
X41200000Y-35600000D01*
X29500000Y-39695000D02*
X28000000Y-41195000D01*
%TO.N,/~{ENABLE}*%
X34504724Y-34504724D02*
X31754724Y-34504724D01*
X31754724Y-34504724D02*
X31750000Y-34500000D01*
%TO.N,/OUT_H*%
X28495000Y-28000000D02*
X28000000Y-28495000D01*
X48289950Y-37075736D02*
X48289950Y-26800000D01*
X39800000Y-37800000D02*
X39900000Y-37900000D01*
X38700000Y-27589950D02*
X38289950Y-28000000D01*
X48289950Y-26800000D02*
X39450000Y-26800000D01*
X38700000Y-27550000D02*
X38700000Y-27589950D01*
X39450000Y-26800000D02*
X38700000Y-27550000D01*
X47465686Y-37900000D02*
X48289950Y-37075736D01*
X39900000Y-37900000D02*
X47465686Y-37900000D01*
X38289950Y-28000000D02*
X28495000Y-28000000D01*
%TO.N,/OUT_L*%
X41000000Y-37200000D02*
X41300000Y-37500000D01*
X41300000Y-37500000D02*
X47300000Y-37500000D01*
X47300000Y-37500000D02*
X47889950Y-36910050D01*
X47889950Y-36910050D02*
X47889950Y-27200000D01*
X39100000Y-27755636D02*
X38455636Y-28400000D01*
X30635000Y-28400000D02*
X28000000Y-31035000D01*
X47889950Y-27200000D02*
X39615686Y-27200000D01*
X39615686Y-27200000D02*
X39100000Y-27715686D01*
X38455636Y-28400000D02*
X30635000Y-28400000D01*
X39100000Y-27715686D02*
X39100000Y-27755636D01*
%TO.N,+5V*%
X36500000Y-37550000D02*
X33975000Y-37550000D01*
D15*
X46475000Y-39525000D02*
X45750000Y-38800000D01*
X48250000Y-39525000D02*
X46475000Y-39525000D01*
D16*
%TO.N,/L*%
X44800000Y-42810000D02*
X44800000Y-40250000D01*
X44850000Y-42860000D02*
X44800000Y-42810000D01*
%TD*%
%TA.AperFunction,Conductor*%
%TO.N,GND*%
G36*
X49942121Y-25020002D02*
G01*
X49988614Y-25073658D01*
X50000000Y-25126000D01*
X50000000Y-49874000D01*
X49979998Y-49942121D01*
X49926342Y-49988614D01*
X49874000Y-50000000D01*
X25126000Y-50000000D01*
X25057879Y-49979998D01*
X25011386Y-49926342D01*
X25000000Y-49874000D01*
X25000000Y-43734996D01*
X26944417Y-43734996D01*
X26944417Y-43735003D01*
X26964698Y-43940927D01*
X26964699Y-43940933D01*
X26964700Y-43940934D01*
X26975175Y-43975465D01*
X27024768Y-44138954D01*
X27111050Y-44300376D01*
X27122315Y-44321450D01*
X27253590Y-44481410D01*
X27413550Y-44612685D01*
X27596046Y-44710232D01*
X27794066Y-44770300D01*
X27794070Y-44770300D01*
X27794072Y-44770301D01*
X27999997Y-44790583D01*
X28000000Y-44790583D01*
X28000003Y-44790583D01*
X28205927Y-44770301D01*
X28205928Y-44770300D01*
X28205934Y-44770300D01*
X28403954Y-44710232D01*
X28416883Y-44703320D01*
X28486389Y-44688848D01*
X28552686Y-44714251D01*
X28565376Y-44725347D01*
X28849434Y-45009405D01*
X28883460Y-45071717D01*
X28878395Y-45142532D01*
X28835848Y-45199368D01*
X28769328Y-45224179D01*
X28760339Y-45224500D01*
X27130249Y-45224500D01*
X27071771Y-45236132D01*
X27071768Y-45236133D01*
X27005448Y-45280448D01*
X26961133Y-45346768D01*
X26961132Y-45346771D01*
X26949500Y-45405249D01*
X26949500Y-45405252D01*
X26949500Y-47144748D01*
X26961133Y-47203231D01*
X27005448Y-47269552D01*
X27071769Y-47313867D01*
X27130252Y-47325500D01*
X27130253Y-47325500D01*
X28869747Y-47325500D01*
X28869748Y-47325500D01*
X28928231Y-47313867D01*
X28994552Y-47269552D01*
X29038867Y-47203231D01*
X29050500Y-47144748D01*
X29050500Y-45514661D01*
X29070502Y-45446540D01*
X29124158Y-45400047D01*
X29194432Y-45389943D01*
X29259012Y-45419437D01*
X29265595Y-45425566D01*
X31774540Y-47934511D01*
X31830489Y-47990460D01*
X31899011Y-48030021D01*
X31899013Y-48030021D01*
X31899014Y-48030022D01*
X31975434Y-48050499D01*
X31975438Y-48050500D01*
X40039562Y-48050500D01*
X40115989Y-48030021D01*
X40184511Y-47990460D01*
X40240460Y-47934511D01*
X40740460Y-47434511D01*
X40780022Y-47365988D01*
X40800500Y-47289562D01*
X40800500Y-47210438D01*
X40800500Y-45088469D01*
X40820502Y-45020348D01*
X40849796Y-44988507D01*
X40928279Y-44928284D01*
X40928278Y-44928284D01*
X40928282Y-44928282D01*
X41024536Y-44802841D01*
X41085044Y-44656762D01*
X41105682Y-44500000D01*
X41103234Y-44481409D01*
X41085044Y-44343239D01*
X41076018Y-44321447D01*
X41024536Y-44197159D01*
X40928282Y-44071718D01*
X40802841Y-43975464D01*
X40719479Y-43940934D01*
X40656760Y-43914955D01*
X40500000Y-43894318D01*
X40343239Y-43914955D01*
X40197160Y-43975463D01*
X40197157Y-43975465D01*
X40071718Y-44071718D01*
X39975465Y-44197157D01*
X39975463Y-44197160D01*
X39914955Y-44343239D01*
X39894318Y-44499999D01*
X39894318Y-44500000D01*
X39914955Y-44656760D01*
X39975463Y-44802839D01*
X39975465Y-44802842D01*
X40071720Y-44928284D01*
X40150204Y-44988507D01*
X40192071Y-45045844D01*
X40199500Y-45088469D01*
X40199500Y-47073339D01*
X40179498Y-47141460D01*
X40162595Y-47162434D01*
X39912434Y-47412595D01*
X39850122Y-47446621D01*
X39823339Y-47449500D01*
X32191661Y-47449500D01*
X32123540Y-47429498D01*
X32102566Y-47412595D01*
X28990347Y-44300376D01*
X28956321Y-44238064D01*
X28961386Y-44167249D01*
X28968321Y-44151883D01*
X28975232Y-44138954D01*
X29035300Y-43940934D01*
X29039892Y-43894318D01*
X29055583Y-43735003D01*
X29055583Y-43734996D01*
X29035301Y-43529072D01*
X29035300Y-43529070D01*
X29035300Y-43529066D01*
X28975232Y-43331046D01*
X28877685Y-43148550D01*
X28746410Y-42988590D01*
X28586450Y-42857315D01*
X28586448Y-42857314D01*
X28586447Y-42857313D01*
X28403954Y-42759768D01*
X28205934Y-42699700D01*
X28205933Y-42699699D01*
X28205927Y-42699698D01*
X28000003Y-42679417D01*
X27999997Y-42679417D01*
X27794072Y-42699698D01*
X27596045Y-42759768D01*
X27413552Y-42857313D01*
X27253590Y-42988590D01*
X27122313Y-43148552D01*
X27024768Y-43331045D01*
X26964698Y-43529072D01*
X26944417Y-43734996D01*
X25000000Y-43734996D01*
X25000000Y-27153856D01*
X26449500Y-27153856D01*
X26449500Y-34961144D01*
X26466486Y-35024536D01*
X26466485Y-35024536D01*
X26473386Y-35050289D01*
X26519527Y-35130208D01*
X26519529Y-35130210D01*
X26519530Y-35130212D01*
X26757908Y-35368590D01*
X26988960Y-35599641D01*
X27022985Y-35661954D01*
X27020440Y-35725312D01*
X26964698Y-35909072D01*
X26944417Y-36114996D01*
X26944417Y-36115003D01*
X26964698Y-36320927D01*
X27024768Y-36518954D01*
X27108425Y-36675465D01*
X27122315Y-36701450D01*
X27253590Y-36861410D01*
X27413550Y-36992685D01*
X27596046Y-37090232D01*
X27794066Y-37150300D01*
X27794070Y-37150300D01*
X27794072Y-37150301D01*
X27999997Y-37170583D01*
X28000000Y-37170583D01*
X28000003Y-37170583D01*
X28205927Y-37150301D01*
X28205928Y-37150300D01*
X28205934Y-37150300D01*
X28403954Y-37090232D01*
X28586450Y-36992685D01*
X28746410Y-36861410D01*
X28877685Y-36701450D01*
X28962378Y-36543002D01*
X29012131Y-36492354D01*
X29081367Y-36476644D01*
X29148106Y-36500860D01*
X29191158Y-36557314D01*
X29199500Y-36602398D01*
X29199500Y-38167601D01*
X29179498Y-38235722D01*
X29125842Y-38282215D01*
X29055568Y-38292319D01*
X28990988Y-38262825D01*
X28962378Y-38226998D01*
X28948214Y-38200499D01*
X28877685Y-38068550D01*
X28746410Y-37908590D01*
X28586450Y-37777315D01*
X28586448Y-37777314D01*
X28586447Y-37777313D01*
X28403954Y-37679768D01*
X28205934Y-37619700D01*
X28205933Y-37619699D01*
X28205927Y-37619698D01*
X28000003Y-37599417D01*
X27999997Y-37599417D01*
X27794072Y-37619698D01*
X27596045Y-37679768D01*
X27413552Y-37777313D01*
X27253590Y-37908590D01*
X27122313Y-38068552D01*
X27024768Y-38251045D01*
X26964698Y-38449072D01*
X26944417Y-38654996D01*
X26944417Y-38655003D01*
X26964698Y-38860927D01*
X26964699Y-38860933D01*
X26964700Y-38860934D01*
X26988671Y-38939956D01*
X27024768Y-39058954D01*
X27112003Y-39222159D01*
X27122315Y-39241450D01*
X27253590Y-39401410D01*
X27413550Y-39532685D01*
X27596046Y-39630232D01*
X27794066Y-39690300D01*
X27794070Y-39690300D01*
X27794072Y-39690301D01*
X27999997Y-39710583D01*
X28000000Y-39710583D01*
X28000003Y-39710583D01*
X28205927Y-39690301D01*
X28205928Y-39690300D01*
X28205934Y-39690300D01*
X28403954Y-39630232D01*
X28586450Y-39532685D01*
X28746410Y-39401410D01*
X28877685Y-39241450D01*
X28962378Y-39083002D01*
X29012131Y-39032354D01*
X29081367Y-39016644D01*
X29148106Y-39040860D01*
X29191158Y-39097314D01*
X29199500Y-39142398D01*
X29199500Y-39518337D01*
X29179498Y-39586458D01*
X29162595Y-39607432D01*
X28565375Y-40204652D01*
X28503063Y-40238678D01*
X28432248Y-40233613D01*
X28416885Y-40226679D01*
X28403958Y-40219769D01*
X28403955Y-40219768D01*
X28205927Y-40159698D01*
X28000003Y-40139417D01*
X27999997Y-40139417D01*
X27794072Y-40159698D01*
X27596045Y-40219768D01*
X27413552Y-40317313D01*
X27253590Y-40448590D01*
X27122313Y-40608552D01*
X27024768Y-40791045D01*
X26964698Y-40989072D01*
X26944417Y-41194996D01*
X26944417Y-41195003D01*
X26964698Y-41400927D01*
X26964699Y-41400933D01*
X26964700Y-41400934D01*
X27024768Y-41598954D01*
X27122315Y-41781450D01*
X27253590Y-41941410D01*
X27413550Y-42072685D01*
X27596046Y-42170232D01*
X27794066Y-42230300D01*
X27794070Y-42230300D01*
X27794072Y-42230301D01*
X27999997Y-42250583D01*
X28000000Y-42250583D01*
X28000003Y-42250583D01*
X28205927Y-42230301D01*
X28205928Y-42230300D01*
X28205934Y-42230300D01*
X28403954Y-42170232D01*
X28586450Y-42072685D01*
X28746410Y-41941410D01*
X28877685Y-41781450D01*
X28975232Y-41598954D01*
X29035300Y-41400934D01*
X29055583Y-41195000D01*
X29035300Y-40989066D01*
X28975232Y-40791046D01*
X28968318Y-40778112D01*
X28953848Y-40708607D01*
X28979252Y-40642311D01*
X28990339Y-40629630D01*
X29369971Y-40249999D01*
X44194318Y-40249999D01*
X44194318Y-40250000D01*
X44214955Y-40406760D01*
X44214956Y-40406762D01*
X44275464Y-40552841D01*
X44318213Y-40608552D01*
X44371719Y-40678283D01*
X44425203Y-40719322D01*
X44467071Y-40776659D01*
X44474500Y-40819285D01*
X44474500Y-42329080D01*
X44454498Y-42397201D01*
X44425208Y-42429040D01*
X44421718Y-42431717D01*
X44325465Y-42557157D01*
X44325463Y-42557160D01*
X44264955Y-42703239D01*
X44244318Y-42859999D01*
X44244318Y-42860000D01*
X44264955Y-43016760D01*
X44264956Y-43016762D01*
X44325464Y-43162841D01*
X44421718Y-43288282D01*
X44547159Y-43384536D01*
X44693238Y-43445044D01*
X44850000Y-43465682D01*
X45006762Y-43445044D01*
X45152841Y-43384536D01*
X45278282Y-43288282D01*
X45374536Y-43162841D01*
X45435044Y-43016762D01*
X45455682Y-42860000D01*
X45435044Y-42703238D01*
X45374536Y-42557159D01*
X45278282Y-42431718D01*
X45174795Y-42352310D01*
X45132929Y-42294973D01*
X45125500Y-42252348D01*
X45125500Y-40819285D01*
X45145502Y-40751164D01*
X45174797Y-40719322D01*
X45188761Y-40708607D01*
X45228282Y-40678282D01*
X45324536Y-40552841D01*
X45385044Y-40406762D01*
X45405682Y-40250000D01*
X45404191Y-40238678D01*
X45393794Y-40159698D01*
X45385044Y-40093238D01*
X45324536Y-39947159D01*
X45228282Y-39821718D01*
X45102841Y-39725464D01*
X45066916Y-39710583D01*
X44956760Y-39664955D01*
X44800000Y-39644318D01*
X44643239Y-39664955D01*
X44497160Y-39725463D01*
X44497157Y-39725465D01*
X44371718Y-39821718D01*
X44275465Y-39947157D01*
X44275463Y-39947160D01*
X44214955Y-40093239D01*
X44194318Y-40249999D01*
X29369971Y-40249999D01*
X29740460Y-39879511D01*
X29780021Y-39810989D01*
X29800500Y-39734562D01*
X29800500Y-37549999D01*
X33369318Y-37549999D01*
X33369318Y-37550000D01*
X33389955Y-37706760D01*
X33428577Y-37800000D01*
X33450464Y-37852841D01*
X33546718Y-37978282D01*
X33672159Y-38074536D01*
X33818238Y-38135044D01*
X33975000Y-38155682D01*
X34131762Y-38135044D01*
X34277841Y-38074536D01*
X34403282Y-37978282D01*
X34420743Y-37955525D01*
X34463507Y-37899796D01*
X34520844Y-37857929D01*
X34563469Y-37850500D01*
X35911531Y-37850500D01*
X35979652Y-37870502D01*
X36011493Y-37899796D01*
X36071715Y-37978279D01*
X36071716Y-37978280D01*
X36071718Y-37978282D01*
X36197159Y-38074536D01*
X36343238Y-38135044D01*
X36500000Y-38155682D01*
X36656762Y-38135044D01*
X36802841Y-38074536D01*
X36928282Y-37978282D01*
X37024536Y-37852841D01*
X37085044Y-37706762D01*
X37105682Y-37550000D01*
X37085044Y-37393238D01*
X37024536Y-37247159D01*
X36928282Y-37121718D01*
X36802841Y-37025464D01*
X36656762Y-36964956D01*
X36656760Y-36964955D01*
X36500000Y-36944318D01*
X36343239Y-36964955D01*
X36197160Y-37025463D01*
X36197157Y-37025465D01*
X36071715Y-37121720D01*
X36011493Y-37200204D01*
X35954156Y-37242071D01*
X35911531Y-37249500D01*
X34563469Y-37249500D01*
X34495348Y-37229498D01*
X34463507Y-37200204D01*
X34403284Y-37121720D01*
X34403282Y-37121719D01*
X34403282Y-37121718D01*
X34277841Y-37025464D01*
X34131762Y-36964956D01*
X34131760Y-36964955D01*
X33975000Y-36944318D01*
X33818239Y-36964955D01*
X33672160Y-37025463D01*
X33672157Y-37025465D01*
X33546718Y-37121718D01*
X33450465Y-37247157D01*
X33450463Y-37247160D01*
X33389955Y-37393239D01*
X33369318Y-37549999D01*
X29800500Y-37549999D01*
X29800500Y-34499999D01*
X31144318Y-34499999D01*
X31144318Y-34500000D01*
X31164955Y-34656760D01*
X31164956Y-34656762D01*
X31225464Y-34802841D01*
X31321718Y-34928282D01*
X31447159Y-35024536D01*
X31593238Y-35085044D01*
X31750000Y-35105682D01*
X31906762Y-35085044D01*
X32052841Y-35024536D01*
X32178282Y-34928282D01*
X32234881Y-34854519D01*
X32292219Y-34812653D01*
X32334844Y-34805224D01*
X33916255Y-34805224D01*
X33984376Y-34825226D01*
X34016217Y-34854520D01*
X34076439Y-34933003D01*
X34076440Y-34933004D01*
X34076442Y-34933006D01*
X34201883Y-35029260D01*
X34347962Y-35089768D01*
X34504724Y-35110406D01*
X34661486Y-35089768D01*
X34807565Y-35029260D01*
X34933006Y-34933006D01*
X35029260Y-34807565D01*
X35089768Y-34661486D01*
X35110406Y-34504724D01*
X35089768Y-34347962D01*
X35029260Y-34201883D01*
X34933006Y-34076442D01*
X34807565Y-33980188D01*
X34796161Y-33975464D01*
X34661484Y-33919679D01*
X34504724Y-33899042D01*
X34347963Y-33919679D01*
X34201884Y-33980187D01*
X34201881Y-33980189D01*
X34076439Y-34076444D01*
X34016217Y-34154928D01*
X33958880Y-34196795D01*
X33916255Y-34204224D01*
X32342094Y-34204224D01*
X32273973Y-34184222D01*
X32242132Y-34154928D01*
X32178284Y-34071720D01*
X32178282Y-34071719D01*
X32178282Y-34071718D01*
X32052841Y-33975464D01*
X31918165Y-33919679D01*
X31906760Y-33914955D01*
X31750000Y-33894318D01*
X31593239Y-33914955D01*
X31447160Y-33975463D01*
X31447157Y-33975465D01*
X31321718Y-34071718D01*
X31225465Y-34197157D01*
X31225463Y-34197160D01*
X31164955Y-34343239D01*
X31144318Y-34499999D01*
X29800500Y-34499999D01*
X29800500Y-31926661D01*
X29820502Y-31858540D01*
X29837405Y-31837566D01*
X31337566Y-30337405D01*
X31399878Y-30303379D01*
X31426661Y-30300500D01*
X40573339Y-30300500D01*
X40641460Y-30320502D01*
X40662434Y-30337405D01*
X40862595Y-30537566D01*
X40896621Y-30599878D01*
X40899500Y-30626661D01*
X40899500Y-35023165D01*
X40879498Y-35091286D01*
X40850204Y-35123128D01*
X40847160Y-35125463D01*
X40847159Y-35125464D01*
X40794201Y-35166100D01*
X40721718Y-35221718D01*
X40625465Y-35347157D01*
X40625463Y-35347160D01*
X40564955Y-35493239D01*
X40544318Y-35649999D01*
X40544318Y-35650000D01*
X40564955Y-35806760D01*
X40564956Y-35806762D01*
X40625464Y-35952841D01*
X40721718Y-36078282D01*
X40847159Y-36174536D01*
X40993238Y-36235044D01*
X41150000Y-36255682D01*
X41306762Y-36235044D01*
X41452841Y-36174536D01*
X41578282Y-36078282D01*
X41674536Y-35952841D01*
X41735044Y-35806762D01*
X41755682Y-35650000D01*
X41735044Y-35493238D01*
X41674536Y-35347159D01*
X41578282Y-35221718D01*
X41578280Y-35221717D01*
X41578280Y-35221716D01*
X41549794Y-35199857D01*
X41507928Y-35142518D01*
X41500500Y-35099896D01*
X41500500Y-30410438D01*
X41500499Y-30410434D01*
X41480022Y-30334014D01*
X41480021Y-30334013D01*
X41480021Y-30334011D01*
X41440460Y-30265489D01*
X41384511Y-30209540D01*
X40934511Y-29759540D01*
X40865989Y-29719979D01*
X40865988Y-29719978D01*
X40865985Y-29719977D01*
X40789565Y-29699500D01*
X40789562Y-29699500D01*
X31289562Y-29699500D01*
X31210438Y-29699500D01*
X31169484Y-29710473D01*
X31134014Y-29719977D01*
X31134007Y-29719980D01*
X31065492Y-29759537D01*
X31065482Y-29759545D01*
X29584102Y-31240927D01*
X29315489Y-31509540D01*
X29287515Y-31537514D01*
X29259541Y-31565487D01*
X29259539Y-31565490D01*
X29219977Y-31634014D01*
X29199500Y-31710434D01*
X29199500Y-32550020D01*
X29179498Y-32618141D01*
X29125842Y-32664634D01*
X29055568Y-32674738D01*
X28990988Y-32645244D01*
X28980799Y-32635357D01*
X28922906Y-32572468D01*
X28745301Y-32434232D01*
X28745300Y-32434231D01*
X28547371Y-32327117D01*
X28547368Y-32327116D01*
X28358769Y-32262370D01*
X28300834Y-32221333D01*
X28274282Y-32155488D01*
X28287544Y-32085741D01*
X28336408Y-32034236D01*
X28363105Y-32022623D01*
X28403954Y-32010232D01*
X28586450Y-31912685D01*
X28746410Y-31781410D01*
X28877685Y-31621450D01*
X28975232Y-31438954D01*
X29035300Y-31240934D01*
X29055583Y-31035000D01*
X29035300Y-30829066D01*
X28975232Y-30631046D01*
X28968320Y-30618115D01*
X28953847Y-30548612D01*
X28979248Y-30482315D01*
X28990331Y-30469638D01*
X30722568Y-28737402D01*
X30784878Y-28703379D01*
X30811661Y-28700500D01*
X38495198Y-28700500D01*
X38571625Y-28680021D01*
X38640147Y-28640460D01*
X38696096Y-28584511D01*
X39340460Y-27940147D01*
X39369152Y-27890450D01*
X39380021Y-27871625D01*
X39380021Y-27871622D01*
X39384152Y-27864469D01*
X39385426Y-27865204D01*
X39405514Y-27835142D01*
X39703253Y-27537404D01*
X39765565Y-27503379D01*
X39792348Y-27500500D01*
X47463450Y-27500500D01*
X47531571Y-27520502D01*
X47578064Y-27574158D01*
X47589450Y-27626500D01*
X47589450Y-36733389D01*
X47569448Y-36801510D01*
X47552545Y-36822484D01*
X47212434Y-37162595D01*
X47150122Y-37196621D01*
X47123339Y-37199500D01*
X41716115Y-37199500D01*
X41647994Y-37179498D01*
X41601501Y-37125842D01*
X41591193Y-37089946D01*
X41585044Y-37043239D01*
X41577682Y-37025464D01*
X41524536Y-36897159D01*
X41428282Y-36771718D01*
X41302841Y-36675464D01*
X41156762Y-36614956D01*
X41156760Y-36614955D01*
X41000000Y-36594318D01*
X40843239Y-36614955D01*
X40697160Y-36675463D01*
X40697157Y-36675465D01*
X40571718Y-36771718D01*
X40475465Y-36897157D01*
X40475463Y-36897160D01*
X40414955Y-37043239D01*
X40394318Y-37199999D01*
X40394318Y-37200001D01*
X40398418Y-37231147D01*
X40387478Y-37301296D01*
X40340349Y-37354394D01*
X40271995Y-37373583D01*
X40204118Y-37352771D01*
X40196792Y-37347555D01*
X40102842Y-37275465D01*
X40102841Y-37275464D01*
X40066107Y-37260248D01*
X39956760Y-37214955D01*
X39800000Y-37194318D01*
X39643239Y-37214955D01*
X39497160Y-37275463D01*
X39497157Y-37275465D01*
X39371718Y-37371718D01*
X39275465Y-37497157D01*
X39275463Y-37497160D01*
X39214955Y-37643239D01*
X39194318Y-37799999D01*
X39194318Y-37800000D01*
X39214955Y-37956760D01*
X39263740Y-38074536D01*
X39275464Y-38102841D01*
X39371718Y-38228282D01*
X39497159Y-38324536D01*
X39643238Y-38385044D01*
X39800000Y-38405682D01*
X39956762Y-38385044D01*
X40102841Y-38324536D01*
X40228282Y-38228282D01*
X40228283Y-38228281D01*
X40230555Y-38226538D01*
X40296775Y-38200937D01*
X40307259Y-38200500D01*
X45197596Y-38200500D01*
X45265717Y-38220502D01*
X45312210Y-38274158D01*
X45322314Y-38344432D01*
X45297558Y-38403204D01*
X45225468Y-38497152D01*
X45225463Y-38497160D01*
X45164955Y-38643239D01*
X45144318Y-38799999D01*
X45144318Y-38800000D01*
X45164955Y-38956760D01*
X45223175Y-39097314D01*
X45225464Y-39102841D01*
X45321718Y-39228282D01*
X45447159Y-39324536D01*
X45593238Y-39385044D01*
X45671410Y-39395335D01*
X45736336Y-39424057D01*
X45744046Y-39431150D01*
X46198386Y-39885490D01*
X46198387Y-39885491D01*
X46198389Y-39885492D01*
X46301109Y-39944797D01*
X46301110Y-39944797D01*
X46301113Y-39944799D01*
X46309922Y-39947159D01*
X46325314Y-39951283D01*
X46325318Y-39951284D01*
X46325326Y-39951286D01*
X46415691Y-39975500D01*
X47807901Y-39975500D01*
X47876022Y-39995502D01*
X47884604Y-40001537D01*
X47947152Y-40049531D01*
X47947159Y-40049536D01*
X48093238Y-40110044D01*
X48250000Y-40130682D01*
X48406762Y-40110044D01*
X48552841Y-40049536D01*
X48678282Y-39953282D01*
X48774536Y-39827841D01*
X48835044Y-39681762D01*
X48855682Y-39525000D01*
X48835044Y-39368238D01*
X48774536Y-39222159D01*
X48678282Y-39096718D01*
X48552841Y-39000464D01*
X48447336Y-38956762D01*
X48406760Y-38939955D01*
X48250000Y-38919318D01*
X48093239Y-38939955D01*
X47947160Y-39000463D01*
X47947152Y-39000468D01*
X47884604Y-39048463D01*
X47818384Y-39074063D01*
X47807901Y-39074500D01*
X46713794Y-39074500D01*
X46645673Y-39054498D01*
X46624699Y-39037595D01*
X46381162Y-38794058D01*
X46347136Y-38731746D01*
X46345335Y-38721409D01*
X46335044Y-38643239D01*
X46274536Y-38497160D01*
X46274536Y-38497159D01*
X46202442Y-38403204D01*
X46176841Y-38336984D01*
X46191106Y-38267435D01*
X46240707Y-38216639D01*
X46302404Y-38200500D01*
X47505248Y-38200500D01*
X47581675Y-38180021D01*
X47650197Y-38140460D01*
X47706146Y-38084511D01*
X48530410Y-37260247D01*
X48542352Y-37239562D01*
X48569971Y-37191725D01*
X48590450Y-37115298D01*
X48590450Y-26760438D01*
X48576162Y-26707114D01*
X48569972Y-26684014D01*
X48569971Y-26684013D01*
X48569971Y-26684011D01*
X48530410Y-26615489D01*
X48530407Y-26615486D01*
X48530404Y-26615482D01*
X48474467Y-26559545D01*
X48474463Y-26559542D01*
X48474461Y-26559540D01*
X48405939Y-26519979D01*
X48405938Y-26519978D01*
X48405935Y-26519977D01*
X48329515Y-26499500D01*
X48329512Y-26499500D01*
X39410438Y-26499500D01*
X39410434Y-26499500D01*
X39334014Y-26519977D01*
X39265490Y-26559539D01*
X39265486Y-26559542D01*
X38746720Y-27078307D01*
X38684408Y-27112332D01*
X38613592Y-27107267D01*
X38556757Y-27064720D01*
X38541216Y-27037429D01*
X38524536Y-26997159D01*
X38428282Y-26871718D01*
X38302841Y-26775464D01*
X38266556Y-26760434D01*
X38156760Y-26714955D01*
X38000001Y-26694318D01*
X37999997Y-26694318D01*
X37964398Y-26699004D01*
X37894249Y-26688064D01*
X37858861Y-26663179D01*
X37715212Y-26519530D01*
X37715209Y-26519528D01*
X37715208Y-26519527D01*
X37635292Y-26473387D01*
X37624759Y-26470564D01*
X37546144Y-26449500D01*
X27153856Y-26449500D01*
X27094426Y-26465424D01*
X27064711Y-26473386D01*
X27064707Y-26473388D01*
X26984789Y-26519529D01*
X26519532Y-26984785D01*
X26519528Y-26984791D01*
X26512389Y-26997157D01*
X26512388Y-26997159D01*
X26473388Y-27064707D01*
X26473385Y-27064714D01*
X26469743Y-27078307D01*
X26449500Y-27153856D01*
X25000000Y-27153856D01*
X25000000Y-25126000D01*
X25020002Y-25057879D01*
X25073658Y-25011386D01*
X25126000Y-25000000D01*
X49874000Y-25000000D01*
X49942121Y-25020002D01*
G37*
%TD.AperFunction*%
%TD*%
M02*
