%TF.GenerationSoftware,KiCad,Pcbnew,6.0.2-1.fc35*%
%TF.CreationDate,2022-03-27T16:33:53-04:00*%
%TF.ProjectId,DeadTimeInsertionPCB,44656164-5469-46d6-9549-6e7365727469,rev?*%
%TF.SameCoordinates,Original*%
%TF.FileFunction,Copper,L1,Top*%
%TF.FilePolarity,Positive*%
%FSLAX46Y46*%
G04 Gerber Fmt 4.6, Leading zero omitted, Abs format (unit mm)*
G04 Created by KiCad (PCBNEW 6.0.2-1.fc35) date 2022-03-27 16:33:53*
%MOMM*%
%LPD*%
G01*
G04 APERTURE LIST*
G04 Aperture macros list*
%AMRoundRect*
0 Rectangle with rounded corners*
0 $1 Rounding radius*
0 $2 $3 $4 $5 $6 $7 $8 $9 X,Y pos of 4 corners*
0 Add a 4 corners polygon primitive as box body*
4,1,4,$2,$3,$4,$5,$6,$7,$8,$9,$2,$3,0*
0 Add four circle primitives for the rounded corners*
1,1,$1+$1,$2,$3*
1,1,$1+$1,$4,$5*
1,1,$1+$1,$6,$7*
1,1,$1+$1,$8,$9*
0 Add four rect primitives between the rounded corners*
20,1,$1+$1,$2,$3,$4,$5,0*
20,1,$1+$1,$4,$5,$6,$7,0*
20,1,$1+$1,$6,$7,$8,$9,0*
20,1,$1+$1,$8,$9,$2,$3,0*%
G04 Aperture macros list end*
%TA.AperFunction,ComponentPad*%
%ADD10R,1.700000X1.700000*%
%TD*%
%TA.AperFunction,ComponentPad*%
%ADD11O,1.700000X1.700000*%
%TD*%
%TA.AperFunction,SMDPad,CuDef*%
%ADD12RoundRect,0.150000X-0.150000X0.587500X-0.150000X-0.587500X0.150000X-0.587500X0.150000X0.587500X0*%
%TD*%
%TA.AperFunction,SMDPad,CuDef*%
%ADD13RoundRect,0.225000X0.250000X-0.225000X0.250000X0.225000X-0.250000X0.225000X-0.250000X-0.225000X0*%
%TD*%
%TA.AperFunction,SMDPad,CuDef*%
%ADD14RoundRect,0.225000X-0.225000X-0.250000X0.225000X-0.250000X0.225000X0.250000X-0.225000X0.250000X0*%
%TD*%
%TA.AperFunction,SMDPad,CuDef*%
%ADD15RoundRect,0.150000X0.150000X-0.587500X0.150000X0.587500X-0.150000X0.587500X-0.150000X-0.587500X0*%
%TD*%
%TA.AperFunction,SMDPad,CuDef*%
%ADD16RoundRect,0.150000X-0.150000X0.825000X-0.150000X-0.825000X0.150000X-0.825000X0.150000X0.825000X0*%
%TD*%
%TA.AperFunction,ViaPad*%
%ADD17C,0.800000*%
%TD*%
%TA.AperFunction,Conductor*%
%ADD18C,0.500000*%
%TD*%
%TA.AperFunction,Conductor*%
%ADD19C,0.250000*%
%TD*%
G04 APERTURE END LIST*
D10*
%TO.P,J1,1,Pin_1*%
%TO.N,/DEAD_TIME_CTRL*%
X114681000Y-86726000D03*
D11*
%TO.P,J1,2,Pin_2*%
%TO.N,/INPUT*%
X114681000Y-84186000D03*
%TO.P,J1,3,Pin_3*%
%TO.N,/INVERT_OUTPUT*%
X114681000Y-81646000D03*
%TO.P,J1,4,Pin_4*%
%TO.N,/~{ENABLE}*%
X114681000Y-79106000D03*
%TO.P,J1,5,Pin_5*%
%TO.N,VCC*%
X114681000Y-76566000D03*
%TO.P,J1,6,Pin_6*%
%TO.N,GND*%
X114681000Y-74026000D03*
%TO.P,J1,7,Pin_7*%
%TO.N,/OUT_L*%
X114681000Y-71486000D03*
%TO.P,J1,8,Pin_8*%
%TO.N,/OUT_H*%
X114681000Y-68946000D03*
%TD*%
D12*
%TO.P,Q3,1,B*%
%TO.N,/DEAD_TIME_CTRL*%
X133284000Y-69801500D03*
%TO.P,Q3,2,E*%
%TO.N,GND*%
X131384000Y-69801500D03*
%TO.P,Q3,3,C*%
%TO.N,Net-(C7-Pad2)*%
X132334000Y-71676500D03*
%TD*%
D13*
%TO.P,C1,1*%
%TO.N,VCC*%
X129286000Y-81166000D03*
%TO.P,C1,2*%
%TO.N,GND*%
X129286000Y-79616000D03*
%TD*%
D12*
%TO.P,Q1,1,B*%
%TO.N,/DEAD_TIME_CTRL*%
X133284000Y-73992500D03*
%TO.P,Q1,2,E*%
%TO.N,GND*%
X131384000Y-73992500D03*
%TO.P,Q1,3,C*%
%TO.N,/DEAD_TIME_CTRL*%
X132334000Y-75867500D03*
%TD*%
D14*
%TO.P,C5,2*%
%TO.N,Net-(C5-Pad2)*%
X125870000Y-86741000D03*
%TO.P,C5,1*%
%TO.N,VCC*%
X124320000Y-86741000D03*
%TD*%
D13*
%TO.P,C3,1*%
%TO.N,VCC*%
X133096000Y-81166000D03*
%TO.P,C3,2*%
%TO.N,GND*%
X133096000Y-79616000D03*
%TD*%
D14*
%TO.P,C6,1*%
%TO.N,VCC*%
X126606000Y-67945000D03*
%TO.P,C6,2*%
%TO.N,GND*%
X128156000Y-67945000D03*
%TD*%
D15*
%TO.P,Q4,1,B*%
%TO.N,Net-(Q4-Pad1)*%
X123891000Y-84630500D03*
%TO.P,Q4,2,E*%
%TO.N,Net-(C5-Pad2)*%
X125791000Y-84630500D03*
%TO.P,Q4,3,C*%
%TO.N,VCC*%
X124841000Y-82755500D03*
%TD*%
%TO.P,Q7,3,C*%
%TO.N,VCC*%
X123825000Y-69801500D03*
%TO.P,Q7,2,E*%
%TO.N,Net-(C7-Pad2)*%
X124775000Y-71676500D03*
%TO.P,Q7,1,B*%
%TO.N,/~{ENABLE}*%
X122875000Y-71676500D03*
%TD*%
D14*
%TO.P,C4,2*%
%TO.N,GND*%
X121171000Y-82550000D03*
%TO.P,C4,1*%
%TO.N,VCC*%
X119621000Y-82550000D03*
%TD*%
%TO.P,C7,1*%
%TO.N,VCC*%
X122936000Y-67945000D03*
%TO.P,C7,2*%
%TO.N,Net-(C7-Pad2)*%
X124486000Y-67945000D03*
%TD*%
D16*
%TO.P,U1,1*%
%TO.N,Net-(C5-Pad2)*%
X127381000Y-75376000D03*
%TO.P,U1,2*%
%TO.N,/INVERT_OUTPUT*%
X126111000Y-75376000D03*
%TO.P,U1,3*%
%TO.N,/OUT_H*%
X124841000Y-75376000D03*
%TO.P,U1,4*%
%TO.N,/INVERT_OUTPUT*%
X123571000Y-75376000D03*
%TO.P,U1,5*%
%TO.N,Net-(C7-Pad2)*%
X122301000Y-75376000D03*
%TO.P,U1,6*%
%TO.N,/OUT_L*%
X121031000Y-75376000D03*
%TO.P,U1,7,GND*%
%TO.N,GND*%
X119761000Y-75376000D03*
%TO.P,U1,8*%
%TO.N,Net-(U1-Pad8)*%
X119761000Y-80326000D03*
%TO.P,U1,9*%
%TO.N,/INPUT*%
X121031000Y-80326000D03*
%TO.P,U1,10*%
%TO.N,GND*%
X122301000Y-80326000D03*
%TO.P,U1,11*%
%TO.N,Net-(Q4-Pad1)*%
X123571000Y-80326000D03*
%TO.P,U1,12*%
%TO.N,VCC*%
X124841000Y-80326000D03*
%TO.P,U1,13*%
%TO.N,/INPUT*%
X126111000Y-80326000D03*
%TO.P,U1,14,VCC*%
%TO.N,VCC*%
X127381000Y-80326000D03*
%TD*%
D15*
%TO.P,Q6,3,C*%
%TO.N,VCC*%
X121158000Y-84533500D03*
%TO.P,Q6,2,E*%
%TO.N,Net-(C7-Pad2)*%
X122108000Y-86408500D03*
%TO.P,Q6,1,B*%
%TO.N,Net-(U1-Pad8)*%
X120208000Y-86408500D03*
%TD*%
%TO.P,Q5,3,C*%
%TO.N,VCC*%
X127381000Y-69801500D03*
%TO.P,Q5,2,E*%
%TO.N,Net-(C5-Pad2)*%
X128331000Y-71676500D03*
%TO.P,Q5,1,B*%
%TO.N,/~{ENABLE}*%
X126431000Y-71676500D03*
%TD*%
%TO.P,Q2,1,B*%
%TO.N,/DEAD_TIME_CTRL*%
X131003000Y-85138500D03*
%TO.P,Q2,2,E*%
%TO.N,GND*%
X132903000Y-85138500D03*
%TO.P,Q2,3,C*%
%TO.N,Net-(C5-Pad2)*%
X131953000Y-83263500D03*
%TD*%
D13*
%TO.P,C2,1*%
%TO.N,VCC*%
X131191000Y-81166000D03*
%TO.P,C2,2*%
%TO.N,GND*%
X131191000Y-79616000D03*
%TD*%
D17*
%TO.N,VCC*%
X126606000Y-69026500D03*
X124841000Y-81788000D03*
X121158000Y-86487000D03*
X121285000Y-69342000D03*
X134493000Y-81153000D03*
%TO.N,/DEAD_TIME_CTRL*%
X128778000Y-83058000D03*
X131318000Y-75819000D03*
%TO.N,/INPUT*%
X126111000Y-78867000D03*
X121031000Y-78740000D03*
%TO.N,/~{ENABLE}*%
X122809000Y-69977000D03*
X125499500Y-70104000D03*
%TO.N,Net-(C7-Pad2)*%
X132334000Y-69977000D03*
%TO.N,Net-(C5-Pad2)*%
X128778000Y-75438000D03*
X127762000Y-82296000D03*
%TO.N,Net-(C7-Pad2)*%
X122555000Y-82931000D03*
X127127000Y-73279000D03*
%TD*%
D18*
%TO.N,VCC*%
X124841000Y-81788000D02*
X124841000Y-80326000D01*
D19*
%TO.N,/~{ENABLE}*%
X125499500Y-70104000D02*
X125499500Y-70745000D01*
X125499500Y-70745000D02*
X126431000Y-71676500D01*
%TO.N,/DEAD_TIME_CTRL*%
X128778000Y-83058000D02*
X128778000Y-85471000D01*
X128778000Y-85471000D02*
X125857000Y-88392000D01*
X125857000Y-88392000D02*
X118237000Y-88392000D01*
X116571000Y-86726000D02*
X114681000Y-86726000D01*
X118237000Y-88392000D02*
X116571000Y-86726000D01*
D18*
%TO.N,GND*%
X122301000Y-80326000D02*
X122301000Y-81420000D01*
X122301000Y-81420000D02*
X121171000Y-82550000D01*
D19*
%TO.N,Net-(C7-Pad2)*%
X122555000Y-82931000D02*
X122555000Y-85961500D01*
X122555000Y-85961500D02*
X122108000Y-86408500D01*
%TO.N,Net-(U1-Pad8)*%
X119761000Y-80518000D02*
X118237000Y-82042000D01*
X119761000Y-80326000D02*
X119761000Y-80518000D01*
X118237000Y-82042000D02*
X118237000Y-84437500D01*
X118237000Y-84437500D02*
X120208000Y-86408500D01*
D18*
%TO.N,VCC*%
X121158000Y-84533500D02*
X120347500Y-84533500D01*
X120347500Y-84533500D02*
X119621000Y-83807000D01*
X119621000Y-83807000D02*
X119621000Y-82550000D01*
X121158000Y-86487000D02*
X121158000Y-84533500D01*
X121631520Y-87595520D02*
X123465480Y-87595520D01*
X123465480Y-87595520D02*
X124320000Y-86741000D01*
X121158000Y-86487000D02*
X121158000Y-87122000D01*
X121158000Y-87122000D02*
X121631520Y-87595520D01*
D19*
X121714500Y-68912500D02*
X121285000Y-69342000D01*
X122936000Y-68912500D02*
X121714500Y-68912500D01*
D18*
X134480000Y-81166000D02*
X134493000Y-81153000D01*
X133096000Y-81166000D02*
X134480000Y-81166000D01*
D19*
%TO.N,/DEAD_TIME_CTRL*%
X131318000Y-75819000D02*
X131366500Y-75867500D01*
X131366500Y-75867500D02*
X132334000Y-75867500D01*
X128778000Y-83058000D02*
X130429000Y-83058000D01*
X130429000Y-83058000D02*
X131003000Y-83632000D01*
X131003000Y-83632000D02*
X131003000Y-85138500D01*
%TO.N,Net-(C5-Pad2)*%
X127762000Y-82296000D02*
X127856520Y-82201480D01*
X127856520Y-82201480D02*
X130890980Y-82201480D01*
X130890980Y-82201480D02*
X131953000Y-83263500D01*
%TO.N,/INPUT*%
X126111000Y-78867000D02*
X126111000Y-80326000D01*
X121031000Y-78740000D02*
X119700928Y-78740000D01*
X114681000Y-83759928D02*
X114681000Y-84186000D01*
X121031000Y-80326000D02*
X121031000Y-78740000D01*
X119700928Y-78740000D02*
X114681000Y-83759928D01*
%TO.N,Net-(C7-Pad2)*%
X127127000Y-73279000D02*
X124841000Y-73279000D01*
X124841000Y-73279000D02*
X124775000Y-73213000D01*
X124775000Y-73213000D02*
X124775000Y-71676500D01*
X127127000Y-73279000D02*
X123951283Y-73279000D01*
X123951283Y-73279000D02*
X122301000Y-74929283D01*
X122301000Y-74929283D02*
X122301000Y-75376000D01*
%TO.N,Net-(C5-Pad2)*%
X128778000Y-75438000D02*
X128331000Y-74991000D01*
X128778000Y-75438000D02*
X127443000Y-75438000D01*
X128331000Y-74991000D02*
X128331000Y-71676500D01*
X127443000Y-75438000D02*
X127381000Y-75376000D01*
X127762000Y-82296000D02*
X127762000Y-82659500D01*
X127762000Y-82659500D02*
X125791000Y-84630500D01*
%TO.N,/~{ENABLE}*%
X122875000Y-70043000D02*
X122809000Y-69977000D01*
X122875000Y-71676500D02*
X122875000Y-70043000D01*
%TO.N,Net-(C7-Pad2)*%
X132334000Y-71676500D02*
X132334000Y-69977000D01*
%TO.N,VCC*%
X122936000Y-67945000D02*
X124079000Y-66802000D01*
X124079000Y-66802000D02*
X125463000Y-66802000D01*
X125463000Y-66802000D02*
X126606000Y-67945000D01*
X122936000Y-67945000D02*
X122936000Y-68912500D01*
X122936000Y-68912500D02*
X123825000Y-69801500D01*
X126606000Y-67945000D02*
X126606000Y-69026500D01*
X126606000Y-69026500D02*
X127381000Y-69801500D01*
D18*
X124841000Y-82755500D02*
X124841000Y-86220000D01*
X124841000Y-86220000D02*
X124320000Y-86741000D01*
D19*
%TO.N,Net-(C5-Pad2)*%
X125791000Y-84630500D02*
X125791000Y-86662000D01*
X125791000Y-86662000D02*
X125870000Y-86741000D01*
D18*
%TO.N,VCC*%
X127381000Y-80326000D02*
X127381000Y-81153000D01*
X125778500Y-82755500D02*
X124841000Y-82755500D01*
X127381000Y-81153000D02*
X125778500Y-82755500D01*
X129286000Y-81166000D02*
X127381000Y-81166000D01*
X127381000Y-81166000D02*
X127381000Y-80326000D01*
D19*
%TO.N,Net-(C7-Pad2)*%
X124775000Y-71676500D02*
X124775000Y-68234000D01*
X124775000Y-68234000D02*
X124486000Y-67945000D01*
%TO.N,/DEAD_TIME_CTRL*%
X132334000Y-75867500D02*
X133271500Y-75867500D01*
X133271500Y-75867500D02*
X133284000Y-75880000D01*
X133284000Y-69801500D02*
X133284000Y-75880000D01*
%TO.N,/INVERT_OUTPUT*%
X126111000Y-75376000D02*
X126111000Y-75752072D01*
X120385520Y-73014520D02*
X120142000Y-72771000D01*
X126111000Y-75752072D02*
X124647072Y-77216000D01*
X121224928Y-77216000D02*
X120385520Y-76376592D01*
X124647072Y-77216000D02*
X121224928Y-77216000D01*
X120385520Y-76376592D02*
X120385520Y-73014520D01*
X120142000Y-72771000D02*
X114173000Y-72771000D01*
X114173000Y-72771000D02*
X113411000Y-73533000D01*
X113411000Y-73533000D02*
X113411000Y-80376000D01*
X113411000Y-80376000D02*
X114681000Y-81646000D01*
%TO.N,/OUT_H*%
X124841000Y-75376000D02*
X124841000Y-76103036D01*
X117968000Y-68946000D02*
X114681000Y-68946000D01*
X124841000Y-76103036D02*
X124236036Y-76708000D01*
X121655520Y-76376592D02*
X121655520Y-72633520D01*
X124236036Y-76708000D02*
X121986928Y-76708000D01*
X121986928Y-76708000D02*
X121655520Y-76376592D01*
X121655520Y-72633520D02*
X117968000Y-68946000D01*
%TO.N,/INVERT_OUTPUT*%
X126111000Y-75376000D02*
X126111000Y-74295000D01*
X126111000Y-74295000D02*
X125730000Y-73914000D01*
X125730000Y-73914000D02*
X123952000Y-73914000D01*
X123952000Y-73914000D02*
X123571000Y-74295000D01*
X123571000Y-74295000D02*
X123571000Y-75376000D01*
%TO.N,/OUT_L*%
X114681000Y-71486000D02*
X119619000Y-71486000D01*
X119619000Y-71486000D02*
X121031000Y-72898000D01*
X121031000Y-72898000D02*
X121031000Y-75376000D01*
D18*
%TO.N,VCC*%
X124841000Y-82755500D02*
X124841000Y-81788000D01*
D19*
%TO.N,Net-(Q4-Pad1)*%
X123571000Y-80326000D02*
X123571000Y-84310500D01*
X123571000Y-84310500D02*
X123891000Y-84630500D01*
D18*
%TO.N,VCC*%
X129286000Y-81166000D02*
X133096000Y-81166000D01*
D19*
%TO.N,GND*%
X122301000Y-80326000D02*
X122301000Y-81026000D01*
%TD*%
%TA.AperFunction,Conductor*%
%TO.N,GND*%
G36*
X123563605Y-66641002D02*
G01*
X123610098Y-66694658D01*
X123620202Y-66764932D01*
X123590708Y-66829512D01*
X123584579Y-66836095D01*
X123188079Y-67232595D01*
X123125767Y-67266621D01*
X123098984Y-67269500D01*
X122677512Y-67269500D01*
X122617149Y-67279060D01*
X122587665Y-67283730D01*
X122587663Y-67283731D01*
X122577874Y-67285281D01*
X122457780Y-67346472D01*
X122362472Y-67441780D01*
X122301281Y-67561874D01*
X122285500Y-67661512D01*
X122285500Y-68228488D01*
X122301281Y-68328126D01*
X122305782Y-68336959D01*
X122305783Y-68336962D01*
X122339837Y-68403798D01*
X122352941Y-68473574D01*
X122326241Y-68539359D01*
X122268213Y-68580265D01*
X122227570Y-68587000D01*
X121734210Y-68587000D01*
X121723228Y-68586520D01*
X121696680Y-68584197D01*
X121696678Y-68584197D01*
X121685693Y-68583236D01*
X121649285Y-68592992D01*
X121638558Y-68595370D01*
X121635199Y-68595962D01*
X121601455Y-68601912D01*
X121591910Y-68607423D01*
X121588634Y-68608615D01*
X121585466Y-68610092D01*
X121574816Y-68612946D01*
X121565785Y-68619270D01*
X121543956Y-68634555D01*
X121534685Y-68640461D01*
X121517261Y-68650521D01*
X121502045Y-68659306D01*
X121494959Y-68667751D01*
X121477815Y-68688182D01*
X121470389Y-68696285D01*
X121457383Y-68709291D01*
X121395071Y-68743317D01*
X121351843Y-68745118D01*
X121285000Y-68736318D01*
X121128238Y-68756956D01*
X120982159Y-68817464D01*
X120856718Y-68913718D01*
X120760464Y-69039159D01*
X120699956Y-69185238D01*
X120679318Y-69342000D01*
X120699956Y-69498762D01*
X120760464Y-69644841D01*
X120856718Y-69770282D01*
X120982159Y-69866536D01*
X121128238Y-69927044D01*
X121136426Y-69928122D01*
X121206619Y-69937363D01*
X121285000Y-69947682D01*
X121293188Y-69946604D01*
X121433574Y-69928122D01*
X121441762Y-69927044D01*
X121587841Y-69866536D01*
X121713282Y-69770282D01*
X121809536Y-69644841D01*
X121870044Y-69498762D01*
X121884247Y-69390878D01*
X121889951Y-69347554D01*
X121918673Y-69282626D01*
X121977939Y-69243535D01*
X122014873Y-69238000D01*
X122414469Y-69238000D01*
X122482590Y-69258002D01*
X122529083Y-69311658D01*
X122539187Y-69381932D01*
X122509693Y-69446512D01*
X122491173Y-69463963D01*
X122419505Y-69518956D01*
X122380718Y-69548718D01*
X122375695Y-69555264D01*
X122359551Y-69576304D01*
X122284464Y-69674159D01*
X122223956Y-69820238D01*
X122203318Y-69977000D01*
X122223956Y-70133762D01*
X122284464Y-70279841D01*
X122380718Y-70405282D01*
X122387264Y-70410305D01*
X122387268Y-70410309D01*
X122500204Y-70496968D01*
X122542071Y-70554306D01*
X122549500Y-70596930D01*
X122549500Y-70716532D01*
X122529498Y-70784653D01*
X122512675Y-70805548D01*
X122435707Y-70882650D01*
X122384464Y-70987482D01*
X122381512Y-71007717D01*
X122376889Y-71039409D01*
X122374500Y-71055782D01*
X122374500Y-72297218D01*
X122375170Y-72301768D01*
X122375170Y-72301771D01*
X122383216Y-72356426D01*
X122384642Y-72366112D01*
X122396080Y-72389409D01*
X122430941Y-72460412D01*
X122436068Y-72470855D01*
X122518650Y-72553293D01*
X122528006Y-72557866D01*
X122528007Y-72557867D01*
X122549404Y-72568326D01*
X122623482Y-72604536D01*
X122653973Y-72608984D01*
X122687256Y-72613840D01*
X122687260Y-72613840D01*
X122691782Y-72614500D01*
X123058218Y-72614500D01*
X123062768Y-72613830D01*
X123062771Y-72613830D01*
X123117426Y-72605784D01*
X123117427Y-72605784D01*
X123127112Y-72604358D01*
X123177008Y-72579860D01*
X123222507Y-72557522D01*
X123222509Y-72557521D01*
X123231855Y-72552932D01*
X123299863Y-72484805D01*
X123306935Y-72477721D01*
X123306935Y-72477720D01*
X123314293Y-72470350D01*
X123322816Y-72452915D01*
X123361240Y-72374306D01*
X123365536Y-72365518D01*
X123375500Y-72297218D01*
X123375500Y-71055782D01*
X123367273Y-70999893D01*
X123366784Y-70996574D01*
X123366784Y-70996573D01*
X123365358Y-70986888D01*
X123323606Y-70901849D01*
X123318522Y-70891493D01*
X123318521Y-70891491D01*
X123313932Y-70882145D01*
X123263393Y-70831694D01*
X123237482Y-70805828D01*
X123203403Y-70743545D01*
X123200500Y-70716655D01*
X123200500Y-70714427D01*
X123220502Y-70646306D01*
X123274158Y-70599813D01*
X123344432Y-70589709D01*
X123409012Y-70619203D01*
X123415517Y-70625254D01*
X123461276Y-70670933D01*
X123461279Y-70670935D01*
X123468650Y-70678293D01*
X123573482Y-70729536D01*
X123603973Y-70733984D01*
X123637256Y-70738840D01*
X123637260Y-70738840D01*
X123641782Y-70739500D01*
X124008218Y-70739500D01*
X124012768Y-70738830D01*
X124012771Y-70738830D01*
X124067426Y-70730784D01*
X124067427Y-70730784D01*
X124077112Y-70729358D01*
X124127008Y-70704860D01*
X124172507Y-70682522D01*
X124172509Y-70682521D01*
X124181855Y-70677932D01*
X124189212Y-70670562D01*
X124189215Y-70670560D01*
X124234327Y-70625369D01*
X124296609Y-70591289D01*
X124367429Y-70596292D01*
X124424302Y-70638789D01*
X124449171Y-70705287D01*
X124449500Y-70714386D01*
X124449500Y-70716532D01*
X124429498Y-70784653D01*
X124412675Y-70805548D01*
X124335707Y-70882650D01*
X124284464Y-70987482D01*
X124281512Y-71007717D01*
X124276889Y-71039409D01*
X124274500Y-71055782D01*
X124274500Y-72297218D01*
X124275170Y-72301768D01*
X124275170Y-72301771D01*
X124283216Y-72356426D01*
X124284642Y-72366112D01*
X124296080Y-72389409D01*
X124330941Y-72460412D01*
X124336068Y-72470855D01*
X124343438Y-72478212D01*
X124412518Y-72547172D01*
X124446597Y-72609455D01*
X124449500Y-72636345D01*
X124449500Y-72827500D01*
X124429498Y-72895621D01*
X124375842Y-72942114D01*
X124323500Y-72953500D01*
X123970993Y-72953500D01*
X123960011Y-72953020D01*
X123933463Y-72950697D01*
X123933461Y-72950697D01*
X123922476Y-72949736D01*
X123886068Y-72959492D01*
X123875341Y-72961870D01*
X123871982Y-72962462D01*
X123838238Y-72968412D01*
X123828693Y-72973923D01*
X123825417Y-72975115D01*
X123822249Y-72976592D01*
X123811599Y-72979446D01*
X123802568Y-72985770D01*
X123780739Y-73001055D01*
X123771468Y-73006961D01*
X123748377Y-73020293D01*
X123738828Y-73025806D01*
X123731742Y-73034251D01*
X123714598Y-73054682D01*
X123707172Y-73062785D01*
X122603318Y-74166639D01*
X122541006Y-74200665D01*
X122496035Y-74202224D01*
X122484218Y-74200500D01*
X122117782Y-74200500D01*
X122115609Y-74200820D01*
X122046822Y-74185977D01*
X121996535Y-74135860D01*
X121981020Y-74075288D01*
X121981020Y-72653230D01*
X121981500Y-72642248D01*
X121983823Y-72615700D01*
X121983823Y-72615698D01*
X121984784Y-72604713D01*
X121975028Y-72568305D01*
X121972650Y-72557578D01*
X121970815Y-72547172D01*
X121966108Y-72520475D01*
X121960597Y-72510930D01*
X121959405Y-72507654D01*
X121957928Y-72504486D01*
X121955074Y-72493836D01*
X121933465Y-72462976D01*
X121927559Y-72453705D01*
X121914227Y-72430614D01*
X121908714Y-72421065D01*
X121879837Y-72396835D01*
X121871735Y-72389409D01*
X118212111Y-68729785D01*
X118204684Y-68721681D01*
X118199241Y-68715195D01*
X118180455Y-68692806D01*
X118163803Y-68683192D01*
X118147815Y-68673961D01*
X118138544Y-68668055D01*
X118126049Y-68659306D01*
X118107684Y-68646446D01*
X118097034Y-68643592D01*
X118093866Y-68642115D01*
X118090590Y-68640923D01*
X118081045Y-68635412D01*
X118047301Y-68629462D01*
X118043942Y-68628870D01*
X118033215Y-68626492D01*
X117996807Y-68616736D01*
X117985822Y-68617697D01*
X117985820Y-68617697D01*
X117959272Y-68620020D01*
X117948290Y-68620500D01*
X115772269Y-68620500D01*
X115704148Y-68600498D01*
X115657008Y-68543991D01*
X115656935Y-68543749D01*
X115560218Y-68361849D01*
X115466470Y-68246903D01*
X115433906Y-68206975D01*
X115433903Y-68206972D01*
X115430011Y-68202200D01*
X115412786Y-68187950D01*
X115276025Y-68074811D01*
X115276021Y-68074809D01*
X115271275Y-68070882D01*
X115090055Y-67972897D01*
X114893254Y-67911977D01*
X114887129Y-67911333D01*
X114887128Y-67911333D01*
X114694498Y-67891087D01*
X114694496Y-67891087D01*
X114688369Y-67890443D01*
X114601529Y-67898346D01*
X114489342Y-67908555D01*
X114489339Y-67908556D01*
X114483203Y-67909114D01*
X114285572Y-67967280D01*
X114103002Y-68062726D01*
X114098201Y-68066586D01*
X114098198Y-68066588D01*
X113983144Y-68159094D01*
X113942447Y-68191815D01*
X113810024Y-68349630D01*
X113807056Y-68355028D01*
X113807053Y-68355033D01*
X113741885Y-68473574D01*
X113710776Y-68530162D01*
X113648484Y-68726532D01*
X113647798Y-68732649D01*
X113647797Y-68732653D01*
X113627320Y-68915212D01*
X113625520Y-68931262D01*
X113626036Y-68937406D01*
X113641551Y-69122162D01*
X113642759Y-69136553D01*
X113644458Y-69142478D01*
X113692970Y-69311658D01*
X113699544Y-69334586D01*
X113702359Y-69340063D01*
X113702360Y-69340066D01*
X113784244Y-69499396D01*
X113793712Y-69517818D01*
X113921677Y-69679270D01*
X113926370Y-69683264D01*
X113926371Y-69683265D01*
X114073862Y-69808789D01*
X114078564Y-69812791D01*
X114083942Y-69815797D01*
X114083944Y-69815798D01*
X114106539Y-69828426D01*
X114258398Y-69913297D01*
X114339378Y-69939609D01*
X114448471Y-69975056D01*
X114448475Y-69975057D01*
X114454329Y-69976959D01*
X114658894Y-70001351D01*
X114665029Y-70000879D01*
X114665031Y-70000879D01*
X114721039Y-69996569D01*
X114864300Y-69985546D01*
X114870230Y-69983890D01*
X114870232Y-69983890D01*
X115003775Y-69946604D01*
X115062725Y-69930145D01*
X115068214Y-69927372D01*
X115068220Y-69927370D01*
X115241116Y-69840033D01*
X115246610Y-69837258D01*
X115278160Y-69812609D01*
X115343799Y-69761326D01*
X115408951Y-69710424D01*
X115445909Y-69667608D01*
X115539540Y-69559134D01*
X115539540Y-69559133D01*
X115543564Y-69554472D01*
X115549159Y-69544624D01*
X115603277Y-69449358D01*
X115645323Y-69375344D01*
X115651184Y-69357726D01*
X115691666Y-69299403D01*
X115757254Y-69272224D01*
X115770741Y-69271500D01*
X117780984Y-69271500D01*
X117849105Y-69291502D01*
X117870079Y-69308405D01*
X119507079Y-70945405D01*
X119541105Y-71007717D01*
X119536040Y-71078532D01*
X119493493Y-71135368D01*
X119426973Y-71160179D01*
X119417984Y-71160500D01*
X115772269Y-71160500D01*
X115704148Y-71140498D01*
X115657008Y-71083991D01*
X115656935Y-71083749D01*
X115560218Y-70901849D01*
X115447998Y-70764254D01*
X115433906Y-70746975D01*
X115433903Y-70746972D01*
X115430011Y-70742200D01*
X115416214Y-70730786D01*
X115276025Y-70614811D01*
X115276021Y-70614809D01*
X115271275Y-70610882D01*
X115090055Y-70512897D01*
X114893254Y-70451977D01*
X114887129Y-70451333D01*
X114887128Y-70451333D01*
X114694498Y-70431087D01*
X114694496Y-70431087D01*
X114688369Y-70430443D01*
X114601529Y-70438346D01*
X114489342Y-70448555D01*
X114489339Y-70448556D01*
X114483203Y-70449114D01*
X114285572Y-70507280D01*
X114103002Y-70602726D01*
X114098201Y-70606586D01*
X114098198Y-70606588D01*
X113990259Y-70693373D01*
X113942447Y-70731815D01*
X113810024Y-70889630D01*
X113807056Y-70895028D01*
X113807053Y-70895033D01*
X113721184Y-71051229D01*
X113710776Y-71070162D01*
X113648484Y-71266532D01*
X113647798Y-71272649D01*
X113647797Y-71272653D01*
X113626207Y-71465137D01*
X113625520Y-71471262D01*
X113626036Y-71477406D01*
X113641515Y-71661733D01*
X113642759Y-71676553D01*
X113644458Y-71682478D01*
X113692037Y-71848405D01*
X113699544Y-71874586D01*
X113702359Y-71880063D01*
X113702360Y-71880066D01*
X113723248Y-71920709D01*
X113793712Y-72057818D01*
X113921677Y-72219270D01*
X114010363Y-72294748D01*
X114049275Y-72354128D01*
X114049906Y-72425122D01*
X114012055Y-72485187D01*
X113991698Y-72499819D01*
X113970096Y-72512291D01*
X113970093Y-72512294D01*
X113960545Y-72517806D01*
X113953459Y-72526251D01*
X113936315Y-72546682D01*
X113928889Y-72554785D01*
X113194785Y-73288889D01*
X113186681Y-73296316D01*
X113157806Y-73320545D01*
X113152293Y-73330094D01*
X113138961Y-73353185D01*
X113133055Y-73362456D01*
X113111446Y-73393316D01*
X113108592Y-73403966D01*
X113107115Y-73407134D01*
X113105923Y-73410410D01*
X113100412Y-73419955D01*
X113096280Y-73443391D01*
X113093870Y-73457058D01*
X113091492Y-73467785D01*
X113081736Y-73504193D01*
X113082697Y-73515178D01*
X113082697Y-73515180D01*
X113085020Y-73541728D01*
X113085500Y-73552710D01*
X113085500Y-80356290D01*
X113085020Y-80367272D01*
X113081736Y-80404807D01*
X113084590Y-80415456D01*
X113091491Y-80441210D01*
X113093870Y-80451942D01*
X113100412Y-80489045D01*
X113105923Y-80498590D01*
X113107115Y-80501866D01*
X113108592Y-80505034D01*
X113111446Y-80515684D01*
X113123472Y-80532858D01*
X113133055Y-80546544D01*
X113138961Y-80555815D01*
X113152295Y-80578910D01*
X113157806Y-80588455D01*
X113166248Y-80595539D01*
X113186681Y-80612685D01*
X113194783Y-80620110D01*
X113679257Y-81104584D01*
X113713283Y-81166896D01*
X113710264Y-81231776D01*
X113648484Y-81426532D01*
X113647798Y-81432649D01*
X113647797Y-81432653D01*
X113641052Y-81492789D01*
X113625520Y-81631262D01*
X113626036Y-81637406D01*
X113642171Y-81829545D01*
X113642759Y-81836553D01*
X113644458Y-81842478D01*
X113696335Y-82023394D01*
X113699544Y-82034586D01*
X113702359Y-82040063D01*
X113702360Y-82040066D01*
X113766094Y-82164079D01*
X113793712Y-82217818D01*
X113921677Y-82379270D01*
X113926370Y-82383264D01*
X113926371Y-82383265D01*
X114032119Y-82473263D01*
X114078564Y-82512791D01*
X114258398Y-82613297D01*
X114308937Y-82629718D01*
X114448471Y-82675056D01*
X114448475Y-82675057D01*
X114454329Y-82676959D01*
X114658894Y-82701351D01*
X114665029Y-82700879D01*
X114665031Y-82700879D01*
X114721039Y-82696569D01*
X114864300Y-82685546D01*
X114901871Y-82675056D01*
X114999322Y-82647848D01*
X115070312Y-82648795D01*
X115129521Y-82687971D01*
X115158150Y-82752940D01*
X115147111Y-82823073D01*
X115122300Y-82858302D01*
X114877269Y-83103333D01*
X114814957Y-83137359D01*
X114775004Y-83139548D01*
X114694498Y-83131087D01*
X114694496Y-83131087D01*
X114688369Y-83130443D01*
X114613834Y-83137226D01*
X114489342Y-83148555D01*
X114489339Y-83148556D01*
X114483203Y-83149114D01*
X114285572Y-83207280D01*
X114280107Y-83210137D01*
X114254879Y-83223326D01*
X114103002Y-83302726D01*
X114098201Y-83306586D01*
X114098198Y-83306588D01*
X113987843Y-83395316D01*
X113942447Y-83431815D01*
X113810024Y-83589630D01*
X113807056Y-83595028D01*
X113807053Y-83595033D01*
X113727828Y-83739145D01*
X113710776Y-83770162D01*
X113648484Y-83966532D01*
X113647798Y-83972649D01*
X113647797Y-83972653D01*
X113626207Y-84165137D01*
X113625520Y-84171262D01*
X113627341Y-84192948D01*
X113640823Y-84353493D01*
X113642759Y-84376553D01*
X113644458Y-84382478D01*
X113696327Y-84563366D01*
X113699544Y-84574586D01*
X113702359Y-84580063D01*
X113702360Y-84580066D01*
X113752545Y-84677716D01*
X113793712Y-84757818D01*
X113921677Y-84919270D01*
X113926370Y-84923264D01*
X113926371Y-84923265D01*
X113997849Y-84984097D01*
X114078564Y-85052791D01*
X114258398Y-85153297D01*
X114353238Y-85184113D01*
X114448471Y-85215056D01*
X114448475Y-85215057D01*
X114454329Y-85216959D01*
X114658894Y-85241351D01*
X114665029Y-85240879D01*
X114665031Y-85240879D01*
X114721039Y-85236569D01*
X114864300Y-85225546D01*
X114870230Y-85223890D01*
X114870232Y-85223890D01*
X115056797Y-85171800D01*
X115056796Y-85171800D01*
X115062725Y-85170145D01*
X115068214Y-85167372D01*
X115068220Y-85167370D01*
X115241116Y-85080033D01*
X115246610Y-85077258D01*
X115408951Y-84950424D01*
X115413226Y-84945472D01*
X115539540Y-84799134D01*
X115539540Y-84799133D01*
X115543564Y-84794472D01*
X115564387Y-84757818D01*
X115609891Y-84677716D01*
X115645323Y-84615344D01*
X115710351Y-84419863D01*
X115736171Y-84215474D01*
X115736583Y-84186000D01*
X115716480Y-83980970D01*
X115656935Y-83783749D01*
X115560218Y-83601849D01*
X115550253Y-83589630D01*
X115530286Y-83565149D01*
X115515014Y-83546423D01*
X115487460Y-83480993D01*
X115499655Y-83411051D01*
X115523562Y-83377693D01*
X119045405Y-79855850D01*
X119107717Y-79821824D01*
X119178532Y-79826889D01*
X119235368Y-79869436D01*
X119260179Y-79935956D01*
X119260500Y-79944945D01*
X119260500Y-80505983D01*
X119240498Y-80574104D01*
X119223595Y-80595078D01*
X118020784Y-81797890D01*
X118012681Y-81805316D01*
X117983806Y-81829545D01*
X117978293Y-81839094D01*
X117964961Y-81862185D01*
X117959055Y-81871456D01*
X117937446Y-81902316D01*
X117934592Y-81912966D01*
X117933115Y-81916134D01*
X117931923Y-81919410D01*
X117926412Y-81928955D01*
X117923004Y-81948286D01*
X117919870Y-81966058D01*
X117917492Y-81976785D01*
X117907736Y-82013193D01*
X117908697Y-82024178D01*
X117908697Y-82024180D01*
X117911020Y-82050728D01*
X117911500Y-82061710D01*
X117911500Y-84417790D01*
X117911020Y-84428772D01*
X117909147Y-84450184D01*
X117907736Y-84466307D01*
X117917491Y-84502710D01*
X117919870Y-84513442D01*
X117926412Y-84550545D01*
X117931923Y-84560090D01*
X117933115Y-84563366D01*
X117934592Y-84566534D01*
X117937446Y-84577184D01*
X117959055Y-84608044D01*
X117964961Y-84617315D01*
X117978293Y-84640406D01*
X117983806Y-84649955D01*
X117992251Y-84657041D01*
X118012682Y-84674185D01*
X118020785Y-84681611D01*
X119670595Y-86331421D01*
X119704621Y-86393733D01*
X119707500Y-86420516D01*
X119707500Y-87029218D01*
X119708170Y-87033768D01*
X119708170Y-87033771D01*
X119712456Y-87062886D01*
X119717642Y-87098112D01*
X119769068Y-87202855D01*
X119776438Y-87210212D01*
X119838782Y-87272447D01*
X119851650Y-87285293D01*
X119956482Y-87336536D01*
X119986973Y-87340984D01*
X120020256Y-87345840D01*
X120020260Y-87345840D01*
X120024782Y-87346500D01*
X120391218Y-87346500D01*
X120395768Y-87345830D01*
X120395771Y-87345830D01*
X120450426Y-87337784D01*
X120450427Y-87337784D01*
X120460112Y-87336358D01*
X120554804Y-87289867D01*
X120555507Y-87289522D01*
X120555509Y-87289521D01*
X120564855Y-87284932D01*
X120570868Y-87278909D01*
X120636854Y-87255883D01*
X120705892Y-87272447D01*
X120756751Y-87327183D01*
X120777114Y-87369590D01*
X120777116Y-87369593D01*
X120781191Y-87378079D01*
X120786077Y-87383365D01*
X120786110Y-87383413D01*
X120789421Y-87389788D01*
X120793725Y-87394828D01*
X120830952Y-87432055D01*
X120834381Y-87435620D01*
X120873146Y-87477556D01*
X120879505Y-87481249D01*
X120885663Y-87486766D01*
X121250302Y-87851405D01*
X121284328Y-87913717D01*
X121279263Y-87984532D01*
X121236716Y-88041368D01*
X121170196Y-88066179D01*
X121161207Y-88066500D01*
X118424016Y-88066500D01*
X118355895Y-88046498D01*
X118334921Y-88029595D01*
X116815111Y-86509785D01*
X116807684Y-86501681D01*
X116790541Y-86481251D01*
X116790542Y-86481251D01*
X116783455Y-86472806D01*
X116771422Y-86465859D01*
X116750815Y-86453961D01*
X116741544Y-86448055D01*
X116719715Y-86432770D01*
X116710684Y-86426446D01*
X116700034Y-86423592D01*
X116696866Y-86422115D01*
X116693590Y-86420923D01*
X116684045Y-86415412D01*
X116650301Y-86409462D01*
X116646942Y-86408870D01*
X116636215Y-86406492D01*
X116599807Y-86396736D01*
X116588822Y-86397697D01*
X116588820Y-86397697D01*
X116562272Y-86400020D01*
X116551290Y-86400500D01*
X115857500Y-86400500D01*
X115789379Y-86380498D01*
X115742886Y-86326842D01*
X115731500Y-86274500D01*
X115731500Y-85856252D01*
X115727651Y-85836902D01*
X115722288Y-85809939D01*
X115722288Y-85809938D01*
X115719867Y-85797769D01*
X115675552Y-85731448D01*
X115609231Y-85687133D01*
X115597062Y-85684712D01*
X115597061Y-85684712D01*
X115556816Y-85676707D01*
X115550748Y-85675500D01*
X113811252Y-85675500D01*
X113805184Y-85676707D01*
X113764939Y-85684712D01*
X113764938Y-85684712D01*
X113752769Y-85687133D01*
X113686448Y-85731448D01*
X113642133Y-85797769D01*
X113639712Y-85809938D01*
X113639712Y-85809939D01*
X113634349Y-85836902D01*
X113630500Y-85856252D01*
X113630500Y-87595748D01*
X113642133Y-87654231D01*
X113686448Y-87720552D01*
X113752769Y-87764867D01*
X113764938Y-87767288D01*
X113764939Y-87767288D01*
X113805184Y-87775293D01*
X113811252Y-87776500D01*
X115550748Y-87776500D01*
X115556816Y-87775293D01*
X115597061Y-87767288D01*
X115597062Y-87767288D01*
X115609231Y-87764867D01*
X115675552Y-87720552D01*
X115719867Y-87654231D01*
X115731500Y-87595748D01*
X115731500Y-87177500D01*
X115751502Y-87109379D01*
X115805158Y-87062886D01*
X115857500Y-87051500D01*
X116383984Y-87051500D01*
X116452105Y-87071502D01*
X116473079Y-87088405D01*
X117992889Y-88608215D01*
X118000315Y-88616318D01*
X118024545Y-88645194D01*
X118034094Y-88650707D01*
X118057185Y-88664039D01*
X118066456Y-88669945D01*
X118097316Y-88691554D01*
X118107966Y-88694408D01*
X118111134Y-88695885D01*
X118114410Y-88697077D01*
X118123955Y-88702588D01*
X118157699Y-88708538D01*
X118161058Y-88709130D01*
X118171785Y-88711508D01*
X118208193Y-88721264D01*
X118219169Y-88720304D01*
X118219172Y-88720304D01*
X118245743Y-88717979D01*
X118256724Y-88717500D01*
X125837290Y-88717500D01*
X125848272Y-88717980D01*
X125874820Y-88720303D01*
X125874822Y-88720303D01*
X125885807Y-88721264D01*
X125922215Y-88711508D01*
X125932942Y-88709130D01*
X125936301Y-88708538D01*
X125970045Y-88702588D01*
X125979590Y-88697077D01*
X125982866Y-88695885D01*
X125986034Y-88694408D01*
X125996684Y-88691554D01*
X126027544Y-88669945D01*
X126036815Y-88664039D01*
X126059906Y-88650707D01*
X126069455Y-88645194D01*
X126093685Y-88616317D01*
X126101111Y-88608215D01*
X128994215Y-85715111D01*
X129002319Y-85707684D01*
X129022749Y-85690541D01*
X129031194Y-85683455D01*
X129036707Y-85673906D01*
X129050039Y-85650815D01*
X129055945Y-85641544D01*
X129071230Y-85619715D01*
X129077554Y-85610684D01*
X129080408Y-85600034D01*
X129081885Y-85596866D01*
X129083077Y-85593590D01*
X129088588Y-85584045D01*
X129095130Y-85546942D01*
X129097509Y-85536210D01*
X129098716Y-85531707D01*
X129107264Y-85499807D01*
X129106219Y-85487852D01*
X129103979Y-85462257D01*
X129103500Y-85451276D01*
X129103500Y-83627286D01*
X129123502Y-83559165D01*
X129152796Y-83527323D01*
X129163702Y-83518955D01*
X129206282Y-83486282D01*
X129247323Y-83432796D01*
X129304661Y-83390929D01*
X129347286Y-83383500D01*
X130241984Y-83383500D01*
X130310105Y-83403502D01*
X130331079Y-83420405D01*
X130640595Y-83729921D01*
X130674621Y-83792233D01*
X130677500Y-83819016D01*
X130677500Y-84178532D01*
X130657498Y-84246653D01*
X130640673Y-84267550D01*
X130580010Y-84328319D01*
X130563707Y-84344650D01*
X130559134Y-84354006D01*
X130559133Y-84354007D01*
X130545216Y-84382478D01*
X130512464Y-84449482D01*
X130502500Y-84517782D01*
X130502500Y-85759218D01*
X130503170Y-85763768D01*
X130503170Y-85763771D01*
X130511216Y-85818426D01*
X130512642Y-85828112D01*
X130564068Y-85932855D01*
X130571438Y-85940212D01*
X130638965Y-86007621D01*
X130646650Y-86015293D01*
X130656006Y-86019866D01*
X130656007Y-86019867D01*
X130683687Y-86033397D01*
X130751482Y-86066536D01*
X130781973Y-86070984D01*
X130815256Y-86075840D01*
X130815260Y-86075840D01*
X130819782Y-86076500D01*
X131186218Y-86076500D01*
X131190768Y-86075830D01*
X131190771Y-86075830D01*
X131245426Y-86067784D01*
X131245427Y-86067784D01*
X131255112Y-86066358D01*
X131325063Y-86032014D01*
X131350507Y-86019522D01*
X131350509Y-86019521D01*
X131359855Y-86014932D01*
X131427375Y-85947294D01*
X131434935Y-85939721D01*
X131434935Y-85939720D01*
X131442293Y-85932350D01*
X131493536Y-85827518D01*
X131499012Y-85789984D01*
X132095001Y-85789984D01*
X132095195Y-85794920D01*
X132097430Y-85823336D01*
X132099730Y-85835931D01*
X132142107Y-85981790D01*
X132148352Y-85996221D01*
X132224911Y-86125678D01*
X132234551Y-86138104D01*
X132340896Y-86244449D01*
X132353322Y-86254089D01*
X132482779Y-86330648D01*
X132497210Y-86336893D01*
X132631605Y-86375939D01*
X132645706Y-86375899D01*
X132649000Y-86368630D01*
X132649000Y-86362878D01*
X133157000Y-86362878D01*
X133160973Y-86376409D01*
X133168871Y-86377544D01*
X133308790Y-86336893D01*
X133323221Y-86330648D01*
X133452678Y-86254089D01*
X133465104Y-86244449D01*
X133571449Y-86138104D01*
X133581089Y-86125678D01*
X133657648Y-85996221D01*
X133663893Y-85981790D01*
X133706269Y-85835935D01*
X133708570Y-85823333D01*
X133710807Y-85794916D01*
X133711000Y-85789986D01*
X133711000Y-85410615D01*
X133706525Y-85395376D01*
X133705135Y-85394171D01*
X133697452Y-85392500D01*
X133175115Y-85392500D01*
X133159876Y-85396975D01*
X133158671Y-85398365D01*
X133157000Y-85406048D01*
X133157000Y-86362878D01*
X132649000Y-86362878D01*
X132649000Y-85410615D01*
X132644525Y-85395376D01*
X132643135Y-85394171D01*
X132635452Y-85392500D01*
X132113116Y-85392500D01*
X132097877Y-85396975D01*
X132096672Y-85398365D01*
X132095001Y-85406048D01*
X132095001Y-85789984D01*
X131499012Y-85789984D01*
X131503500Y-85759218D01*
X131503500Y-84517782D01*
X131494871Y-84459162D01*
X131494784Y-84458574D01*
X131494784Y-84458573D01*
X131493358Y-84448888D01*
X131462699Y-84386442D01*
X131446522Y-84353493D01*
X131446521Y-84353491D01*
X131441932Y-84344145D01*
X131399485Y-84301772D01*
X131365482Y-84267828D01*
X131331403Y-84205545D01*
X131328500Y-84178655D01*
X131328500Y-84176427D01*
X131348502Y-84108306D01*
X131402158Y-84061813D01*
X131472432Y-84051709D01*
X131537012Y-84081203D01*
X131543517Y-84087254D01*
X131589276Y-84132933D01*
X131589280Y-84132936D01*
X131596650Y-84140293D01*
X131701482Y-84191536D01*
X131731973Y-84195984D01*
X131765256Y-84200840D01*
X131765260Y-84200840D01*
X131769782Y-84201500D01*
X132001515Y-84201500D01*
X132069636Y-84221502D01*
X132116129Y-84275158D01*
X132126233Y-84345432D01*
X132122512Y-84362653D01*
X132099732Y-84441062D01*
X132097430Y-84453667D01*
X132095193Y-84482084D01*
X132095000Y-84487014D01*
X132095000Y-84866385D01*
X132099475Y-84881624D01*
X132100865Y-84882829D01*
X132108548Y-84884500D01*
X132630885Y-84884500D01*
X132646124Y-84880025D01*
X132647329Y-84878635D01*
X132649000Y-84870952D01*
X132649000Y-84866385D01*
X133157000Y-84866385D01*
X133161475Y-84881624D01*
X133162865Y-84882829D01*
X133170548Y-84884500D01*
X133692884Y-84884500D01*
X133708123Y-84880025D01*
X133709328Y-84878635D01*
X133710999Y-84870952D01*
X133710999Y-84487017D01*
X133710805Y-84482080D01*
X133708570Y-84453664D01*
X133706270Y-84441069D01*
X133663893Y-84295210D01*
X133657648Y-84280779D01*
X133581089Y-84151322D01*
X133571449Y-84138896D01*
X133465104Y-84032551D01*
X133452678Y-84022911D01*
X133323221Y-83946352D01*
X133308790Y-83940107D01*
X133174395Y-83901061D01*
X133160294Y-83901101D01*
X133157000Y-83908370D01*
X133157000Y-84866385D01*
X132649000Y-84866385D01*
X132649000Y-83914122D01*
X132645027Y-83900591D01*
X132637128Y-83899456D01*
X132614655Y-83905985D01*
X132543658Y-83905784D01*
X132484042Y-83867231D01*
X132454732Y-83802566D01*
X132453500Y-83784989D01*
X132453500Y-82642782D01*
X132451348Y-82628159D01*
X132444784Y-82583574D01*
X132444784Y-82583573D01*
X132443358Y-82573888D01*
X132411401Y-82508798D01*
X132396522Y-82478493D01*
X132396521Y-82478491D01*
X132391932Y-82469145D01*
X132334177Y-82411491D01*
X132316721Y-82394065D01*
X132316720Y-82394065D01*
X132309350Y-82386707D01*
X132284253Y-82374439D01*
X132225982Y-82345956D01*
X132204518Y-82335464D01*
X132174027Y-82331016D01*
X132140744Y-82326160D01*
X132140740Y-82326160D01*
X132136218Y-82325500D01*
X131769782Y-82325500D01*
X131765232Y-82326170D01*
X131765229Y-82326170D01*
X131710574Y-82334216D01*
X131710573Y-82334216D01*
X131700888Y-82335642D01*
X131679881Y-82345956D01*
X131637304Y-82366860D01*
X131567340Y-82378928D01*
X131501959Y-82351254D01*
X131492678Y-82342852D01*
X131181421Y-82031595D01*
X131147395Y-81969283D01*
X131152460Y-81898468D01*
X131195007Y-81841632D01*
X131261527Y-81816821D01*
X131270516Y-81816500D01*
X131474488Y-81816500D01*
X131534851Y-81806940D01*
X131564335Y-81802270D01*
X131564337Y-81802269D01*
X131574126Y-81800719D01*
X131694220Y-81739528D01*
X131780343Y-81653405D01*
X131842655Y-81619379D01*
X131869438Y-81616500D01*
X132417562Y-81616500D01*
X132485683Y-81636502D01*
X132506657Y-81653405D01*
X132592780Y-81739528D01*
X132712874Y-81800719D01*
X132722663Y-81802269D01*
X132722665Y-81802270D01*
X132752149Y-81806940D01*
X132812512Y-81816500D01*
X133379488Y-81816500D01*
X133439851Y-81806940D01*
X133469335Y-81802270D01*
X133469337Y-81802269D01*
X133479126Y-81800719D01*
X133599220Y-81739528D01*
X133685343Y-81653405D01*
X133747655Y-81619379D01*
X133774438Y-81616500D01*
X134067843Y-81616500D01*
X134135964Y-81636502D01*
X134144547Y-81642537D01*
X134148320Y-81645432D01*
X134190159Y-81677536D01*
X134336238Y-81738044D01*
X134493000Y-81758682D01*
X134501188Y-81757604D01*
X134516046Y-81755648D01*
X134649762Y-81738044D01*
X134795841Y-81677536D01*
X134921282Y-81581282D01*
X134937015Y-81560779D01*
X134986230Y-81496640D01*
X135017536Y-81455841D01*
X135078044Y-81309762D01*
X135098682Y-81153000D01*
X135078044Y-80996238D01*
X135017536Y-80850159D01*
X134921282Y-80724718D01*
X134795841Y-80628464D01*
X134649762Y-80567956D01*
X134493000Y-80547318D01*
X134336238Y-80567956D01*
X134190159Y-80628464D01*
X134169709Y-80644156D01*
X134110663Y-80689463D01*
X134044442Y-80715063D01*
X134033959Y-80715500D01*
X133774438Y-80715500D01*
X133706317Y-80695498D01*
X133685343Y-80678595D01*
X133683226Y-80676478D01*
X133649200Y-80614166D01*
X133654265Y-80543351D01*
X133696812Y-80486515D01*
X133706018Y-80480238D01*
X133798179Y-80423207D01*
X133809574Y-80414176D01*
X133919986Y-80303571D01*
X133928998Y-80292160D01*
X134011004Y-80159120D01*
X134017151Y-80145939D01*
X134066491Y-79997186D01*
X134069358Y-79983810D01*
X134078672Y-79892903D01*
X134078929Y-79887874D01*
X134074525Y-79872876D01*
X134073135Y-79871671D01*
X134065452Y-79870000D01*
X128321115Y-79870000D01*
X128305876Y-79874475D01*
X128304671Y-79875865D01*
X128303000Y-79883548D01*
X128303000Y-79886438D01*
X128303337Y-79892953D01*
X128312894Y-79985057D01*
X128315788Y-79998456D01*
X128365381Y-80147107D01*
X128371555Y-80160286D01*
X128453788Y-80293173D01*
X128462824Y-80304574D01*
X128573429Y-80414986D01*
X128584840Y-80423998D01*
X128675832Y-80480086D01*
X128723325Y-80532858D01*
X128734749Y-80602930D01*
X128706475Y-80668054D01*
X128698811Y-80676441D01*
X128696657Y-80678595D01*
X128634345Y-80712621D01*
X128607562Y-80715500D01*
X128007500Y-80715500D01*
X127939379Y-80695498D01*
X127892886Y-80641842D01*
X127881500Y-80589500D01*
X127881500Y-79467782D01*
X127872871Y-79409162D01*
X127872784Y-79408574D01*
X127872784Y-79408573D01*
X127871358Y-79398888D01*
X127846595Y-79348452D01*
X127844471Y-79344126D01*
X128303071Y-79344126D01*
X128307475Y-79359124D01*
X128308865Y-79360329D01*
X128316548Y-79362000D01*
X129013885Y-79362000D01*
X129029124Y-79357525D01*
X129030329Y-79356135D01*
X129032000Y-79348452D01*
X129032000Y-79343885D01*
X129540000Y-79343885D01*
X129544475Y-79359124D01*
X129545865Y-79360329D01*
X129553548Y-79362000D01*
X130918885Y-79362000D01*
X130934124Y-79357525D01*
X130935329Y-79356135D01*
X130937000Y-79348452D01*
X130937000Y-79343885D01*
X131445000Y-79343885D01*
X131449475Y-79359124D01*
X131450865Y-79360329D01*
X131458548Y-79362000D01*
X132823885Y-79362000D01*
X132839124Y-79357525D01*
X132840329Y-79356135D01*
X132842000Y-79348452D01*
X132842000Y-79343885D01*
X133350000Y-79343885D01*
X133354475Y-79359124D01*
X133355865Y-79360329D01*
X133363548Y-79362000D01*
X134060885Y-79362000D01*
X134076124Y-79357525D01*
X134077329Y-79356135D01*
X134079000Y-79348452D01*
X134079000Y-79345562D01*
X134078663Y-79339047D01*
X134069106Y-79246943D01*
X134066212Y-79233544D01*
X134016619Y-79084893D01*
X134010445Y-79071714D01*
X133928212Y-78938827D01*
X133919176Y-78927426D01*
X133808571Y-78817014D01*
X133797160Y-78808002D01*
X133664120Y-78725996D01*
X133650939Y-78719849D01*
X133502186Y-78670509D01*
X133488810Y-78667642D01*
X133397903Y-78658328D01*
X133391486Y-78658000D01*
X133368115Y-78658000D01*
X133352876Y-78662475D01*
X133351671Y-78663865D01*
X133350000Y-78671548D01*
X133350000Y-79343885D01*
X132842000Y-79343885D01*
X132842000Y-78676115D01*
X132837525Y-78660876D01*
X132836135Y-78659671D01*
X132828452Y-78658000D01*
X132800562Y-78658000D01*
X132794047Y-78658337D01*
X132701943Y-78667894D01*
X132688544Y-78670788D01*
X132539893Y-78720381D01*
X132526714Y-78726555D01*
X132393827Y-78808788D01*
X132382426Y-78817824D01*
X132272014Y-78928429D01*
X132263002Y-78939840D01*
X132250704Y-78959791D01*
X132197931Y-79007285D01*
X132127860Y-79018707D01*
X132062736Y-78990433D01*
X132036299Y-78959976D01*
X132023212Y-78938828D01*
X132014176Y-78927426D01*
X131903571Y-78817014D01*
X131892160Y-78808002D01*
X131759120Y-78725996D01*
X131745939Y-78719849D01*
X131597186Y-78670509D01*
X131583810Y-78667642D01*
X131492903Y-78658328D01*
X131486486Y-78658000D01*
X131463115Y-78658000D01*
X131447876Y-78662475D01*
X131446671Y-78663865D01*
X131445000Y-78671548D01*
X131445000Y-79343885D01*
X130937000Y-79343885D01*
X130937000Y-78676115D01*
X130932525Y-78660876D01*
X130931135Y-78659671D01*
X130923452Y-78658000D01*
X130895562Y-78658000D01*
X130889047Y-78658337D01*
X130796943Y-78667894D01*
X130783544Y-78670788D01*
X130634893Y-78720381D01*
X130621714Y-78726555D01*
X130488827Y-78808788D01*
X130477426Y-78817824D01*
X130367014Y-78928429D01*
X130358002Y-78939840D01*
X130345704Y-78959791D01*
X130292931Y-79007285D01*
X130222860Y-79018707D01*
X130157736Y-78990433D01*
X130131299Y-78959976D01*
X130118212Y-78938828D01*
X130109176Y-78927426D01*
X129998571Y-78817014D01*
X129987160Y-78808002D01*
X129854120Y-78725996D01*
X129840939Y-78719849D01*
X129692186Y-78670509D01*
X129678810Y-78667642D01*
X129587903Y-78658328D01*
X129581486Y-78658000D01*
X129558115Y-78658000D01*
X129542876Y-78662475D01*
X129541671Y-78663865D01*
X129540000Y-78671548D01*
X129540000Y-79343885D01*
X129032000Y-79343885D01*
X129032000Y-78676115D01*
X129027525Y-78660876D01*
X129026135Y-78659671D01*
X129018452Y-78658000D01*
X128990562Y-78658000D01*
X128984047Y-78658337D01*
X128891943Y-78667894D01*
X128878544Y-78670788D01*
X128729893Y-78720381D01*
X128716714Y-78726555D01*
X128583827Y-78808788D01*
X128572426Y-78817824D01*
X128462014Y-78928429D01*
X128453002Y-78939840D01*
X128370996Y-79072880D01*
X128364849Y-79086061D01*
X128315509Y-79234814D01*
X128312642Y-79248190D01*
X128303328Y-79339097D01*
X128303071Y-79344126D01*
X127844471Y-79344126D01*
X127824522Y-79303493D01*
X127824521Y-79303491D01*
X127819932Y-79294145D01*
X127737350Y-79211707D01*
X127632518Y-79160464D01*
X127602027Y-79156016D01*
X127568744Y-79151160D01*
X127568740Y-79151160D01*
X127564218Y-79150500D01*
X127197782Y-79150500D01*
X127193232Y-79151170D01*
X127193229Y-79151170D01*
X127138574Y-79159216D01*
X127138573Y-79159216D01*
X127128888Y-79160642D01*
X127110152Y-79169841D01*
X127033493Y-79207478D01*
X127033491Y-79207479D01*
X127024145Y-79212068D01*
X126941707Y-79294650D01*
X126890464Y-79399482D01*
X126880500Y-79467782D01*
X126880500Y-80964207D01*
X126860498Y-81032328D01*
X126843595Y-81053302D01*
X126826595Y-81070302D01*
X126764283Y-81104328D01*
X126693468Y-81099263D01*
X126636632Y-81056716D01*
X126611821Y-80990196D01*
X126611500Y-80981207D01*
X126611500Y-79467782D01*
X126602871Y-79409162D01*
X126602784Y-79408574D01*
X126602784Y-79408573D01*
X126601358Y-79398888D01*
X126580580Y-79356568D01*
X126568513Y-79286604D01*
X126593722Y-79224334D01*
X126606921Y-79207133D01*
X126635536Y-79169841D01*
X126696044Y-79023762D01*
X126716682Y-78867000D01*
X126696044Y-78710238D01*
X126635536Y-78564159D01*
X126539282Y-78438718D01*
X126413841Y-78342464D01*
X126267762Y-78281956D01*
X126111000Y-78261318D01*
X125954238Y-78281956D01*
X125808159Y-78342464D01*
X125682718Y-78438718D01*
X125586464Y-78564159D01*
X125525956Y-78710238D01*
X125505318Y-78867000D01*
X125525956Y-79023762D01*
X125586464Y-79169841D01*
X125591491Y-79176392D01*
X125591493Y-79176396D01*
X125628291Y-79224353D01*
X125653891Y-79290573D01*
X125641528Y-79356389D01*
X125633321Y-79373180D01*
X125620464Y-79399482D01*
X125610500Y-79467782D01*
X125610500Y-81184218D01*
X125611170Y-81188768D01*
X125611170Y-81188771D01*
X125619216Y-81243423D01*
X125620642Y-81253112D01*
X125642408Y-81297444D01*
X125660564Y-81334423D01*
X125672068Y-81357855D01*
X125701796Y-81387531D01*
X125745237Y-81430896D01*
X125754650Y-81440293D01*
X125764006Y-81444866D01*
X125764007Y-81444867D01*
X125775400Y-81450436D01*
X125859482Y-81491536D01*
X125889973Y-81495984D01*
X125923256Y-81500840D01*
X125923260Y-81500840D01*
X125927782Y-81501500D01*
X126091207Y-81501500D01*
X126159328Y-81521502D01*
X126205821Y-81575158D01*
X126215925Y-81645432D01*
X126186431Y-81710012D01*
X126180302Y-81716595D01*
X125628802Y-82268095D01*
X125566490Y-82302121D01*
X125539707Y-82305000D01*
X125467500Y-82305000D01*
X125399379Y-82284998D01*
X125352886Y-82231342D01*
X125341500Y-82179000D01*
X125341500Y-82164079D01*
X125358380Y-82101080D01*
X125360509Y-82097393D01*
X125365536Y-82090841D01*
X125426044Y-81944762D01*
X125446682Y-81788000D01*
X125426044Y-81631238D01*
X125365536Y-81485159D01*
X125322813Y-81429481D01*
X125297213Y-81363260D01*
X125309576Y-81297444D01*
X125327240Y-81261306D01*
X125331536Y-81252518D01*
X125341500Y-81184218D01*
X125341500Y-79467782D01*
X125332871Y-79409162D01*
X125332784Y-79408574D01*
X125332784Y-79408573D01*
X125331358Y-79398888D01*
X125306595Y-79348452D01*
X125284522Y-79303493D01*
X125284521Y-79303491D01*
X125279932Y-79294145D01*
X125197350Y-79211707D01*
X125092518Y-79160464D01*
X125062027Y-79156016D01*
X125028744Y-79151160D01*
X125028740Y-79151160D01*
X125024218Y-79150500D01*
X124657782Y-79150500D01*
X124653232Y-79151170D01*
X124653229Y-79151170D01*
X124598574Y-79159216D01*
X124598573Y-79159216D01*
X124588888Y-79160642D01*
X124570152Y-79169841D01*
X124493493Y-79207478D01*
X124493491Y-79207479D01*
X124484145Y-79212068D01*
X124401707Y-79294650D01*
X124350464Y-79399482D01*
X124340500Y-79467782D01*
X124340500Y-81184218D01*
X124350642Y-81253112D01*
X124372318Y-81297262D01*
X124384385Y-81367224D01*
X124359177Y-81429494D01*
X124316464Y-81485159D01*
X124255956Y-81631238D01*
X124235318Y-81788000D01*
X124255956Y-81944762D01*
X124316464Y-82090841D01*
X124321493Y-82097395D01*
X124323619Y-82101077D01*
X124340500Y-82164078D01*
X124340500Y-83376218D01*
X124341170Y-83380768D01*
X124341170Y-83380771D01*
X124344517Y-83403502D01*
X124350642Y-83445112D01*
X124354958Y-83453903D01*
X124354959Y-83453906D01*
X124377603Y-83500026D01*
X124390500Y-83555556D01*
X124390500Y-83621843D01*
X124370498Y-83689964D01*
X124316842Y-83736457D01*
X124246568Y-83746561D01*
X124209170Y-83735044D01*
X124142518Y-83702464D01*
X124112027Y-83698016D01*
X124078744Y-83693160D01*
X124078740Y-83693160D01*
X124074218Y-83692500D01*
X124022500Y-83692500D01*
X123954379Y-83672498D01*
X123907886Y-83618842D01*
X123896500Y-83566500D01*
X123896500Y-81523468D01*
X123916502Y-81455347D01*
X123933327Y-81434450D01*
X123934840Y-81432935D01*
X124010293Y-81357350D01*
X124061536Y-81252518D01*
X124071500Y-81184218D01*
X124071500Y-79467782D01*
X124062871Y-79409162D01*
X124062784Y-79408574D01*
X124062784Y-79408573D01*
X124061358Y-79398888D01*
X124036595Y-79348452D01*
X124014522Y-79303493D01*
X124014521Y-79303491D01*
X124009932Y-79294145D01*
X123927350Y-79211707D01*
X123822518Y-79160464D01*
X123792027Y-79156016D01*
X123758744Y-79151160D01*
X123758740Y-79151160D01*
X123754218Y-79150500D01*
X123387782Y-79150500D01*
X123383232Y-79151170D01*
X123383229Y-79151170D01*
X123328574Y-79159216D01*
X123328573Y-79159216D01*
X123318888Y-79160642D01*
X123214145Y-79212068D01*
X123207301Y-79218924D01*
X123140667Y-79242177D01*
X123071630Y-79225614D01*
X123025898Y-79180474D01*
X122979089Y-79101322D01*
X122969449Y-79088896D01*
X122863104Y-78982551D01*
X122850678Y-78972911D01*
X122721221Y-78896352D01*
X122706790Y-78890107D01*
X122572395Y-78851061D01*
X122558294Y-78851101D01*
X122555000Y-78858370D01*
X122555000Y-81787878D01*
X122558973Y-81801409D01*
X122566871Y-81802544D01*
X122706790Y-81761893D01*
X122721221Y-81755648D01*
X122850678Y-81679089D01*
X122863104Y-81669449D01*
X122969449Y-81563104D01*
X122979089Y-81550677D01*
X123011046Y-81496640D01*
X123062939Y-81448187D01*
X123132789Y-81435482D01*
X123198421Y-81462557D01*
X123238995Y-81520817D01*
X123245500Y-81560779D01*
X123245500Y-82473263D01*
X123225498Y-82541384D01*
X123171842Y-82587877D01*
X123101568Y-82597981D01*
X123036988Y-82568487D01*
X123019537Y-82549966D01*
X122988308Y-82509267D01*
X122988305Y-82509264D01*
X122983282Y-82502718D01*
X122857841Y-82406464D01*
X122730053Y-82353532D01*
X122719391Y-82349116D01*
X122711762Y-82345956D01*
X122666203Y-82339958D01*
X122563188Y-82326396D01*
X122555000Y-82325318D01*
X122546812Y-82326396D01*
X122443798Y-82339958D01*
X122398238Y-82345956D01*
X122303216Y-82385315D01*
X122232629Y-82392904D01*
X122169142Y-82361125D01*
X122132914Y-82300067D01*
X122129000Y-82268906D01*
X122129000Y-82254562D01*
X122128663Y-82248047D01*
X122119106Y-82155943D01*
X122116212Y-82142544D01*
X122066619Y-81993893D01*
X122060445Y-81980714D01*
X122039091Y-81946206D01*
X122020253Y-81877754D01*
X122031473Y-81827888D01*
X122047000Y-81793630D01*
X122047000Y-78864122D01*
X122043027Y-78850591D01*
X122035129Y-78849456D01*
X121895210Y-78890107D01*
X121880775Y-78896354D01*
X121816605Y-78934303D01*
X121747789Y-78951762D01*
X121680458Y-78929245D01*
X121635989Y-78873900D01*
X121627545Y-78809403D01*
X121635604Y-78748188D01*
X121636682Y-78740000D01*
X121616044Y-78583238D01*
X121555536Y-78437159D01*
X121459282Y-78311718D01*
X121333841Y-78215464D01*
X121187762Y-78154956D01*
X121031000Y-78134318D01*
X120874238Y-78154956D01*
X120728159Y-78215464D01*
X120602718Y-78311718D01*
X120597695Y-78318264D01*
X120561677Y-78365204D01*
X120504339Y-78407071D01*
X120461714Y-78414500D01*
X119720641Y-78414500D01*
X119709660Y-78414021D01*
X119683098Y-78411697D01*
X119683096Y-78411697D01*
X119672121Y-78410737D01*
X119635711Y-78420492D01*
X119625004Y-78422866D01*
X119587883Y-78429412D01*
X119578339Y-78434922D01*
X119575063Y-78436114D01*
X119571892Y-78437593D01*
X119561244Y-78440446D01*
X119552215Y-78446768D01*
X119530377Y-78462059D01*
X119521107Y-78467964D01*
X119498024Y-78481291D01*
X119498021Y-78481293D01*
X119488473Y-78486806D01*
X119481385Y-78495253D01*
X119481384Y-78495254D01*
X119464254Y-78515669D01*
X119456828Y-78523773D01*
X117205791Y-80774811D01*
X115892651Y-82087951D01*
X115830339Y-82121977D01*
X115759524Y-82116912D01*
X115702688Y-82074365D01*
X115677877Y-82007845D01*
X115683997Y-81959085D01*
X115684198Y-81958483D01*
X115710351Y-81879863D01*
X115736171Y-81675474D01*
X115736390Y-81659806D01*
X115736534Y-81649522D01*
X115736534Y-81649518D01*
X115736583Y-81646000D01*
X115716480Y-81440970D01*
X115656935Y-81243749D01*
X115560218Y-81061849D01*
X115480583Y-80964207D01*
X115433906Y-80906975D01*
X115433903Y-80906972D01*
X115430011Y-80902200D01*
X115425262Y-80898271D01*
X115276025Y-80774811D01*
X115276021Y-80774809D01*
X115271275Y-80770882D01*
X115090055Y-80672897D01*
X114893254Y-80611977D01*
X114887129Y-80611333D01*
X114887128Y-80611333D01*
X114694498Y-80591087D01*
X114694496Y-80591087D01*
X114688369Y-80590443D01*
X114601529Y-80598346D01*
X114489342Y-80608555D01*
X114489339Y-80608556D01*
X114483203Y-80609114D01*
X114285572Y-80667280D01*
X114280112Y-80670134D01*
X114275779Y-80671885D01*
X114205126Y-80678858D01*
X114139483Y-80644156D01*
X113773405Y-80278079D01*
X113739380Y-80215766D01*
X113736500Y-80188983D01*
X113736500Y-79954361D01*
X113756502Y-79886240D01*
X113810158Y-79839747D01*
X113880432Y-79829643D01*
X113944163Y-79858407D01*
X114078564Y-79972791D01*
X114083942Y-79975797D01*
X114083944Y-79975798D01*
X114122342Y-79997258D01*
X114258398Y-80073297D01*
X114353238Y-80104113D01*
X114448471Y-80135056D01*
X114448475Y-80135057D01*
X114454329Y-80136959D01*
X114658894Y-80161351D01*
X114665029Y-80160879D01*
X114665031Y-80160879D01*
X114721039Y-80156569D01*
X114864300Y-80145546D01*
X114870230Y-80143890D01*
X114870232Y-80143890D01*
X115056797Y-80091800D01*
X115056796Y-80091800D01*
X115062725Y-80090145D01*
X115068214Y-80087372D01*
X115068220Y-80087370D01*
X115241116Y-80000033D01*
X115246610Y-79997258D01*
X115408951Y-79870424D01*
X115435431Y-79839747D01*
X115539540Y-79719134D01*
X115539540Y-79719133D01*
X115543564Y-79714472D01*
X115564387Y-79677818D01*
X115585441Y-79640755D01*
X115645323Y-79535344D01*
X115710351Y-79339863D01*
X115736171Y-79135474D01*
X115736583Y-79106000D01*
X115716480Y-78900970D01*
X115656935Y-78703749D01*
X115560218Y-78521849D01*
X115442890Y-78377991D01*
X115433906Y-78366975D01*
X115433903Y-78366972D01*
X115430011Y-78362200D01*
X115412231Y-78347491D01*
X115276025Y-78234811D01*
X115276021Y-78234809D01*
X115271275Y-78230882D01*
X115090055Y-78132897D01*
X114893254Y-78071977D01*
X114887129Y-78071333D01*
X114887128Y-78071333D01*
X114694498Y-78051087D01*
X114694496Y-78051087D01*
X114688369Y-78050443D01*
X114601529Y-78058346D01*
X114489342Y-78068555D01*
X114489339Y-78068556D01*
X114483203Y-78069114D01*
X114285572Y-78127280D01*
X114103002Y-78222726D01*
X114098201Y-78226586D01*
X114098198Y-78226588D01*
X113942447Y-78351815D01*
X113940859Y-78349839D01*
X113887969Y-78377991D01*
X113817211Y-78372171D01*
X113760832Y-78329021D01*
X113736732Y-78262240D01*
X113736500Y-78254592D01*
X113736500Y-77414361D01*
X113756502Y-77346240D01*
X113810158Y-77299747D01*
X113880432Y-77289643D01*
X113944163Y-77318407D01*
X114078564Y-77432791D01*
X114083942Y-77435797D01*
X114083944Y-77435798D01*
X114143699Y-77469194D01*
X114258398Y-77533297D01*
X114353238Y-77564113D01*
X114448471Y-77595056D01*
X114448475Y-77595057D01*
X114454329Y-77596959D01*
X114658894Y-77621351D01*
X114665029Y-77620879D01*
X114665031Y-77620879D01*
X114721039Y-77616569D01*
X114864300Y-77605546D01*
X114870230Y-77603890D01*
X114870232Y-77603890D01*
X115056797Y-77551800D01*
X115056796Y-77551800D01*
X115062725Y-77550145D01*
X115068214Y-77547372D01*
X115068220Y-77547370D01*
X115212067Y-77474707D01*
X115246610Y-77457258D01*
X115268275Y-77440332D01*
X115404101Y-77334213D01*
X115408951Y-77330424D01*
X115435431Y-77299747D01*
X115539540Y-77179134D01*
X115539540Y-77179133D01*
X115543564Y-77174472D01*
X115564387Y-77137818D01*
X115582056Y-77106714D01*
X115645323Y-76995344D01*
X115710351Y-76799863D01*
X115736171Y-76595474D01*
X115736583Y-76566000D01*
X115716480Y-76360970D01*
X115687500Y-76264984D01*
X118953001Y-76264984D01*
X118953195Y-76269920D01*
X118955430Y-76298336D01*
X118957730Y-76310931D01*
X119000107Y-76456790D01*
X119006352Y-76471221D01*
X119082911Y-76600678D01*
X119092551Y-76613104D01*
X119198896Y-76719449D01*
X119211322Y-76729089D01*
X119340779Y-76805648D01*
X119355210Y-76811893D01*
X119489605Y-76850939D01*
X119503706Y-76850899D01*
X119507000Y-76843630D01*
X119507000Y-75648115D01*
X119502525Y-75632876D01*
X119501135Y-75631671D01*
X119493452Y-75630000D01*
X118971116Y-75630000D01*
X118955877Y-75634475D01*
X118954672Y-75635865D01*
X118953001Y-75643548D01*
X118953001Y-76264984D01*
X115687500Y-76264984D01*
X115656935Y-76163749D01*
X115560218Y-75981849D01*
X115460625Y-75859736D01*
X115433906Y-75826975D01*
X115433903Y-75826972D01*
X115430011Y-75822200D01*
X115417458Y-75811815D01*
X115276025Y-75694811D01*
X115276021Y-75694809D01*
X115271275Y-75690882D01*
X115090055Y-75592897D01*
X115039183Y-75577150D01*
X114980025Y-75537899D01*
X114951477Y-75472895D01*
X114962605Y-75402776D01*
X115009876Y-75349804D01*
X115040235Y-75336099D01*
X115173255Y-75296191D01*
X115182842Y-75292433D01*
X115374095Y-75198739D01*
X115382945Y-75193464D01*
X115508531Y-75103885D01*
X118953000Y-75103885D01*
X118957475Y-75119124D01*
X118958865Y-75120329D01*
X118966548Y-75122000D01*
X119488885Y-75122000D01*
X119504124Y-75117525D01*
X119505329Y-75116135D01*
X119507000Y-75108452D01*
X119507000Y-73914122D01*
X119503027Y-73900591D01*
X119495129Y-73899456D01*
X119355210Y-73940107D01*
X119340779Y-73946352D01*
X119211322Y-74022911D01*
X119198896Y-74032551D01*
X119092551Y-74138896D01*
X119082911Y-74151322D01*
X119006352Y-74280779D01*
X119000107Y-74295210D01*
X118957731Y-74441065D01*
X118955430Y-74453667D01*
X118953193Y-74482084D01*
X118953000Y-74487014D01*
X118953000Y-75103885D01*
X115508531Y-75103885D01*
X115556328Y-75069792D01*
X115564200Y-75063139D01*
X115715052Y-74912812D01*
X115721730Y-74904965D01*
X115846003Y-74732020D01*
X115851313Y-74723183D01*
X115945670Y-74532267D01*
X115949469Y-74522672D01*
X116011377Y-74318910D01*
X116013555Y-74308837D01*
X116014986Y-74297962D01*
X116012775Y-74283778D01*
X115999617Y-74280000D01*
X114553000Y-74280000D01*
X114484879Y-74259998D01*
X114438386Y-74206342D01*
X114427000Y-74154000D01*
X114427000Y-73898000D01*
X114447002Y-73829879D01*
X114500658Y-73783386D01*
X114553000Y-73772000D01*
X115999344Y-73772000D01*
X116012875Y-73768027D01*
X116014180Y-73758947D01*
X115972214Y-73591875D01*
X115968894Y-73582124D01*
X115883972Y-73386814D01*
X115879105Y-73377739D01*
X115822953Y-73290940D01*
X115802746Y-73222880D01*
X115822542Y-73154699D01*
X115876058Y-73108045D01*
X115928745Y-73096500D01*
X119934020Y-73096500D01*
X120002141Y-73116502D01*
X120048634Y-73170158D01*
X120060020Y-73222500D01*
X120060020Y-73804403D01*
X120040018Y-73872524D01*
X120023939Y-73888649D01*
X120015000Y-73908370D01*
X120015000Y-76837878D01*
X120018973Y-76851409D01*
X120026871Y-76852544D01*
X120166790Y-76811893D01*
X120181221Y-76805648D01*
X120205824Y-76791098D01*
X120274640Y-76773639D01*
X120341972Y-76796156D01*
X120359058Y-76810456D01*
X120686419Y-77137818D01*
X120980829Y-77432228D01*
X120988255Y-77440331D01*
X121012473Y-77469194D01*
X121022016Y-77474704D01*
X121022020Y-77474707D01*
X121045107Y-77488036D01*
X121054376Y-77493940D01*
X121085244Y-77515554D01*
X121095892Y-77518407D01*
X121099063Y-77519886D01*
X121102339Y-77521078D01*
X121111883Y-77526588D01*
X121149004Y-77533134D01*
X121159711Y-77535508D01*
X121196121Y-77545263D01*
X121207096Y-77544303D01*
X121207098Y-77544303D01*
X121233659Y-77541979D01*
X121244640Y-77541500D01*
X124627362Y-77541500D01*
X124638344Y-77541980D01*
X124664892Y-77544303D01*
X124664894Y-77544303D01*
X124675879Y-77545264D01*
X124712287Y-77535508D01*
X124723014Y-77533130D01*
X124726373Y-77532538D01*
X124760117Y-77526588D01*
X124769662Y-77521077D01*
X124772938Y-77519885D01*
X124776106Y-77518408D01*
X124786756Y-77515554D01*
X124817622Y-77493941D01*
X124826887Y-77488039D01*
X124849978Y-77474707D01*
X124859527Y-77469194D01*
X124883757Y-77440317D01*
X124891183Y-77432215D01*
X125747675Y-76575723D01*
X125809987Y-76541697D01*
X125859151Y-76543802D01*
X125859482Y-76541536D01*
X125923256Y-76550840D01*
X125923260Y-76550840D01*
X125927782Y-76551500D01*
X126294218Y-76551500D01*
X126298768Y-76550830D01*
X126298771Y-76550830D01*
X126353426Y-76542784D01*
X126353427Y-76542784D01*
X126363112Y-76541358D01*
X126457804Y-76494867D01*
X126458507Y-76494522D01*
X126458509Y-76494521D01*
X126467855Y-76489932D01*
X126550293Y-76407350D01*
X126601536Y-76302518D01*
X126607012Y-76264984D01*
X126610840Y-76238744D01*
X126610840Y-76238740D01*
X126611500Y-76234218D01*
X126880500Y-76234218D01*
X126881170Y-76238768D01*
X126881170Y-76238771D01*
X126889216Y-76293426D01*
X126890642Y-76303112D01*
X126908021Y-76338509D01*
X126919684Y-76362263D01*
X126942068Y-76407855D01*
X127024650Y-76490293D01*
X127129482Y-76541536D01*
X127159973Y-76545984D01*
X127193256Y-76550840D01*
X127193260Y-76550840D01*
X127197782Y-76551500D01*
X127564218Y-76551500D01*
X127568768Y-76550830D01*
X127568771Y-76550830D01*
X127623426Y-76542784D01*
X127623427Y-76542784D01*
X127633112Y-76541358D01*
X127727804Y-76494867D01*
X127728507Y-76494522D01*
X127728509Y-76494521D01*
X127737855Y-76489932D01*
X127820293Y-76407350D01*
X127871536Y-76302518D01*
X127877012Y-76264984D01*
X127880840Y-76238744D01*
X127880840Y-76238740D01*
X127881500Y-76234218D01*
X127881500Y-75889500D01*
X127901502Y-75821379D01*
X127955158Y-75774886D01*
X128007500Y-75763500D01*
X128208714Y-75763500D01*
X128276835Y-75783502D01*
X128308677Y-75812796D01*
X128349718Y-75866282D01*
X128356264Y-75871305D01*
X128367826Y-75880177D01*
X128475159Y-75962536D01*
X128621238Y-76023044D01*
X128629426Y-76024122D01*
X128677401Y-76030438D01*
X128778000Y-76043682D01*
X128786188Y-76042604D01*
X128926574Y-76024122D01*
X128934762Y-76023044D01*
X129080841Y-75962536D01*
X129188174Y-75880177D01*
X129199736Y-75871305D01*
X129206282Y-75866282D01*
X129302536Y-75740841D01*
X129363044Y-75594762D01*
X129383682Y-75438000D01*
X129363044Y-75281238D01*
X129302536Y-75135159D01*
X129206282Y-75009718D01*
X129080841Y-74913464D01*
X128934762Y-74852956D01*
X128778000Y-74832318D01*
X128778031Y-74832084D01*
X128714379Y-74813394D01*
X128667886Y-74759738D01*
X128656500Y-74707396D01*
X128656500Y-74643984D01*
X130576001Y-74643984D01*
X130576195Y-74648920D01*
X130578430Y-74677336D01*
X130580730Y-74689931D01*
X130623107Y-74835790D01*
X130629352Y-74850221D01*
X130705911Y-74979678D01*
X130715551Y-74992104D01*
X130821896Y-75098449D01*
X130834323Y-75108089D01*
X130913130Y-75154695D01*
X130961583Y-75206588D01*
X130974288Y-75276439D01*
X130947213Y-75342070D01*
X130925695Y-75363112D01*
X130889718Y-75390718D01*
X130793464Y-75516159D01*
X130732956Y-75662238D01*
X130731878Y-75670426D01*
X130725057Y-75722240D01*
X130712318Y-75819000D01*
X130732956Y-75975762D01*
X130793464Y-76121841D01*
X130853896Y-76200598D01*
X130883167Y-76238744D01*
X130889718Y-76247282D01*
X131015159Y-76343536D01*
X131142947Y-76396468D01*
X131147871Y-76398507D01*
X131161238Y-76404044D01*
X131169426Y-76405122D01*
X131239619Y-76414363D01*
X131318000Y-76424682D01*
X131326188Y-76423604D01*
X131466574Y-76405122D01*
X131474762Y-76404044D01*
X131488130Y-76398507D01*
X131493053Y-76396468D01*
X131620841Y-76343536D01*
X131630794Y-76335899D01*
X131634182Y-76334589D01*
X131634546Y-76334379D01*
X131634579Y-76334436D01*
X131697014Y-76310297D01*
X131766563Y-76324561D01*
X131817360Y-76374161D01*
X131833500Y-76435860D01*
X131833500Y-76488218D01*
X131834170Y-76492768D01*
X131834170Y-76492771D01*
X131842216Y-76547426D01*
X131843642Y-76557112D01*
X131895068Y-76661855D01*
X131977650Y-76744293D01*
X132082482Y-76795536D01*
X132112142Y-76799863D01*
X132146256Y-76804840D01*
X132146260Y-76804840D01*
X132150782Y-76805500D01*
X132517218Y-76805500D01*
X132521768Y-76804830D01*
X132521771Y-76804830D01*
X132576426Y-76796784D01*
X132576427Y-76796784D01*
X132586112Y-76795358D01*
X132680804Y-76748867D01*
X132681507Y-76748522D01*
X132681509Y-76748521D01*
X132690855Y-76743932D01*
X132773293Y-76661350D01*
X132824536Y-76556518D01*
X132833530Y-76494867D01*
X132833840Y-76492744D01*
X132833840Y-76492740D01*
X132834500Y-76488218D01*
X132834500Y-76319000D01*
X132854502Y-76250879D01*
X132908158Y-76204386D01*
X132960500Y-76193000D01*
X133170046Y-76193000D01*
X133213136Y-76200598D01*
X133226606Y-76205500D01*
X133237635Y-76205500D01*
X133241078Y-76206107D01*
X133244544Y-76206410D01*
X133255193Y-76209264D01*
X133266169Y-76208304D01*
X133266172Y-76208304D01*
X133292743Y-76205979D01*
X133303724Y-76205500D01*
X133341394Y-76205500D01*
X133351755Y-76201730D01*
X133355194Y-76201123D01*
X133358559Y-76200221D01*
X133369545Y-76199260D01*
X133403709Y-76183329D01*
X133413862Y-76179124D01*
X133449260Y-76166240D01*
X133457702Y-76159157D01*
X133460728Y-76157410D01*
X133463590Y-76155406D01*
X133473580Y-76150747D01*
X133500222Y-76124105D01*
X133508326Y-76116678D01*
X133528749Y-76099541D01*
X133537194Y-76092455D01*
X133542707Y-76082906D01*
X133544944Y-76080240D01*
X133546946Y-76077381D01*
X133554747Y-76069580D01*
X133559409Y-76059583D01*
X133570675Y-76035423D01*
X133575749Y-76025675D01*
X133589077Y-76002590D01*
X133594588Y-75993045D01*
X133596503Y-75982188D01*
X133597698Y-75978904D01*
X133598600Y-75975538D01*
X133603259Y-75965546D01*
X133606544Y-75927997D01*
X133607979Y-75917098D01*
X133609500Y-75908475D01*
X133609500Y-75899710D01*
X133609980Y-75888728D01*
X133612303Y-75862181D01*
X133612303Y-75862179D01*
X133613264Y-75851193D01*
X133610409Y-75840540D01*
X133609979Y-75835621D01*
X133609500Y-75824639D01*
X133609500Y-74952468D01*
X133629502Y-74884347D01*
X133646327Y-74863450D01*
X133653649Y-74856116D01*
X133723293Y-74786350D01*
X133774536Y-74681518D01*
X133784500Y-74613218D01*
X133784500Y-73371782D01*
X133781763Y-73353185D01*
X133775784Y-73312574D01*
X133775784Y-73312573D01*
X133774358Y-73302888D01*
X133722932Y-73198145D01*
X133673912Y-73149210D01*
X133646482Y-73121828D01*
X133612403Y-73059545D01*
X133609500Y-73032655D01*
X133609500Y-70761468D01*
X133629502Y-70693347D01*
X133646327Y-70672450D01*
X133647840Y-70670935D01*
X133723293Y-70595350D01*
X133731860Y-70577825D01*
X133760375Y-70519488D01*
X133774536Y-70490518D01*
X133784500Y-70422218D01*
X133784500Y-69180782D01*
X133775871Y-69122162D01*
X133775784Y-69121574D01*
X133775784Y-69121573D01*
X133774358Y-69111888D01*
X133728415Y-69018312D01*
X133727522Y-69016493D01*
X133727521Y-69016491D01*
X133722932Y-69007145D01*
X133670414Y-68954719D01*
X133647721Y-68932065D01*
X133647720Y-68932065D01*
X133640350Y-68924707D01*
X133620926Y-68915212D01*
X133567821Y-68889254D01*
X133535518Y-68873464D01*
X133505027Y-68869016D01*
X133471744Y-68864160D01*
X133471740Y-68864160D01*
X133467218Y-68863500D01*
X133100782Y-68863500D01*
X133096232Y-68864170D01*
X133096229Y-68864170D01*
X133041574Y-68872216D01*
X133041573Y-68872216D01*
X133031888Y-68873642D01*
X133017203Y-68880852D01*
X132936493Y-68920478D01*
X132936491Y-68920479D01*
X132927145Y-68925068D01*
X132844707Y-69007650D01*
X132840134Y-69017006D01*
X132840133Y-69017007D01*
X132829305Y-69039159D01*
X132793464Y-69112482D01*
X132789952Y-69136553D01*
X132784333Y-69175074D01*
X132783500Y-69180782D01*
X132783500Y-69324640D01*
X132763498Y-69392761D01*
X132709842Y-69439254D01*
X132639568Y-69449358D01*
X132609284Y-69441050D01*
X132490762Y-69391956D01*
X132334000Y-69371318D01*
X132325812Y-69372396D01*
X132317999Y-69372396D01*
X132249878Y-69352394D01*
X132203385Y-69298738D01*
X132191999Y-69246396D01*
X132191999Y-69150017D01*
X132191805Y-69145080D01*
X132189570Y-69116664D01*
X132187270Y-69104069D01*
X132144893Y-68958210D01*
X132138648Y-68943779D01*
X132062089Y-68814322D01*
X132052449Y-68801896D01*
X131946104Y-68695551D01*
X131933678Y-68685911D01*
X131804221Y-68609352D01*
X131789790Y-68603107D01*
X131655395Y-68564061D01*
X131641294Y-68564101D01*
X131638000Y-68571370D01*
X131638000Y-71025878D01*
X131641973Y-71039409D01*
X131649872Y-71040544D01*
X131672345Y-71034015D01*
X131743342Y-71034216D01*
X131802958Y-71072769D01*
X131832268Y-71137434D01*
X131833500Y-71155011D01*
X131833500Y-72297218D01*
X131834170Y-72301768D01*
X131834170Y-72301771D01*
X131842216Y-72356426D01*
X131843642Y-72366112D01*
X131855080Y-72389409D01*
X131889941Y-72460412D01*
X131895068Y-72470855D01*
X131977650Y-72553293D01*
X131987006Y-72557866D01*
X131987007Y-72557867D01*
X132008404Y-72568326D01*
X132082482Y-72604536D01*
X132112973Y-72608984D01*
X132146256Y-72613840D01*
X132146260Y-72613840D01*
X132150782Y-72614500D01*
X132517218Y-72614500D01*
X132521768Y-72613830D01*
X132521771Y-72613830D01*
X132576426Y-72605784D01*
X132576427Y-72605784D01*
X132586112Y-72604358D01*
X132636008Y-72579860D01*
X132681507Y-72557522D01*
X132681509Y-72557521D01*
X132690855Y-72552932D01*
X132698212Y-72545562D01*
X132698215Y-72545560D01*
X132743327Y-72500369D01*
X132805609Y-72466289D01*
X132876429Y-72471292D01*
X132933302Y-72513789D01*
X132958171Y-72580287D01*
X132958500Y-72589386D01*
X132958500Y-73032532D01*
X132938498Y-73100653D01*
X132921675Y-73121548D01*
X132844707Y-73198650D01*
X132793464Y-73303482D01*
X132790975Y-73320545D01*
X132784861Y-73362456D01*
X132783500Y-73371782D01*
X132783500Y-74613218D01*
X132784170Y-74617768D01*
X132784170Y-74617771D01*
X132792216Y-74672426D01*
X132793642Y-74682112D01*
X132845068Y-74786855D01*
X132852438Y-74794212D01*
X132921518Y-74863172D01*
X132955597Y-74925455D01*
X132958500Y-74952345D01*
X132958500Y-74954573D01*
X132938498Y-75022694D01*
X132884842Y-75069187D01*
X132814568Y-75079291D01*
X132749988Y-75049797D01*
X132743483Y-75043746D01*
X132697724Y-74998067D01*
X132697720Y-74998064D01*
X132690350Y-74990707D01*
X132585518Y-74939464D01*
X132555027Y-74935016D01*
X132521744Y-74930160D01*
X132521740Y-74930160D01*
X132517218Y-74929500D01*
X132285485Y-74929500D01*
X132217364Y-74909498D01*
X132170871Y-74855842D01*
X132160767Y-74785568D01*
X132164488Y-74768347D01*
X132187268Y-74689938D01*
X132189570Y-74677333D01*
X132191807Y-74648916D01*
X132192000Y-74643986D01*
X132192000Y-74264615D01*
X132187525Y-74249376D01*
X132186135Y-74248171D01*
X132178452Y-74246500D01*
X130594116Y-74246500D01*
X130578877Y-74250975D01*
X130577672Y-74252365D01*
X130576001Y-74260048D01*
X130576001Y-74643984D01*
X128656500Y-74643984D01*
X128656500Y-73720385D01*
X130576000Y-73720385D01*
X130580475Y-73735624D01*
X130581865Y-73736829D01*
X130589548Y-73738500D01*
X131111885Y-73738500D01*
X131127124Y-73734025D01*
X131128329Y-73732635D01*
X131130000Y-73724952D01*
X131130000Y-73720385D01*
X131638000Y-73720385D01*
X131642475Y-73735624D01*
X131643865Y-73736829D01*
X131651548Y-73738500D01*
X132173884Y-73738500D01*
X132189123Y-73734025D01*
X132190328Y-73732635D01*
X132191999Y-73724952D01*
X132191999Y-73341017D01*
X132191805Y-73336080D01*
X132189570Y-73307664D01*
X132187270Y-73295069D01*
X132144893Y-73149210D01*
X132138648Y-73134779D01*
X132062089Y-73005322D01*
X132052449Y-72992896D01*
X131946104Y-72886551D01*
X131933678Y-72876911D01*
X131804221Y-72800352D01*
X131789790Y-72794107D01*
X131655395Y-72755061D01*
X131641294Y-72755101D01*
X131638000Y-72762370D01*
X131638000Y-73720385D01*
X131130000Y-73720385D01*
X131130000Y-72768122D01*
X131126027Y-72754591D01*
X131118129Y-72753456D01*
X130978210Y-72794107D01*
X130963779Y-72800352D01*
X130834322Y-72876911D01*
X130821896Y-72886551D01*
X130715551Y-72992896D01*
X130705911Y-73005322D01*
X130629352Y-73134779D01*
X130623107Y-73149210D01*
X130580731Y-73295065D01*
X130578430Y-73307667D01*
X130576193Y-73336084D01*
X130576000Y-73341014D01*
X130576000Y-73720385D01*
X128656500Y-73720385D01*
X128656500Y-72636468D01*
X128676502Y-72568347D01*
X128693327Y-72547450D01*
X128694840Y-72545935D01*
X128755863Y-72484805D01*
X128762935Y-72477721D01*
X128762935Y-72477720D01*
X128770293Y-72470350D01*
X128778816Y-72452915D01*
X128817240Y-72374306D01*
X128821536Y-72365518D01*
X128831500Y-72297218D01*
X128831500Y-71055782D01*
X128823273Y-70999893D01*
X128822784Y-70996574D01*
X128822784Y-70996573D01*
X128821358Y-70986888D01*
X128779606Y-70901849D01*
X128774522Y-70891493D01*
X128774521Y-70891491D01*
X128769932Y-70882145D01*
X128687350Y-70799707D01*
X128582518Y-70748464D01*
X128548800Y-70743545D01*
X128518744Y-70739160D01*
X128518740Y-70739160D01*
X128514218Y-70738500D01*
X128147782Y-70738500D01*
X128143232Y-70739170D01*
X128143229Y-70739170D01*
X128088574Y-70747216D01*
X128088573Y-70747216D01*
X128078888Y-70748642D01*
X128048477Y-70763573D01*
X127983493Y-70795478D01*
X127983491Y-70795479D01*
X127974145Y-70800068D01*
X127891707Y-70882650D01*
X127840464Y-70987482D01*
X127837512Y-71007717D01*
X127832889Y-71039409D01*
X127830500Y-71055782D01*
X127830500Y-72297218D01*
X127831170Y-72301768D01*
X127831170Y-72301771D01*
X127839216Y-72356426D01*
X127840642Y-72366112D01*
X127852080Y-72389409D01*
X127886941Y-72460412D01*
X127892068Y-72470855D01*
X127899438Y-72478212D01*
X127968518Y-72547172D01*
X128002597Y-72609455D01*
X128005500Y-72636345D01*
X128005500Y-74225573D01*
X127985498Y-74293694D01*
X127931842Y-74340187D01*
X127861568Y-74350291D01*
X127796988Y-74320797D01*
X127790483Y-74314746D01*
X127744724Y-74269067D01*
X127744720Y-74269064D01*
X127737350Y-74261707D01*
X127718239Y-74252365D01*
X127691919Y-74239500D01*
X127632518Y-74210464D01*
X127602027Y-74206016D01*
X127568744Y-74201160D01*
X127568740Y-74201160D01*
X127564218Y-74200500D01*
X127197782Y-74200500D01*
X127193232Y-74201170D01*
X127193229Y-74201170D01*
X127138574Y-74209216D01*
X127138573Y-74209216D01*
X127128888Y-74210642D01*
X127100701Y-74224481D01*
X127033493Y-74257478D01*
X127033491Y-74257479D01*
X127024145Y-74262068D01*
X126941707Y-74344650D01*
X126890464Y-74449482D01*
X126880500Y-74517782D01*
X126880500Y-76234218D01*
X126611500Y-76234218D01*
X126611500Y-74517782D01*
X126602871Y-74459162D01*
X126602784Y-74458574D01*
X126602784Y-74458573D01*
X126601358Y-74448888D01*
X126549932Y-74344145D01*
X126467350Y-74261707D01*
X126467936Y-74261120D01*
X126429636Y-74212334D01*
X126426146Y-74200071D01*
X126423501Y-74192805D01*
X126421588Y-74181955D01*
X126416079Y-74172412D01*
X126414886Y-74169135D01*
X126413407Y-74165964D01*
X126410554Y-74155316D01*
X126388940Y-74124448D01*
X126383036Y-74115179D01*
X126369707Y-74092092D01*
X126369704Y-74092088D01*
X126364194Y-74082545D01*
X126335330Y-74058325D01*
X126327227Y-74050900D01*
X126095922Y-73819595D01*
X126061897Y-73757283D01*
X126066961Y-73686468D01*
X126109508Y-73629632D01*
X126176028Y-73604821D01*
X126185017Y-73604500D01*
X126557714Y-73604500D01*
X126625835Y-73624502D01*
X126657677Y-73653796D01*
X126668443Y-73667826D01*
X126698718Y-73707282D01*
X126824159Y-73803536D01*
X126970238Y-73864044D01*
X127127000Y-73884682D01*
X127135188Y-73883604D01*
X127275574Y-73865122D01*
X127283762Y-73864044D01*
X127429841Y-73803536D01*
X127555282Y-73707282D01*
X127651536Y-73581841D01*
X127712044Y-73435762D01*
X127732682Y-73279000D01*
X127712044Y-73122238D01*
X127651536Y-72976159D01*
X127555282Y-72850718D01*
X127429841Y-72754464D01*
X127283762Y-72693956D01*
X127268404Y-72691934D01*
X127135188Y-72674396D01*
X127127000Y-72673318D01*
X126970238Y-72693956D01*
X126969972Y-72691934D01*
X126909996Y-72690504D01*
X126851202Y-72650708D01*
X126823256Y-72585443D01*
X126835031Y-72515430D01*
X126859193Y-72481469D01*
X126862936Y-72477720D01*
X126862936Y-72477719D01*
X126870293Y-72470350D01*
X126878816Y-72452915D01*
X126917240Y-72374306D01*
X126921536Y-72365518D01*
X126931500Y-72297218D01*
X126931500Y-71055782D01*
X126923273Y-70999893D01*
X126922784Y-70996574D01*
X126922784Y-70996573D01*
X126921358Y-70986888D01*
X126879606Y-70901849D01*
X126874522Y-70891493D01*
X126874521Y-70891491D01*
X126869932Y-70882145D01*
X126787350Y-70799707D01*
X126682518Y-70748464D01*
X126648800Y-70743545D01*
X126618744Y-70739160D01*
X126618740Y-70739160D01*
X126614218Y-70738500D01*
X126247782Y-70738500D01*
X126243232Y-70739170D01*
X126243229Y-70739170D01*
X126188574Y-70747216D01*
X126188573Y-70747216D01*
X126178888Y-70748642D01*
X126148477Y-70763573D01*
X126115304Y-70779860D01*
X126045340Y-70791928D01*
X125979959Y-70764254D01*
X125970678Y-70755852D01*
X125925778Y-70710952D01*
X125891752Y-70648640D01*
X125896817Y-70577825D01*
X125924438Y-70534848D01*
X125927782Y-70532282D01*
X126024036Y-70406841D01*
X126084544Y-70260762D01*
X126105182Y-70104000D01*
X126084544Y-69947238D01*
X126024036Y-69801159D01*
X125927782Y-69675718D01*
X125802341Y-69579464D01*
X125665883Y-69522941D01*
X125663891Y-69522116D01*
X125656262Y-69518956D01*
X125499500Y-69498318D01*
X125342738Y-69518956D01*
X125335109Y-69522116D01*
X125333117Y-69522941D01*
X125277427Y-69546009D01*
X125274718Y-69547131D01*
X125204129Y-69554720D01*
X125140642Y-69522941D01*
X125104414Y-69461883D01*
X125100500Y-69430722D01*
X125100500Y-68398058D01*
X125114234Y-68340853D01*
X125116219Y-68336958D01*
X125116219Y-68336957D01*
X125120719Y-68328126D01*
X125136500Y-68228488D01*
X125136500Y-67661512D01*
X125120719Y-67561874D01*
X125059528Y-67441780D01*
X124964220Y-67346472D01*
X124965792Y-67344900D01*
X124930563Y-67299211D01*
X124924489Y-67228475D01*
X124957622Y-67165684D01*
X125019443Y-67130774D01*
X125047979Y-67127500D01*
X125275984Y-67127500D01*
X125344105Y-67147502D01*
X125365079Y-67164405D01*
X125918595Y-67717921D01*
X125952621Y-67780233D01*
X125955500Y-67807016D01*
X125955500Y-68228488D01*
X125971281Y-68328126D01*
X126032472Y-68448220D01*
X126101646Y-68517394D01*
X126135672Y-68579706D01*
X126130607Y-68650521D01*
X126112514Y-68683192D01*
X126086493Y-68717104D01*
X126086491Y-68717108D01*
X126081464Y-68723659D01*
X126059282Y-68777212D01*
X126025220Y-68859445D01*
X126020956Y-68869738D01*
X126000318Y-69026500D01*
X126020956Y-69183262D01*
X126081464Y-69329341D01*
X126177718Y-69454782D01*
X126303159Y-69551036D01*
X126449238Y-69611544D01*
X126606000Y-69632182D01*
X126672843Y-69623382D01*
X126742990Y-69634321D01*
X126778383Y-69659209D01*
X126843595Y-69724421D01*
X126877621Y-69786733D01*
X126880500Y-69813516D01*
X126880500Y-70422218D01*
X126881170Y-70426768D01*
X126881170Y-70426771D01*
X126889216Y-70481426D01*
X126890642Y-70491112D01*
X126904574Y-70519488D01*
X126933216Y-70577825D01*
X126942068Y-70595855D01*
X127024650Y-70678293D01*
X127129482Y-70729536D01*
X127159973Y-70733984D01*
X127193256Y-70738840D01*
X127193260Y-70738840D01*
X127197782Y-70739500D01*
X127564218Y-70739500D01*
X127568768Y-70738830D01*
X127568771Y-70738830D01*
X127623426Y-70730784D01*
X127623427Y-70730784D01*
X127633112Y-70729358D01*
X127683008Y-70704860D01*
X127728507Y-70682522D01*
X127728509Y-70682521D01*
X127737855Y-70677932D01*
X127820293Y-70595350D01*
X127828860Y-70577825D01*
X127857375Y-70519488D01*
X127871536Y-70490518D01*
X127877012Y-70452984D01*
X130576001Y-70452984D01*
X130576195Y-70457920D01*
X130578430Y-70486336D01*
X130580730Y-70498931D01*
X130623107Y-70644790D01*
X130629352Y-70659221D01*
X130705911Y-70788678D01*
X130715551Y-70801104D01*
X130821896Y-70907449D01*
X130834322Y-70917089D01*
X130963779Y-70993648D01*
X130978210Y-70999893D01*
X131112605Y-71038939D01*
X131126706Y-71038899D01*
X131130000Y-71031630D01*
X131130000Y-70073615D01*
X131125525Y-70058376D01*
X131124135Y-70057171D01*
X131116452Y-70055500D01*
X130594116Y-70055500D01*
X130578877Y-70059975D01*
X130577672Y-70061365D01*
X130576001Y-70069048D01*
X130576001Y-70452984D01*
X127877012Y-70452984D01*
X127881500Y-70422218D01*
X127881500Y-69529385D01*
X130576000Y-69529385D01*
X130580475Y-69544624D01*
X130581865Y-69545829D01*
X130589548Y-69547500D01*
X131111885Y-69547500D01*
X131127124Y-69543025D01*
X131128329Y-69541635D01*
X131130000Y-69533952D01*
X131130000Y-68577122D01*
X131126027Y-68563591D01*
X131118129Y-68562456D01*
X130978210Y-68603107D01*
X130963779Y-68609352D01*
X130834322Y-68685911D01*
X130821896Y-68695551D01*
X130715551Y-68801896D01*
X130705911Y-68814322D01*
X130629352Y-68943779D01*
X130623107Y-68958210D01*
X130580731Y-69104065D01*
X130578430Y-69116667D01*
X130576193Y-69145084D01*
X130576000Y-69150014D01*
X130576000Y-69529385D01*
X127881500Y-69529385D01*
X127881500Y-69180782D01*
X127872871Y-69122162D01*
X127872784Y-69121574D01*
X127872784Y-69121573D01*
X127871358Y-69111888D01*
X127859164Y-69087051D01*
X127847096Y-69017089D01*
X127877043Y-68949008D01*
X127900329Y-68922135D01*
X127902000Y-68914452D01*
X127902000Y-68909885D01*
X128410000Y-68909885D01*
X128414475Y-68925124D01*
X128415865Y-68926329D01*
X128423548Y-68928000D01*
X128426438Y-68928000D01*
X128432953Y-68927663D01*
X128525057Y-68918106D01*
X128538456Y-68915212D01*
X128687107Y-68865619D01*
X128700286Y-68859445D01*
X128833173Y-68777212D01*
X128844574Y-68768176D01*
X128954986Y-68657571D01*
X128963998Y-68646160D01*
X129046004Y-68513120D01*
X129052151Y-68499939D01*
X129101491Y-68351186D01*
X129104358Y-68337810D01*
X129113672Y-68246903D01*
X129114000Y-68240487D01*
X129114000Y-68217115D01*
X129109525Y-68201876D01*
X129108135Y-68200671D01*
X129100452Y-68199000D01*
X128428115Y-68199000D01*
X128412876Y-68203475D01*
X128411671Y-68204865D01*
X128410000Y-68212548D01*
X128410000Y-68909885D01*
X127902000Y-68909885D01*
X127902000Y-67672885D01*
X128410000Y-67672885D01*
X128414475Y-67688124D01*
X128415865Y-67689329D01*
X128423548Y-67691000D01*
X129095885Y-67691000D01*
X129111124Y-67686525D01*
X129112329Y-67685135D01*
X129114000Y-67677452D01*
X129114000Y-67649562D01*
X129113663Y-67643047D01*
X129104106Y-67550943D01*
X129101212Y-67537544D01*
X129051619Y-67388893D01*
X129045445Y-67375714D01*
X128963212Y-67242827D01*
X128954176Y-67231426D01*
X128843571Y-67121014D01*
X128832160Y-67112002D01*
X128699120Y-67029996D01*
X128685939Y-67023849D01*
X128537186Y-66974509D01*
X128523810Y-66971642D01*
X128432903Y-66962328D01*
X128427874Y-66962071D01*
X128412876Y-66966475D01*
X128411671Y-66967865D01*
X128410000Y-66975548D01*
X128410000Y-67672885D01*
X127902000Y-67672885D01*
X127902000Y-66980115D01*
X127897525Y-66964876D01*
X127896135Y-66963671D01*
X127888452Y-66962000D01*
X127885562Y-66962000D01*
X127879047Y-66962337D01*
X127786943Y-66971894D01*
X127773544Y-66974788D01*
X127624893Y-67024381D01*
X127611714Y-67030555D01*
X127478827Y-67112788D01*
X127467426Y-67121824D01*
X127357014Y-67232429D01*
X127348002Y-67243840D01*
X127291914Y-67334832D01*
X127239142Y-67382325D01*
X127169070Y-67393749D01*
X127103946Y-67365475D01*
X127095559Y-67357811D01*
X127084220Y-67346472D01*
X126964126Y-67285281D01*
X126954337Y-67283731D01*
X126954335Y-67283730D01*
X126924851Y-67279060D01*
X126864488Y-67269500D01*
X126443016Y-67269500D01*
X126374895Y-67249498D01*
X126353921Y-67232595D01*
X125957421Y-66836095D01*
X125923395Y-66773783D01*
X125928460Y-66702968D01*
X125971007Y-66646132D01*
X126037527Y-66621321D01*
X126046516Y-66621000D01*
X135945000Y-66621000D01*
X136013121Y-66641002D01*
X136059614Y-66694658D01*
X136071000Y-66747000D01*
X136071000Y-88955000D01*
X136050998Y-89023121D01*
X135997342Y-89069614D01*
X135945000Y-89081000D01*
X112467000Y-89081000D01*
X112398879Y-89060998D01*
X112352386Y-89007342D01*
X112341000Y-88955000D01*
X112341000Y-66747000D01*
X112361002Y-66678879D01*
X112414658Y-66632386D01*
X112467000Y-66621000D01*
X123495484Y-66621000D01*
X123563605Y-66641002D01*
G37*
%TD.AperFunction*%
%TD*%
M02*
