%TF.GenerationSoftware,KiCad,Pcbnew,6.0.2-1.fc35*%
%TF.CreationDate,2022-03-27T16:33:53-04:00*%
%TF.ProjectId,DeadTimeInsertionPCB,44656164-5469-46d6-9549-6e7365727469,rev?*%
%TF.SameCoordinates,Original*%
%TF.FileFunction,Legend,Bot*%
%TF.FilePolarity,Positive*%
%FSLAX46Y46*%
G04 Gerber Fmt 4.6, Leading zero omitted, Abs format (unit mm)*
G04 Created by KiCad (PCBNEW 6.0.2-1.fc35) date 2022-03-27 16:33:53*
%MOMM*%
%LPD*%
G01*
G04 APERTURE LIST*
%ADD10C,0.150000*%
%ADD11C,0.125000*%
G04 APERTURE END LIST*
D10*
X124841000Y-81661000D02*
X124841000Y-72009000D01*
X129540000Y-86741000D02*
X125095000Y-86741000D01*
X129540000Y-67056000D02*
X129540000Y-86741000D01*
X124714000Y-67056000D02*
X129540000Y-67056000D01*
X124714000Y-68199000D02*
X124714000Y-67056000D01*
X128397000Y-70104000D02*
X125857000Y-70104000D01*
X128397000Y-84201000D02*
X128397000Y-70104000D01*
X119634000Y-84201000D02*
X128397000Y-84201000D01*
X120142000Y-81661000D02*
X124841000Y-81661000D01*
X124079000Y-79121000D02*
X124079000Y-71628000D01*
X118618000Y-79121000D02*
X124079000Y-79121000D01*
X119761000Y-71501000D02*
X122224095Y-71501000D01*
X123139905Y-71501000D02*
G75*
G03*
X123139905Y-71501000I-457905J0D01*
G01*
X119888000Y-68961000D02*
X123317000Y-68961000D01*
X125857000Y-72517000D02*
X121031000Y-70104000D01*
X125857000Y-67691000D02*
X125857000Y-72517000D01*
X121031000Y-70104000D02*
X125857000Y-67691000D01*
D11*
X119253345Y-68515080D02*
X119102869Y-68515080D01*
X119027630Y-68552700D01*
X118952392Y-68627938D01*
X118914773Y-68778414D01*
X118914773Y-69041747D01*
X118952392Y-69192223D01*
X119027630Y-69267461D01*
X119102869Y-69305080D01*
X119253345Y-69305080D01*
X119328583Y-69267461D01*
X119403821Y-69192223D01*
X119441440Y-69041747D01*
X119441440Y-68778414D01*
X119403821Y-68627938D01*
X119328583Y-68552700D01*
X119253345Y-68515080D01*
X118576202Y-68515080D02*
X118576202Y-69154604D01*
X118538583Y-69229842D01*
X118500964Y-69267461D01*
X118425726Y-69305080D01*
X118275250Y-69305080D01*
X118200011Y-69267461D01*
X118162392Y-69229842D01*
X118124773Y-69154604D01*
X118124773Y-68515080D01*
X117861440Y-68515080D02*
X117410011Y-68515080D01*
X117635726Y-69305080D02*
X117635726Y-68515080D01*
X117334773Y-69380319D02*
X116732869Y-69380319D01*
X116544773Y-69305080D02*
X116544773Y-68515080D01*
X116544773Y-68891271D02*
X116093345Y-68891271D01*
X116093345Y-69305080D02*
X116093345Y-68515080D01*
X119065250Y-71058880D02*
X118914773Y-71058880D01*
X118839535Y-71096500D01*
X118764297Y-71171738D01*
X118726678Y-71322214D01*
X118726678Y-71585547D01*
X118764297Y-71736023D01*
X118839535Y-71811261D01*
X118914773Y-71848880D01*
X119065250Y-71848880D01*
X119140488Y-71811261D01*
X119215726Y-71736023D01*
X119253345Y-71585547D01*
X119253345Y-71322214D01*
X119215726Y-71171738D01*
X119140488Y-71096500D01*
X119065250Y-71058880D01*
X118388107Y-71058880D02*
X118388107Y-71698404D01*
X118350488Y-71773642D01*
X118312869Y-71811261D01*
X118237630Y-71848880D01*
X118087154Y-71848880D01*
X118011916Y-71811261D01*
X117974297Y-71773642D01*
X117936678Y-71698404D01*
X117936678Y-71058880D01*
X117673345Y-71058880D02*
X117221916Y-71058880D01*
X117447630Y-71848880D02*
X117447630Y-71058880D01*
X117146678Y-71924119D02*
X116544773Y-71924119D01*
X115980488Y-71848880D02*
X116356678Y-71848880D01*
X116356678Y-71058880D01*
X117710964Y-73640300D02*
X117786202Y-73602680D01*
X117899059Y-73602680D01*
X118011916Y-73640300D01*
X118087154Y-73715538D01*
X118124773Y-73790776D01*
X118162392Y-73941252D01*
X118162392Y-74054109D01*
X118124773Y-74204585D01*
X118087154Y-74279823D01*
X118011916Y-74355061D01*
X117899059Y-74392680D01*
X117823821Y-74392680D01*
X117710964Y-74355061D01*
X117673345Y-74317442D01*
X117673345Y-74054109D01*
X117823821Y-74054109D01*
X117334773Y-74392680D02*
X117334773Y-73602680D01*
X116883345Y-74392680D01*
X116883345Y-73602680D01*
X116507154Y-74392680D02*
X116507154Y-73602680D01*
X116319059Y-73602680D01*
X116206202Y-73640300D01*
X116130964Y-73715538D01*
X116093345Y-73790776D01*
X116055726Y-73941252D01*
X116055726Y-74054109D01*
X116093345Y-74204585D01*
X116130964Y-74279823D01*
X116206202Y-74355061D01*
X116319059Y-74392680D01*
X116507154Y-74392680D01*
X118087154Y-76146480D02*
X117823821Y-76936480D01*
X117560488Y-76146480D01*
X116845726Y-76861242D02*
X116883345Y-76898861D01*
X116996202Y-76936480D01*
X117071440Y-76936480D01*
X117184297Y-76898861D01*
X117259535Y-76823623D01*
X117297154Y-76748385D01*
X117334773Y-76597909D01*
X117334773Y-76485052D01*
X117297154Y-76334576D01*
X117259535Y-76259338D01*
X117184297Y-76184100D01*
X117071440Y-76146480D01*
X116996202Y-76146480D01*
X116883345Y-76184100D01*
X116845726Y-76221719D01*
X116055726Y-76861242D02*
X116093345Y-76898861D01*
X116206202Y-76936480D01*
X116281440Y-76936480D01*
X116394297Y-76898861D01*
X116469535Y-76823623D01*
X116507154Y-76748385D01*
X116544773Y-76597909D01*
X116544773Y-76485052D01*
X116507154Y-76334576D01*
X116469535Y-76259338D01*
X116394297Y-76184100D01*
X116281440Y-76146480D01*
X116206202Y-76146480D01*
X116093345Y-76184100D01*
X116055726Y-76221719D01*
X117936678Y-79179328D02*
X117899059Y-79141709D01*
X117823821Y-79104090D01*
X117673345Y-79179328D01*
X117598107Y-79141709D01*
X117560488Y-79104090D01*
X117259535Y-79066471D02*
X116996202Y-79066471D01*
X116883345Y-79480280D02*
X117259535Y-79480280D01*
X117259535Y-78690280D01*
X116883345Y-78690280D01*
X116544773Y-79480280D02*
X116544773Y-78690280D01*
X116093345Y-79480280D01*
X116093345Y-78690280D01*
X119704773Y-82024080D02*
X119704773Y-81234080D01*
X119328583Y-82024080D02*
X119328583Y-81234080D01*
X118877154Y-82024080D01*
X118877154Y-81234080D01*
X118613821Y-81234080D02*
X118350488Y-82024080D01*
X118087154Y-81234080D01*
X117823821Y-81610271D02*
X117560488Y-81610271D01*
X117447630Y-82024080D02*
X117823821Y-82024080D01*
X117823821Y-81234080D01*
X117447630Y-81234080D01*
X116657630Y-82024080D02*
X116920964Y-81647890D01*
X117109059Y-82024080D02*
X117109059Y-81234080D01*
X116808107Y-81234080D01*
X116732869Y-81271700D01*
X116695250Y-81309319D01*
X116657630Y-81384557D01*
X116657630Y-81497414D01*
X116695250Y-81572652D01*
X116732869Y-81610271D01*
X116808107Y-81647890D01*
X117109059Y-81647890D01*
X116431916Y-81234080D02*
X115980488Y-81234080D01*
X116206202Y-82024080D02*
X116206202Y-81234080D01*
X119140488Y-84567880D02*
X119140488Y-83777880D01*
X118764297Y-84567880D02*
X118764297Y-83777880D01*
X118312869Y-84567880D01*
X118312869Y-83777880D01*
X117936678Y-84567880D02*
X117936678Y-83777880D01*
X117635726Y-83777880D01*
X117560488Y-83815500D01*
X117522869Y-83853119D01*
X117485250Y-83928357D01*
X117485250Y-84041214D01*
X117522869Y-84116452D01*
X117560488Y-84154071D01*
X117635726Y-84191690D01*
X117936678Y-84191690D01*
X117146678Y-83777880D02*
X117146678Y-84417404D01*
X117109059Y-84492642D01*
X117071440Y-84530261D01*
X116996202Y-84567880D01*
X116845726Y-84567880D01*
X116770488Y-84530261D01*
X116732869Y-84492642D01*
X116695250Y-84417404D01*
X116695250Y-83777880D01*
X116431916Y-83777880D02*
X115980488Y-83777880D01*
X116206202Y-84567880D02*
X116206202Y-83777880D01*
X124708107Y-87111680D02*
X124708107Y-86321680D01*
X124520011Y-86321680D01*
X124407154Y-86359300D01*
X124331916Y-86434538D01*
X124294297Y-86509776D01*
X124256678Y-86660252D01*
X124256678Y-86773109D01*
X124294297Y-86923585D01*
X124331916Y-86998823D01*
X124407154Y-87074061D01*
X124520011Y-87111680D01*
X124708107Y-87111680D01*
X123918107Y-86697871D02*
X123654773Y-86697871D01*
X123541916Y-87111680D02*
X123918107Y-87111680D01*
X123918107Y-86321680D01*
X123541916Y-86321680D01*
X123240964Y-86885966D02*
X122864773Y-86885966D01*
X123316202Y-87111680D02*
X123052869Y-86321680D01*
X122789535Y-87111680D01*
X122526202Y-87111680D02*
X122526202Y-86321680D01*
X122338107Y-86321680D01*
X122225250Y-86359300D01*
X122150011Y-86434538D01*
X122112392Y-86509776D01*
X122074773Y-86660252D01*
X122074773Y-86773109D01*
X122112392Y-86923585D01*
X122150011Y-86998823D01*
X122225250Y-87074061D01*
X122338107Y-87111680D01*
X122526202Y-87111680D01*
X121849059Y-86321680D02*
X121397630Y-86321680D01*
X121623345Y-87111680D02*
X121623345Y-86321680D01*
X121134297Y-87111680D02*
X121134297Y-86321680D01*
X120758107Y-87111680D02*
X120758107Y-86321680D01*
X120494773Y-86885966D01*
X120231440Y-86321680D01*
X120231440Y-87111680D01*
X119855250Y-86697871D02*
X119591916Y-86697871D01*
X119479059Y-87111680D02*
X119855250Y-87111680D01*
X119855250Y-86321680D01*
X119479059Y-86321680D01*
X119328583Y-87186919D02*
X118726678Y-87186919D01*
X118087154Y-87036442D02*
X118124773Y-87074061D01*
X118237630Y-87111680D01*
X118312869Y-87111680D01*
X118425726Y-87074061D01*
X118500964Y-86998823D01*
X118538583Y-86923585D01*
X118576202Y-86773109D01*
X118576202Y-86660252D01*
X118538583Y-86509776D01*
X118500964Y-86434538D01*
X118425726Y-86359300D01*
X118312869Y-86321680D01*
X118237630Y-86321680D01*
X118124773Y-86359300D01*
X118087154Y-86396919D01*
X117861440Y-86321680D02*
X117410011Y-86321680D01*
X117635726Y-87111680D02*
X117635726Y-86321680D01*
X116695250Y-87111680D02*
X116958583Y-86735490D01*
X117146678Y-87111680D02*
X117146678Y-86321680D01*
X116845726Y-86321680D01*
X116770488Y-86359300D01*
X116732869Y-86396919D01*
X116695250Y-86472157D01*
X116695250Y-86585014D01*
X116732869Y-86660252D01*
X116770488Y-86697871D01*
X116845726Y-86735490D01*
X117146678Y-86735490D01*
X115980488Y-87111680D02*
X116356678Y-87111680D01*
X116356678Y-86321680D01*
M02*
