%TF.GenerationSoftware,KiCad,Pcbnew,8.0.6-1.fc41*%
%TF.CreationDate,2024-11-10T15:40:55-05:00*%
%TF.ProjectId,Dead-Time-Insertion-PCB,44656164-2d54-4696-9d65-2d496e736572,rev?*%
%TF.SameCoordinates,Original*%
%TF.FileFunction,Legend,Bot*%
%TF.FilePolarity,Positive*%
%FSLAX46Y46*%
G04 Gerber Fmt 4.6, Leading zero omitted, Abs format (unit mm)*
G04 Created by KiCad (PCBNEW 8.0.6-1.fc41) date 2024-11-10 15:40:55*
%MOMM*%
%LPD*%
G01*
G04 APERTURE LIST*
%ADD10C,0.150000*%
%ADD11C,0.125000*%
G04 APERTURE END LIST*
D10*
X31110000Y-39017000D02*
X37472000Y-39017000D01*
X37472000Y-39017000D02*
X37472000Y-31524000D01*
X41790000Y-44097000D02*
X41790000Y-30000000D01*
X33535000Y-41557000D02*
X38234000Y-41557000D01*
X34424000Y-30000000D02*
X39250000Y-27587000D01*
X37750000Y-28250000D02*
X37750000Y-27000000D01*
X37750000Y-27000000D02*
X43000000Y-27000000D01*
X38234000Y-41557000D02*
X38234000Y-31905000D01*
X33281000Y-28857000D02*
X36710000Y-28857000D01*
X33154000Y-31397000D02*
X35617095Y-31397000D01*
X36532905Y-31397000D02*
G75*
G02*
X35617095Y-31397000I-457905J0D01*
G01*
X35617095Y-31397000D02*
G75*
G02*
X36532905Y-31397000I457905J0D01*
G01*
X33027000Y-44097000D02*
X41790000Y-44097000D01*
X39250000Y-32413000D02*
X34424000Y-30000000D01*
X41790000Y-30000000D02*
X39250000Y-30000000D01*
X43000000Y-46500000D02*
X38488000Y-46500000D01*
X39250000Y-27587000D02*
X39250000Y-32413000D01*
X43000000Y-27000000D02*
X43000000Y-46500000D01*
D11*
X32647331Y-28322977D02*
X32496855Y-28322977D01*
X32496855Y-28322977D02*
X32421617Y-28360596D01*
X32421617Y-28360596D02*
X32346379Y-28435834D01*
X32346379Y-28435834D02*
X32308760Y-28586310D01*
X32308760Y-28586310D02*
X32308760Y-28849643D01*
X32308760Y-28849643D02*
X32346379Y-29000119D01*
X32346379Y-29000119D02*
X32421617Y-29075358D01*
X32421617Y-29075358D02*
X32496855Y-29112977D01*
X32496855Y-29112977D02*
X32647331Y-29112977D01*
X32647331Y-29112977D02*
X32722569Y-29075358D01*
X32722569Y-29075358D02*
X32797807Y-29000119D01*
X32797807Y-29000119D02*
X32835426Y-28849643D01*
X32835426Y-28849643D02*
X32835426Y-28586310D01*
X32835426Y-28586310D02*
X32797807Y-28435834D01*
X32797807Y-28435834D02*
X32722569Y-28360596D01*
X32722569Y-28360596D02*
X32647331Y-28322977D01*
X31970188Y-28322977D02*
X31970188Y-28962500D01*
X31970188Y-28962500D02*
X31932569Y-29037738D01*
X31932569Y-29037738D02*
X31894950Y-29075358D01*
X31894950Y-29075358D02*
X31819712Y-29112977D01*
X31819712Y-29112977D02*
X31669236Y-29112977D01*
X31669236Y-29112977D02*
X31593998Y-29075358D01*
X31593998Y-29075358D02*
X31556379Y-29037738D01*
X31556379Y-29037738D02*
X31518760Y-28962500D01*
X31518760Y-28962500D02*
X31518760Y-28322977D01*
X31255426Y-28322977D02*
X30803998Y-28322977D01*
X31029712Y-29112977D02*
X31029712Y-28322977D01*
X30728760Y-29188215D02*
X30126855Y-29188215D01*
X29938759Y-29112977D02*
X29938759Y-28322977D01*
X29938759Y-28699167D02*
X29487331Y-28699167D01*
X29487331Y-29112977D02*
X29487331Y-28322977D01*
X32459236Y-30866689D02*
X32308760Y-30866689D01*
X32308760Y-30866689D02*
X32233522Y-30904308D01*
X32233522Y-30904308D02*
X32158284Y-30979546D01*
X32158284Y-30979546D02*
X32120665Y-31130022D01*
X32120665Y-31130022D02*
X32120665Y-31393355D01*
X32120665Y-31393355D02*
X32158284Y-31543831D01*
X32158284Y-31543831D02*
X32233522Y-31619070D01*
X32233522Y-31619070D02*
X32308760Y-31656689D01*
X32308760Y-31656689D02*
X32459236Y-31656689D01*
X32459236Y-31656689D02*
X32534474Y-31619070D01*
X32534474Y-31619070D02*
X32609712Y-31543831D01*
X32609712Y-31543831D02*
X32647331Y-31393355D01*
X32647331Y-31393355D02*
X32647331Y-31130022D01*
X32647331Y-31130022D02*
X32609712Y-30979546D01*
X32609712Y-30979546D02*
X32534474Y-30904308D01*
X32534474Y-30904308D02*
X32459236Y-30866689D01*
X31782093Y-30866689D02*
X31782093Y-31506212D01*
X31782093Y-31506212D02*
X31744474Y-31581450D01*
X31744474Y-31581450D02*
X31706855Y-31619070D01*
X31706855Y-31619070D02*
X31631617Y-31656689D01*
X31631617Y-31656689D02*
X31481141Y-31656689D01*
X31481141Y-31656689D02*
X31405903Y-31619070D01*
X31405903Y-31619070D02*
X31368284Y-31581450D01*
X31368284Y-31581450D02*
X31330665Y-31506212D01*
X31330665Y-31506212D02*
X31330665Y-30866689D01*
X31067331Y-30866689D02*
X30615903Y-30866689D01*
X30841617Y-31656689D02*
X30841617Y-30866689D01*
X30540665Y-31731927D02*
X29938760Y-31731927D01*
X29374474Y-31656689D02*
X29750664Y-31656689D01*
X29750664Y-31656689D02*
X29750664Y-30866689D01*
X31104950Y-33448020D02*
X31180188Y-33410401D01*
X31180188Y-33410401D02*
X31293045Y-33410401D01*
X31293045Y-33410401D02*
X31405902Y-33448020D01*
X31405902Y-33448020D02*
X31481140Y-33523258D01*
X31481140Y-33523258D02*
X31518759Y-33598496D01*
X31518759Y-33598496D02*
X31556378Y-33748972D01*
X31556378Y-33748972D02*
X31556378Y-33861829D01*
X31556378Y-33861829D02*
X31518759Y-34012305D01*
X31518759Y-34012305D02*
X31481140Y-34087543D01*
X31481140Y-34087543D02*
X31405902Y-34162782D01*
X31405902Y-34162782D02*
X31293045Y-34200401D01*
X31293045Y-34200401D02*
X31217807Y-34200401D01*
X31217807Y-34200401D02*
X31104950Y-34162782D01*
X31104950Y-34162782D02*
X31067331Y-34125162D01*
X31067331Y-34125162D02*
X31067331Y-33861829D01*
X31067331Y-33861829D02*
X31217807Y-33861829D01*
X30728759Y-34200401D02*
X30728759Y-33410401D01*
X30728759Y-33410401D02*
X30277331Y-34200401D01*
X30277331Y-34200401D02*
X30277331Y-33410401D01*
X29901140Y-34200401D02*
X29901140Y-33410401D01*
X29901140Y-33410401D02*
X29713045Y-33410401D01*
X29713045Y-33410401D02*
X29600188Y-33448020D01*
X29600188Y-33448020D02*
X29524950Y-33523258D01*
X29524950Y-33523258D02*
X29487331Y-33598496D01*
X29487331Y-33598496D02*
X29449712Y-33748972D01*
X29449712Y-33748972D02*
X29449712Y-33861829D01*
X29449712Y-33861829D02*
X29487331Y-34012305D01*
X29487331Y-34012305D02*
X29524950Y-34087543D01*
X29524950Y-34087543D02*
X29600188Y-34162782D01*
X29600188Y-34162782D02*
X29713045Y-34200401D01*
X29713045Y-34200401D02*
X29901140Y-34200401D01*
X31481140Y-35954113D02*
X31217807Y-36744113D01*
X31217807Y-36744113D02*
X30954474Y-35954113D01*
X30239712Y-36668874D02*
X30277331Y-36706494D01*
X30277331Y-36706494D02*
X30390188Y-36744113D01*
X30390188Y-36744113D02*
X30465426Y-36744113D01*
X30465426Y-36744113D02*
X30578283Y-36706494D01*
X30578283Y-36706494D02*
X30653521Y-36631255D01*
X30653521Y-36631255D02*
X30691140Y-36556017D01*
X30691140Y-36556017D02*
X30728759Y-36405541D01*
X30728759Y-36405541D02*
X30728759Y-36292684D01*
X30728759Y-36292684D02*
X30691140Y-36142208D01*
X30691140Y-36142208D02*
X30653521Y-36066970D01*
X30653521Y-36066970D02*
X30578283Y-35991732D01*
X30578283Y-35991732D02*
X30465426Y-35954113D01*
X30465426Y-35954113D02*
X30390188Y-35954113D01*
X30390188Y-35954113D02*
X30277331Y-35991732D01*
X30277331Y-35991732D02*
X30239712Y-36029351D01*
X29449712Y-36668874D02*
X29487331Y-36706494D01*
X29487331Y-36706494D02*
X29600188Y-36744113D01*
X29600188Y-36744113D02*
X29675426Y-36744113D01*
X29675426Y-36744113D02*
X29788283Y-36706494D01*
X29788283Y-36706494D02*
X29863521Y-36631255D01*
X29863521Y-36631255D02*
X29901140Y-36556017D01*
X29901140Y-36556017D02*
X29938759Y-36405541D01*
X29938759Y-36405541D02*
X29938759Y-36292684D01*
X29938759Y-36292684D02*
X29901140Y-36142208D01*
X29901140Y-36142208D02*
X29863521Y-36066970D01*
X29863521Y-36066970D02*
X29788283Y-35991732D01*
X29788283Y-35991732D02*
X29675426Y-35954113D01*
X29675426Y-35954113D02*
X29600188Y-35954113D01*
X29600188Y-35954113D02*
X29487331Y-35991732D01*
X29487331Y-35991732D02*
X29449712Y-36029351D01*
X30653521Y-38874015D02*
X30390188Y-38874015D01*
X30277331Y-39287825D02*
X30653521Y-39287825D01*
X30653521Y-39287825D02*
X30653521Y-38497825D01*
X30653521Y-38497825D02*
X30277331Y-38497825D01*
X29938759Y-39287825D02*
X29938759Y-38497825D01*
X29938759Y-38497825D02*
X29487331Y-39287825D01*
X29487331Y-39287825D02*
X29487331Y-38497825D01*
X30762617Y-38278506D02*
X29378236Y-38278506D01*
X33098759Y-41831537D02*
X33098759Y-41041537D01*
X32722569Y-41831537D02*
X32722569Y-41041537D01*
X32722569Y-41041537D02*
X32271141Y-41831537D01*
X32271141Y-41831537D02*
X32271141Y-41041537D01*
X32007807Y-41041537D02*
X31744474Y-41831537D01*
X31744474Y-41831537D02*
X31481141Y-41041537D01*
X31217807Y-41417727D02*
X30954474Y-41417727D01*
X30841617Y-41831537D02*
X31217807Y-41831537D01*
X31217807Y-41831537D02*
X31217807Y-41041537D01*
X31217807Y-41041537D02*
X30841617Y-41041537D01*
X30051617Y-41831537D02*
X30314950Y-41455346D01*
X30503045Y-41831537D02*
X30503045Y-41041537D01*
X30503045Y-41041537D02*
X30202093Y-41041537D01*
X30202093Y-41041537D02*
X30126855Y-41079156D01*
X30126855Y-41079156D02*
X30089236Y-41116775D01*
X30089236Y-41116775D02*
X30051617Y-41192013D01*
X30051617Y-41192013D02*
X30051617Y-41304870D01*
X30051617Y-41304870D02*
X30089236Y-41380108D01*
X30089236Y-41380108D02*
X30126855Y-41417727D01*
X30126855Y-41417727D02*
X30202093Y-41455346D01*
X30202093Y-41455346D02*
X30503045Y-41455346D01*
X29825902Y-41041537D02*
X29374474Y-41041537D01*
X29600188Y-41831537D02*
X29600188Y-41041537D01*
X32534473Y-44375249D02*
X32534473Y-43585249D01*
X32158283Y-44375249D02*
X32158283Y-43585249D01*
X32158283Y-43585249D02*
X31706855Y-44375249D01*
X31706855Y-44375249D02*
X31706855Y-43585249D01*
X31330664Y-44375249D02*
X31330664Y-43585249D01*
X31330664Y-43585249D02*
X31029712Y-43585249D01*
X31029712Y-43585249D02*
X30954474Y-43622868D01*
X30954474Y-43622868D02*
X30916855Y-43660487D01*
X30916855Y-43660487D02*
X30879236Y-43735725D01*
X30879236Y-43735725D02*
X30879236Y-43848582D01*
X30879236Y-43848582D02*
X30916855Y-43923820D01*
X30916855Y-43923820D02*
X30954474Y-43961439D01*
X30954474Y-43961439D02*
X31029712Y-43999058D01*
X31029712Y-43999058D02*
X31330664Y-43999058D01*
X30540664Y-43585249D02*
X30540664Y-44224772D01*
X30540664Y-44224772D02*
X30503045Y-44300010D01*
X30503045Y-44300010D02*
X30465426Y-44337630D01*
X30465426Y-44337630D02*
X30390188Y-44375249D01*
X30390188Y-44375249D02*
X30239712Y-44375249D01*
X30239712Y-44375249D02*
X30164474Y-44337630D01*
X30164474Y-44337630D02*
X30126855Y-44300010D01*
X30126855Y-44300010D02*
X30089236Y-44224772D01*
X30089236Y-44224772D02*
X30089236Y-43585249D01*
X29825902Y-43585249D02*
X29374474Y-43585249D01*
X29600188Y-44375249D02*
X29600188Y-43585249D01*
X38102093Y-46918961D02*
X38102093Y-46128961D01*
X38102093Y-46128961D02*
X37913998Y-46128961D01*
X37913998Y-46128961D02*
X37801141Y-46166580D01*
X37801141Y-46166580D02*
X37725903Y-46241818D01*
X37725903Y-46241818D02*
X37688284Y-46317056D01*
X37688284Y-46317056D02*
X37650665Y-46467532D01*
X37650665Y-46467532D02*
X37650665Y-46580389D01*
X37650665Y-46580389D02*
X37688284Y-46730865D01*
X37688284Y-46730865D02*
X37725903Y-46806103D01*
X37725903Y-46806103D02*
X37801141Y-46881342D01*
X37801141Y-46881342D02*
X37913998Y-46918961D01*
X37913998Y-46918961D02*
X38102093Y-46918961D01*
X37312093Y-46505151D02*
X37048760Y-46505151D01*
X36935903Y-46918961D02*
X37312093Y-46918961D01*
X37312093Y-46918961D02*
X37312093Y-46128961D01*
X37312093Y-46128961D02*
X36935903Y-46128961D01*
X36634950Y-46693246D02*
X36258760Y-46693246D01*
X36710188Y-46918961D02*
X36446855Y-46128961D01*
X36446855Y-46128961D02*
X36183522Y-46918961D01*
X35920188Y-46918961D02*
X35920188Y-46128961D01*
X35920188Y-46128961D02*
X35732093Y-46128961D01*
X35732093Y-46128961D02*
X35619236Y-46166580D01*
X35619236Y-46166580D02*
X35543998Y-46241818D01*
X35543998Y-46241818D02*
X35506379Y-46317056D01*
X35506379Y-46317056D02*
X35468760Y-46467532D01*
X35468760Y-46467532D02*
X35468760Y-46580389D01*
X35468760Y-46580389D02*
X35506379Y-46730865D01*
X35506379Y-46730865D02*
X35543998Y-46806103D01*
X35543998Y-46806103D02*
X35619236Y-46881342D01*
X35619236Y-46881342D02*
X35732093Y-46918961D01*
X35732093Y-46918961D02*
X35920188Y-46918961D01*
X35243045Y-46128961D02*
X34791617Y-46128961D01*
X35017331Y-46918961D02*
X35017331Y-46128961D01*
X34528283Y-46918961D02*
X34528283Y-46128961D01*
X34152093Y-46918961D02*
X34152093Y-46128961D01*
X34152093Y-46128961D02*
X33888760Y-46693246D01*
X33888760Y-46693246D02*
X33625427Y-46128961D01*
X33625427Y-46128961D02*
X33625427Y-46918961D01*
X33249236Y-46505151D02*
X32985903Y-46505151D01*
X32873046Y-46918961D02*
X33249236Y-46918961D01*
X33249236Y-46918961D02*
X33249236Y-46128961D01*
X33249236Y-46128961D02*
X32873046Y-46128961D01*
X32722570Y-46994199D02*
X32120665Y-46994199D01*
X31481141Y-46843722D02*
X31518760Y-46881342D01*
X31518760Y-46881342D02*
X31631617Y-46918961D01*
X31631617Y-46918961D02*
X31706855Y-46918961D01*
X31706855Y-46918961D02*
X31819712Y-46881342D01*
X31819712Y-46881342D02*
X31894950Y-46806103D01*
X31894950Y-46806103D02*
X31932569Y-46730865D01*
X31932569Y-46730865D02*
X31970188Y-46580389D01*
X31970188Y-46580389D02*
X31970188Y-46467532D01*
X31970188Y-46467532D02*
X31932569Y-46317056D01*
X31932569Y-46317056D02*
X31894950Y-46241818D01*
X31894950Y-46241818D02*
X31819712Y-46166580D01*
X31819712Y-46166580D02*
X31706855Y-46128961D01*
X31706855Y-46128961D02*
X31631617Y-46128961D01*
X31631617Y-46128961D02*
X31518760Y-46166580D01*
X31518760Y-46166580D02*
X31481141Y-46204199D01*
X31255426Y-46128961D02*
X30803998Y-46128961D01*
X31029712Y-46918961D02*
X31029712Y-46128961D01*
X30089236Y-46918961D02*
X30352569Y-46542770D01*
X30540664Y-46918961D02*
X30540664Y-46128961D01*
X30540664Y-46128961D02*
X30239712Y-46128961D01*
X30239712Y-46128961D02*
X30164474Y-46166580D01*
X30164474Y-46166580D02*
X30126855Y-46204199D01*
X30126855Y-46204199D02*
X30089236Y-46279437D01*
X30089236Y-46279437D02*
X30089236Y-46392294D01*
X30089236Y-46392294D02*
X30126855Y-46467532D01*
X30126855Y-46467532D02*
X30164474Y-46505151D01*
X30164474Y-46505151D02*
X30239712Y-46542770D01*
X30239712Y-46542770D02*
X30540664Y-46542770D01*
X29374474Y-46918961D02*
X29750664Y-46918961D01*
X29750664Y-46918961D02*
X29750664Y-46128961D01*
M02*
