%TF.GenerationSoftware,KiCad,Pcbnew,8.0.6-1.fc41*%
%TF.CreationDate,2024-11-09T22:52:13-05:00*%
%TF.ProjectId,Dead-Time-Insertion-PCB,44656164-2d54-4696-9d65-2d496e736572,rev?*%
%TF.SameCoordinates,Original*%
%TF.FileFunction,Legend,Top*%
%TF.FilePolarity,Positive*%
%FSLAX46Y46*%
G04 Gerber Fmt 4.6, Leading zero omitted, Abs format (unit mm)*
G04 Created by KiCad (PCBNEW 8.0.6-1.fc41) date 2024-11-09 22:52:13*
%MOMM*%
%LPD*%
G01*
G04 APERTURE LIST*
%ADD10C,0.150000*%
%ADD11C,0.120000*%
G04 APERTURE END LIST*
D10*
X116675819Y-68278333D02*
X117390104Y-68278333D01*
X117390104Y-68278333D02*
X117532961Y-68325952D01*
X117532961Y-68325952D02*
X117628200Y-68421190D01*
X117628200Y-68421190D02*
X117675819Y-68564047D01*
X117675819Y-68564047D02*
X117675819Y-68659285D01*
X117675819Y-67278333D02*
X117675819Y-67849761D01*
X117675819Y-67564047D02*
X116675819Y-67564047D01*
X116675819Y-67564047D02*
X116818676Y-67659285D01*
X116818676Y-67659285D02*
X116913914Y-67754523D01*
X116913914Y-67754523D02*
X116961533Y-67849761D01*
X118738095Y-71954819D02*
X118738095Y-72764342D01*
X118738095Y-72764342D02*
X118785714Y-72859580D01*
X118785714Y-72859580D02*
X118833333Y-72907200D01*
X118833333Y-72907200D02*
X118928571Y-72954819D01*
X118928571Y-72954819D02*
X119119047Y-72954819D01*
X119119047Y-72954819D02*
X119214285Y-72907200D01*
X119214285Y-72907200D02*
X119261904Y-72859580D01*
X119261904Y-72859580D02*
X119309523Y-72764342D01*
X119309523Y-72764342D02*
X119309523Y-71954819D01*
X119738095Y-72050057D02*
X119785714Y-72002438D01*
X119785714Y-72002438D02*
X119880952Y-71954819D01*
X119880952Y-71954819D02*
X120119047Y-71954819D01*
X120119047Y-71954819D02*
X120214285Y-72002438D01*
X120214285Y-72002438D02*
X120261904Y-72050057D01*
X120261904Y-72050057D02*
X120309523Y-72145295D01*
X120309523Y-72145295D02*
X120309523Y-72240533D01*
X120309523Y-72240533D02*
X120261904Y-72383390D01*
X120261904Y-72383390D02*
X119690476Y-72954819D01*
X119690476Y-72954819D02*
X120309523Y-72954819D01*
X124823580Y-67848166D02*
X124871200Y-67895785D01*
X124871200Y-67895785D02*
X124918819Y-68038642D01*
X124918819Y-68038642D02*
X124918819Y-68133880D01*
X124918819Y-68133880D02*
X124871200Y-68276737D01*
X124871200Y-68276737D02*
X124775961Y-68371975D01*
X124775961Y-68371975D02*
X124680723Y-68419594D01*
X124680723Y-68419594D02*
X124490247Y-68467213D01*
X124490247Y-68467213D02*
X124347390Y-68467213D01*
X124347390Y-68467213D02*
X124156914Y-68419594D01*
X124156914Y-68419594D02*
X124061676Y-68371975D01*
X124061676Y-68371975D02*
X123966438Y-68276737D01*
X123966438Y-68276737D02*
X123918819Y-68133880D01*
X123918819Y-68133880D02*
X123918819Y-68038642D01*
X123918819Y-68038642D02*
X123966438Y-67895785D01*
X123966438Y-67895785D02*
X124014057Y-67848166D01*
X123918819Y-67514832D02*
X123918819Y-66848166D01*
X123918819Y-66848166D02*
X124918819Y-67276737D01*
X137090057Y-84032738D02*
X137042438Y-84127976D01*
X137042438Y-84127976D02*
X136947200Y-84223214D01*
X136947200Y-84223214D02*
X136804342Y-84366071D01*
X136804342Y-84366071D02*
X136756723Y-84461309D01*
X136756723Y-84461309D02*
X136756723Y-84556547D01*
X136994819Y-84508928D02*
X136947200Y-84604166D01*
X136947200Y-84604166D02*
X136851961Y-84699404D01*
X136851961Y-84699404D02*
X136661485Y-84747023D01*
X136661485Y-84747023D02*
X136328152Y-84747023D01*
X136328152Y-84747023D02*
X136137676Y-84699404D01*
X136137676Y-84699404D02*
X136042438Y-84604166D01*
X136042438Y-84604166D02*
X135994819Y-84508928D01*
X135994819Y-84508928D02*
X135994819Y-84318452D01*
X135994819Y-84318452D02*
X136042438Y-84223214D01*
X136042438Y-84223214D02*
X136137676Y-84127976D01*
X136137676Y-84127976D02*
X136328152Y-84080357D01*
X136328152Y-84080357D02*
X136661485Y-84080357D01*
X136661485Y-84080357D02*
X136851961Y-84127976D01*
X136851961Y-84127976D02*
X136947200Y-84223214D01*
X136947200Y-84223214D02*
X136994819Y-84318452D01*
X136994819Y-84318452D02*
X136994819Y-84508928D01*
X136090057Y-83699404D02*
X136042438Y-83651785D01*
X136042438Y-83651785D02*
X135994819Y-83556547D01*
X135994819Y-83556547D02*
X135994819Y-83318452D01*
X135994819Y-83318452D02*
X136042438Y-83223214D01*
X136042438Y-83223214D02*
X136090057Y-83175595D01*
X136090057Y-83175595D02*
X136185295Y-83127976D01*
X136185295Y-83127976D02*
X136280533Y-83127976D01*
X136280533Y-83127976D02*
X136423390Y-83175595D01*
X136423390Y-83175595D02*
X136994819Y-83747023D01*
X136994819Y-83747023D02*
X136994819Y-83127976D01*
X131110057Y-83524738D02*
X131062438Y-83619976D01*
X131062438Y-83619976D02*
X130967200Y-83715214D01*
X130967200Y-83715214D02*
X130824342Y-83858071D01*
X130824342Y-83858071D02*
X130776723Y-83953309D01*
X130776723Y-83953309D02*
X130776723Y-84048547D01*
X131014819Y-84000928D02*
X130967200Y-84096166D01*
X130967200Y-84096166D02*
X130871961Y-84191404D01*
X130871961Y-84191404D02*
X130681485Y-84239023D01*
X130681485Y-84239023D02*
X130348152Y-84239023D01*
X130348152Y-84239023D02*
X130157676Y-84191404D01*
X130157676Y-84191404D02*
X130062438Y-84096166D01*
X130062438Y-84096166D02*
X130014819Y-84000928D01*
X130014819Y-84000928D02*
X130014819Y-83810452D01*
X130014819Y-83810452D02*
X130062438Y-83715214D01*
X130062438Y-83715214D02*
X130157676Y-83619976D01*
X130157676Y-83619976D02*
X130348152Y-83572357D01*
X130348152Y-83572357D02*
X130681485Y-83572357D01*
X130681485Y-83572357D02*
X130871961Y-83619976D01*
X130871961Y-83619976D02*
X130967200Y-83715214D01*
X130967200Y-83715214D02*
X131014819Y-83810452D01*
X131014819Y-83810452D02*
X131014819Y-84000928D01*
X130348152Y-82715214D02*
X131014819Y-82715214D01*
X129967200Y-82953309D02*
X130681485Y-83191404D01*
X130681485Y-83191404D02*
X130681485Y-82572357D01*
X133713057Y-70595238D02*
X133665438Y-70690476D01*
X133665438Y-70690476D02*
X133570200Y-70785714D01*
X133570200Y-70785714D02*
X133427342Y-70928571D01*
X133427342Y-70928571D02*
X133379723Y-71023809D01*
X133379723Y-71023809D02*
X133379723Y-71119047D01*
X133617819Y-71071428D02*
X133570200Y-71166666D01*
X133570200Y-71166666D02*
X133474961Y-71261904D01*
X133474961Y-71261904D02*
X133284485Y-71309523D01*
X133284485Y-71309523D02*
X132951152Y-71309523D01*
X132951152Y-71309523D02*
X132760676Y-71261904D01*
X132760676Y-71261904D02*
X132665438Y-71166666D01*
X132665438Y-71166666D02*
X132617819Y-71071428D01*
X132617819Y-71071428D02*
X132617819Y-70880952D01*
X132617819Y-70880952D02*
X132665438Y-70785714D01*
X132665438Y-70785714D02*
X132760676Y-70690476D01*
X132760676Y-70690476D02*
X132951152Y-70642857D01*
X132951152Y-70642857D02*
X133284485Y-70642857D01*
X133284485Y-70642857D02*
X133474961Y-70690476D01*
X133474961Y-70690476D02*
X133570200Y-70785714D01*
X133570200Y-70785714D02*
X133617819Y-70880952D01*
X133617819Y-70880952D02*
X133617819Y-71071428D01*
X132617819Y-69738095D02*
X132617819Y-70214285D01*
X132617819Y-70214285D02*
X133094009Y-70261904D01*
X133094009Y-70261904D02*
X133046390Y-70214285D01*
X133046390Y-70214285D02*
X132998771Y-70119047D01*
X132998771Y-70119047D02*
X132998771Y-69880952D01*
X132998771Y-69880952D02*
X133046390Y-69785714D01*
X133046390Y-69785714D02*
X133094009Y-69738095D01*
X133094009Y-69738095D02*
X133189247Y-69690476D01*
X133189247Y-69690476D02*
X133427342Y-69690476D01*
X133427342Y-69690476D02*
X133522580Y-69738095D01*
X133522580Y-69738095D02*
X133570200Y-69785714D01*
X133570200Y-69785714D02*
X133617819Y-69880952D01*
X133617819Y-69880952D02*
X133617819Y-70119047D01*
X133617819Y-70119047D02*
X133570200Y-70214285D01*
X133570200Y-70214285D02*
X133522580Y-70261904D01*
X122347057Y-85175738D02*
X122299438Y-85270976D01*
X122299438Y-85270976D02*
X122204200Y-85366214D01*
X122204200Y-85366214D02*
X122061342Y-85509071D01*
X122061342Y-85509071D02*
X122013723Y-85604309D01*
X122013723Y-85604309D02*
X122013723Y-85699547D01*
X122251819Y-85651928D02*
X122204200Y-85747166D01*
X122204200Y-85747166D02*
X122108961Y-85842404D01*
X122108961Y-85842404D02*
X121918485Y-85890023D01*
X121918485Y-85890023D02*
X121585152Y-85890023D01*
X121585152Y-85890023D02*
X121394676Y-85842404D01*
X121394676Y-85842404D02*
X121299438Y-85747166D01*
X121299438Y-85747166D02*
X121251819Y-85651928D01*
X121251819Y-85651928D02*
X121251819Y-85461452D01*
X121251819Y-85461452D02*
X121299438Y-85366214D01*
X121299438Y-85366214D02*
X121394676Y-85270976D01*
X121394676Y-85270976D02*
X121585152Y-85223357D01*
X121585152Y-85223357D02*
X121918485Y-85223357D01*
X121918485Y-85223357D02*
X122108961Y-85270976D01*
X122108961Y-85270976D02*
X122204200Y-85366214D01*
X122204200Y-85366214D02*
X122251819Y-85461452D01*
X122251819Y-85461452D02*
X122251819Y-85651928D01*
X121251819Y-84366214D02*
X121251819Y-84556690D01*
X121251819Y-84556690D02*
X121299438Y-84651928D01*
X121299438Y-84651928D02*
X121347057Y-84699547D01*
X121347057Y-84699547D02*
X121489914Y-84794785D01*
X121489914Y-84794785D02*
X121680390Y-84842404D01*
X121680390Y-84842404D02*
X122061342Y-84842404D01*
X122061342Y-84842404D02*
X122156580Y-84794785D01*
X122156580Y-84794785D02*
X122204200Y-84747166D01*
X122204200Y-84747166D02*
X122251819Y-84651928D01*
X122251819Y-84651928D02*
X122251819Y-84461452D01*
X122251819Y-84461452D02*
X122204200Y-84366214D01*
X122204200Y-84366214D02*
X122156580Y-84318595D01*
X122156580Y-84318595D02*
X122061342Y-84270976D01*
X122061342Y-84270976D02*
X121823247Y-84270976D01*
X121823247Y-84270976D02*
X121728009Y-84318595D01*
X121728009Y-84318595D02*
X121680390Y-84366214D01*
X121680390Y-84366214D02*
X121632771Y-84461452D01*
X121632771Y-84461452D02*
X121632771Y-84651928D01*
X121632771Y-84651928D02*
X121680390Y-84747166D01*
X121680390Y-84747166D02*
X121728009Y-84794785D01*
X121728009Y-84794785D02*
X121823247Y-84842404D01*
X125014057Y-70570738D02*
X124966438Y-70665976D01*
X124966438Y-70665976D02*
X124871200Y-70761214D01*
X124871200Y-70761214D02*
X124728342Y-70904071D01*
X124728342Y-70904071D02*
X124680723Y-70999309D01*
X124680723Y-70999309D02*
X124680723Y-71094547D01*
X124918819Y-71046928D02*
X124871200Y-71142166D01*
X124871200Y-71142166D02*
X124775961Y-71237404D01*
X124775961Y-71237404D02*
X124585485Y-71285023D01*
X124585485Y-71285023D02*
X124252152Y-71285023D01*
X124252152Y-71285023D02*
X124061676Y-71237404D01*
X124061676Y-71237404D02*
X123966438Y-71142166D01*
X123966438Y-71142166D02*
X123918819Y-71046928D01*
X123918819Y-71046928D02*
X123918819Y-70856452D01*
X123918819Y-70856452D02*
X123966438Y-70761214D01*
X123966438Y-70761214D02*
X124061676Y-70665976D01*
X124061676Y-70665976D02*
X124252152Y-70618357D01*
X124252152Y-70618357D02*
X124585485Y-70618357D01*
X124585485Y-70618357D02*
X124775961Y-70665976D01*
X124775961Y-70665976D02*
X124871200Y-70761214D01*
X124871200Y-70761214D02*
X124918819Y-70856452D01*
X124918819Y-70856452D02*
X124918819Y-71046928D01*
X123918819Y-70285023D02*
X123918819Y-69618357D01*
X123918819Y-69618357D02*
X124918819Y-70046928D01*
X133205580Y-67848166D02*
X133253200Y-67895785D01*
X133253200Y-67895785D02*
X133300819Y-68038642D01*
X133300819Y-68038642D02*
X133300819Y-68133880D01*
X133300819Y-68133880D02*
X133253200Y-68276737D01*
X133253200Y-68276737D02*
X133157961Y-68371975D01*
X133157961Y-68371975D02*
X133062723Y-68419594D01*
X133062723Y-68419594D02*
X132872247Y-68467213D01*
X132872247Y-68467213D02*
X132729390Y-68467213D01*
X132729390Y-68467213D02*
X132538914Y-68419594D01*
X132538914Y-68419594D02*
X132443676Y-68371975D01*
X132443676Y-68371975D02*
X132348438Y-68276737D01*
X132348438Y-68276737D02*
X132300819Y-68133880D01*
X132300819Y-68133880D02*
X132300819Y-68038642D01*
X132300819Y-68038642D02*
X132348438Y-67895785D01*
X132348438Y-67895785D02*
X132396057Y-67848166D01*
X132300819Y-66991023D02*
X132300819Y-67181499D01*
X132300819Y-67181499D02*
X132348438Y-67276737D01*
X132348438Y-67276737D02*
X132396057Y-67324356D01*
X132396057Y-67324356D02*
X132538914Y-67419594D01*
X132538914Y-67419594D02*
X132729390Y-67467213D01*
X132729390Y-67467213D02*
X133110342Y-67467213D01*
X133110342Y-67467213D02*
X133205580Y-67419594D01*
X133205580Y-67419594D02*
X133253200Y-67371975D01*
X133253200Y-67371975D02*
X133300819Y-67276737D01*
X133300819Y-67276737D02*
X133300819Y-67086261D01*
X133300819Y-67086261D02*
X133253200Y-66991023D01*
X133253200Y-66991023D02*
X133205580Y-66943404D01*
X133205580Y-66943404D02*
X133110342Y-66895785D01*
X133110342Y-66895785D02*
X132872247Y-66895785D01*
X132872247Y-66895785D02*
X132777009Y-66943404D01*
X132777009Y-66943404D02*
X132729390Y-66991023D01*
X132729390Y-66991023D02*
X132681771Y-67086261D01*
X132681771Y-67086261D02*
X132681771Y-67276737D01*
X132681771Y-67276737D02*
X132729390Y-67371975D01*
X132729390Y-67371975D02*
X132777009Y-67419594D01*
X132777009Y-67419594D02*
X132872247Y-67467213D01*
X121648580Y-82453166D02*
X121696200Y-82500785D01*
X121696200Y-82500785D02*
X121743819Y-82643642D01*
X121743819Y-82643642D02*
X121743819Y-82738880D01*
X121743819Y-82738880D02*
X121696200Y-82881737D01*
X121696200Y-82881737D02*
X121600961Y-82976975D01*
X121600961Y-82976975D02*
X121505723Y-83024594D01*
X121505723Y-83024594D02*
X121315247Y-83072213D01*
X121315247Y-83072213D02*
X121172390Y-83072213D01*
X121172390Y-83072213D02*
X120981914Y-83024594D01*
X120981914Y-83024594D02*
X120886676Y-82976975D01*
X120886676Y-82976975D02*
X120791438Y-82881737D01*
X120791438Y-82881737D02*
X120743819Y-82738880D01*
X120743819Y-82738880D02*
X120743819Y-82643642D01*
X120743819Y-82643642D02*
X120791438Y-82500785D01*
X120791438Y-82500785D02*
X120839057Y-82453166D01*
X121077152Y-81596023D02*
X121743819Y-81596023D01*
X120696200Y-81834118D02*
X121410485Y-82072213D01*
X121410485Y-82072213D02*
X121410485Y-81453166D01*
X137331057Y-74761738D02*
X137283438Y-74856976D01*
X137283438Y-74856976D02*
X137188200Y-74952214D01*
X137188200Y-74952214D02*
X137045342Y-75095071D01*
X137045342Y-75095071D02*
X136997723Y-75190309D01*
X136997723Y-75190309D02*
X136997723Y-75285547D01*
X137235819Y-75237928D02*
X137188200Y-75333166D01*
X137188200Y-75333166D02*
X137092961Y-75428404D01*
X137092961Y-75428404D02*
X136902485Y-75476023D01*
X136902485Y-75476023D02*
X136569152Y-75476023D01*
X136569152Y-75476023D02*
X136378676Y-75428404D01*
X136378676Y-75428404D02*
X136283438Y-75333166D01*
X136283438Y-75333166D02*
X136235819Y-75237928D01*
X136235819Y-75237928D02*
X136235819Y-75047452D01*
X136235819Y-75047452D02*
X136283438Y-74952214D01*
X136283438Y-74952214D02*
X136378676Y-74856976D01*
X136378676Y-74856976D02*
X136569152Y-74809357D01*
X136569152Y-74809357D02*
X136902485Y-74809357D01*
X136902485Y-74809357D02*
X137092961Y-74856976D01*
X137092961Y-74856976D02*
X137188200Y-74952214D01*
X137188200Y-74952214D02*
X137235819Y-75047452D01*
X137235819Y-75047452D02*
X137235819Y-75237928D01*
X137235819Y-73856976D02*
X137235819Y-74428404D01*
X137235819Y-74142690D02*
X136235819Y-74142690D01*
X136235819Y-74142690D02*
X136378676Y-74237928D01*
X136378676Y-74237928D02*
X136473914Y-74333166D01*
X136473914Y-74333166D02*
X136521533Y-74428404D01*
X118033333Y-71529580D02*
X117985714Y-71577200D01*
X117985714Y-71577200D02*
X117842857Y-71624819D01*
X117842857Y-71624819D02*
X117747619Y-71624819D01*
X117747619Y-71624819D02*
X117604762Y-71577200D01*
X117604762Y-71577200D02*
X117509524Y-71481961D01*
X117509524Y-71481961D02*
X117461905Y-71386723D01*
X117461905Y-71386723D02*
X117414286Y-71196247D01*
X117414286Y-71196247D02*
X117414286Y-71053390D01*
X117414286Y-71053390D02*
X117461905Y-70862914D01*
X117461905Y-70862914D02*
X117509524Y-70767676D01*
X117509524Y-70767676D02*
X117604762Y-70672438D01*
X117604762Y-70672438D02*
X117747619Y-70624819D01*
X117747619Y-70624819D02*
X117842857Y-70624819D01*
X117842857Y-70624819D02*
X117985714Y-70672438D01*
X117985714Y-70672438D02*
X118033333Y-70720057D01*
X118604762Y-71053390D02*
X118509524Y-71005771D01*
X118509524Y-71005771D02*
X118461905Y-70958152D01*
X118461905Y-70958152D02*
X118414286Y-70862914D01*
X118414286Y-70862914D02*
X118414286Y-70815295D01*
X118414286Y-70815295D02*
X118461905Y-70720057D01*
X118461905Y-70720057D02*
X118509524Y-70672438D01*
X118509524Y-70672438D02*
X118604762Y-70624819D01*
X118604762Y-70624819D02*
X118795238Y-70624819D01*
X118795238Y-70624819D02*
X118890476Y-70672438D01*
X118890476Y-70672438D02*
X118938095Y-70720057D01*
X118938095Y-70720057D02*
X118985714Y-70815295D01*
X118985714Y-70815295D02*
X118985714Y-70862914D01*
X118985714Y-70862914D02*
X118938095Y-70958152D01*
X118938095Y-70958152D02*
X118890476Y-71005771D01*
X118890476Y-71005771D02*
X118795238Y-71053390D01*
X118795238Y-71053390D02*
X118604762Y-71053390D01*
X118604762Y-71053390D02*
X118509524Y-71101009D01*
X118509524Y-71101009D02*
X118461905Y-71148628D01*
X118461905Y-71148628D02*
X118414286Y-71243866D01*
X118414286Y-71243866D02*
X118414286Y-71434342D01*
X118414286Y-71434342D02*
X118461905Y-71529580D01*
X118461905Y-71529580D02*
X118509524Y-71577200D01*
X118509524Y-71577200D02*
X118604762Y-71624819D01*
X118604762Y-71624819D02*
X118795238Y-71624819D01*
X118795238Y-71624819D02*
X118890476Y-71577200D01*
X118890476Y-71577200D02*
X118938095Y-71529580D01*
X118938095Y-71529580D02*
X118985714Y-71434342D01*
X118985714Y-71434342D02*
X118985714Y-71243866D01*
X118985714Y-71243866D02*
X118938095Y-71148628D01*
X118938095Y-71148628D02*
X118890476Y-71101009D01*
X118890476Y-71101009D02*
X118795238Y-71053390D01*
X120870819Y-78476404D02*
X121680342Y-78476404D01*
X121680342Y-78476404D02*
X121775580Y-78428785D01*
X121775580Y-78428785D02*
X121823200Y-78381166D01*
X121823200Y-78381166D02*
X121870819Y-78285928D01*
X121870819Y-78285928D02*
X121870819Y-78095452D01*
X121870819Y-78095452D02*
X121823200Y-78000214D01*
X121823200Y-78000214D02*
X121775580Y-77952595D01*
X121775580Y-77952595D02*
X121680342Y-77904976D01*
X121680342Y-77904976D02*
X120870819Y-77904976D01*
X121870819Y-76904976D02*
X121870819Y-77476404D01*
X121870819Y-77190690D02*
X120870819Y-77190690D01*
X120870819Y-77190690D02*
X121013676Y-77285928D01*
X121013676Y-77285928D02*
X121108914Y-77381166D01*
X121108914Y-77381166D02*
X121156533Y-77476404D01*
X137471057Y-70570738D02*
X137423438Y-70665976D01*
X137423438Y-70665976D02*
X137328200Y-70761214D01*
X137328200Y-70761214D02*
X137185342Y-70904071D01*
X137185342Y-70904071D02*
X137137723Y-70999309D01*
X137137723Y-70999309D02*
X137137723Y-71094547D01*
X137375819Y-71046928D02*
X137328200Y-71142166D01*
X137328200Y-71142166D02*
X137232961Y-71237404D01*
X137232961Y-71237404D02*
X137042485Y-71285023D01*
X137042485Y-71285023D02*
X136709152Y-71285023D01*
X136709152Y-71285023D02*
X136518676Y-71237404D01*
X136518676Y-71237404D02*
X136423438Y-71142166D01*
X136423438Y-71142166D02*
X136375819Y-71046928D01*
X136375819Y-71046928D02*
X136375819Y-70856452D01*
X136375819Y-70856452D02*
X136423438Y-70761214D01*
X136423438Y-70761214D02*
X136518676Y-70665976D01*
X136518676Y-70665976D02*
X136709152Y-70618357D01*
X136709152Y-70618357D02*
X137042485Y-70618357D01*
X137042485Y-70618357D02*
X137232961Y-70665976D01*
X137232961Y-70665976D02*
X137328200Y-70761214D01*
X137328200Y-70761214D02*
X137375819Y-70856452D01*
X137375819Y-70856452D02*
X137375819Y-71046928D01*
X136375819Y-70285023D02*
X136375819Y-69665976D01*
X136375819Y-69665976D02*
X136756771Y-69999309D01*
X136756771Y-69999309D02*
X136756771Y-69856452D01*
X136756771Y-69856452D02*
X136804390Y-69761214D01*
X136804390Y-69761214D02*
X136852009Y-69713595D01*
X136852009Y-69713595D02*
X136947247Y-69665976D01*
X136947247Y-69665976D02*
X137185342Y-69665976D01*
X137185342Y-69665976D02*
X137280580Y-69713595D01*
X137280580Y-69713595D02*
X137328200Y-69761214D01*
X137328200Y-69761214D02*
X137375819Y-69856452D01*
X137375819Y-69856452D02*
X137375819Y-70142166D01*
X137375819Y-70142166D02*
X137328200Y-70237404D01*
X137328200Y-70237404D02*
X137280580Y-70285023D01*
X135502580Y-77754166D02*
X135550200Y-77801785D01*
X135550200Y-77801785D02*
X135597819Y-77944642D01*
X135597819Y-77944642D02*
X135597819Y-78039880D01*
X135597819Y-78039880D02*
X135550200Y-78182737D01*
X135550200Y-78182737D02*
X135454961Y-78277975D01*
X135454961Y-78277975D02*
X135359723Y-78325594D01*
X135359723Y-78325594D02*
X135169247Y-78373213D01*
X135169247Y-78373213D02*
X135026390Y-78373213D01*
X135026390Y-78373213D02*
X134835914Y-78325594D01*
X134835914Y-78325594D02*
X134740676Y-78277975D01*
X134740676Y-78277975D02*
X134645438Y-78182737D01*
X134645438Y-78182737D02*
X134597819Y-78039880D01*
X134597819Y-78039880D02*
X134597819Y-77944642D01*
X134597819Y-77944642D02*
X134645438Y-77801785D01*
X134645438Y-77801785D02*
X134693057Y-77754166D01*
X134597819Y-77420832D02*
X134597819Y-76801785D01*
X134597819Y-76801785D02*
X134978771Y-77135118D01*
X134978771Y-77135118D02*
X134978771Y-76992261D01*
X134978771Y-76992261D02*
X135026390Y-76897023D01*
X135026390Y-76897023D02*
X135074009Y-76849404D01*
X135074009Y-76849404D02*
X135169247Y-76801785D01*
X135169247Y-76801785D02*
X135407342Y-76801785D01*
X135407342Y-76801785D02*
X135502580Y-76849404D01*
X135502580Y-76849404D02*
X135550200Y-76897023D01*
X135550200Y-76897023D02*
X135597819Y-76992261D01*
X135597819Y-76992261D02*
X135597819Y-77277975D01*
X135597819Y-77277975D02*
X135550200Y-77373213D01*
X135550200Y-77373213D02*
X135502580Y-77420832D01*
X130919580Y-86644166D02*
X130967200Y-86691785D01*
X130967200Y-86691785D02*
X131014819Y-86834642D01*
X131014819Y-86834642D02*
X131014819Y-86929880D01*
X131014819Y-86929880D02*
X130967200Y-87072737D01*
X130967200Y-87072737D02*
X130871961Y-87167975D01*
X130871961Y-87167975D02*
X130776723Y-87215594D01*
X130776723Y-87215594D02*
X130586247Y-87263213D01*
X130586247Y-87263213D02*
X130443390Y-87263213D01*
X130443390Y-87263213D02*
X130252914Y-87215594D01*
X130252914Y-87215594D02*
X130157676Y-87167975D01*
X130157676Y-87167975D02*
X130062438Y-87072737D01*
X130062438Y-87072737D02*
X130014819Y-86929880D01*
X130014819Y-86929880D02*
X130014819Y-86834642D01*
X130014819Y-86834642D02*
X130062438Y-86691785D01*
X130062438Y-86691785D02*
X130110057Y-86644166D01*
X130014819Y-85739404D02*
X130014819Y-86215594D01*
X130014819Y-86215594D02*
X130491009Y-86263213D01*
X130491009Y-86263213D02*
X130443390Y-86215594D01*
X130443390Y-86215594D02*
X130395771Y-86120356D01*
X130395771Y-86120356D02*
X130395771Y-85882261D01*
X130395771Y-85882261D02*
X130443390Y-85787023D01*
X130443390Y-85787023D02*
X130491009Y-85739404D01*
X130491009Y-85739404D02*
X130586247Y-85691785D01*
X130586247Y-85691785D02*
X130824342Y-85691785D01*
X130824342Y-85691785D02*
X130919580Y-85739404D01*
X130919580Y-85739404D02*
X130967200Y-85787023D01*
X130967200Y-85787023D02*
X131014819Y-85882261D01*
X131014819Y-85882261D02*
X131014819Y-86120356D01*
X131014819Y-86120356D02*
X130967200Y-86215594D01*
X130967200Y-86215594D02*
X130919580Y-86263213D01*
D11*
%TO.C,J1*%
X113351000Y-85456000D02*
X113351000Y-67616000D01*
X116011000Y-67616000D02*
X113351000Y-67616000D01*
X116011000Y-85456000D02*
X113351000Y-85456000D01*
X116011000Y-85456000D02*
X116011000Y-67616000D01*
X116011000Y-86726000D02*
X116011000Y-88056000D01*
X116011000Y-88056000D02*
X114681000Y-88056000D01*
%TO.C,U2*%
X118280000Y-73640000D02*
X120860000Y-73640000D01*
X120860000Y-74620000D02*
X120860000Y-73640000D01*
X120860000Y-77380000D02*
X120860000Y-78360000D01*
X120860000Y-78360000D02*
X118140000Y-78360000D01*
X117730000Y-73790000D02*
X117490000Y-73460000D01*
X117970000Y-73460000D01*
X117730000Y-73790000D01*
G36*
X117730000Y-73790000D02*
G01*
X117490000Y-73460000D01*
X117970000Y-73460000D01*
X117730000Y-73790000D01*
G37*
%TO.C,C7*%
X126749420Y-67171500D02*
X127030580Y-67171500D01*
X126749420Y-68191500D02*
X127030580Y-68191500D01*
%TO.C,Q2*%
X132440000Y-83937500D02*
X132440000Y-83287500D01*
X132440000Y-83937500D02*
X132440000Y-85612500D01*
X135560000Y-83937500D02*
X135560000Y-83287500D01*
X135560000Y-83937500D02*
X135560000Y-84587500D01*
%TO.C,Q4*%
X126460000Y-83429500D02*
X126460000Y-82779500D01*
X126460000Y-83429500D02*
X126460000Y-85104500D01*
X129580000Y-83429500D02*
X129580000Y-82779500D01*
X129580000Y-83429500D02*
X129580000Y-84079500D01*
%TO.C,Q5*%
X129190000Y-70500000D02*
X129190000Y-69850000D01*
X129190000Y-70500000D02*
X129190000Y-72175000D01*
X132310000Y-70500000D02*
X132310000Y-69850000D01*
X132310000Y-70500000D02*
X132310000Y-71150000D01*
%TO.C,Q6*%
X122777000Y-85207500D02*
X122777000Y-84557500D01*
X122777000Y-85207500D02*
X122777000Y-86882500D01*
X125897000Y-85207500D02*
X125897000Y-84557500D01*
X125897000Y-85207500D02*
X125897000Y-85857500D01*
%TO.C,Q7*%
X125444000Y-70475500D02*
X125444000Y-69825500D01*
X125444000Y-70475500D02*
X125444000Y-72150500D01*
X128564000Y-70475500D02*
X128564000Y-69825500D01*
X128564000Y-70475500D02*
X128564000Y-71125500D01*
%TO.C,C6*%
X130419420Y-67171500D02*
X130700580Y-67171500D01*
X130419420Y-68191500D02*
X130700580Y-68191500D01*
%TO.C,C4*%
X123434420Y-81776500D02*
X123715580Y-81776500D01*
X123434420Y-82796500D02*
X123715580Y-82796500D01*
%TO.C,Q1*%
X132821000Y-74666500D02*
X132821000Y-74016500D01*
X132821000Y-74666500D02*
X132821000Y-75316500D01*
X135941000Y-74666500D02*
X135941000Y-72991500D01*
X135941000Y-74666500D02*
X135941000Y-75316500D01*
%TO.C,C8*%
X118059420Y-72090000D02*
X118340580Y-72090000D01*
X118059420Y-73110000D02*
X118340580Y-73110000D01*
%TO.C,U1*%
X122315000Y-77587500D02*
X122315000Y-75637500D01*
X122315000Y-77587500D02*
X122315000Y-79537500D01*
X131185000Y-77587500D02*
X131185000Y-74137500D01*
X131185000Y-77587500D02*
X131185000Y-79537500D01*
%TO.C,Q3*%
X132821000Y-70475500D02*
X132821000Y-69825500D01*
X132821000Y-70475500D02*
X132821000Y-71125500D01*
X135941000Y-70475500D02*
X135941000Y-68800500D01*
X135941000Y-70475500D02*
X135941000Y-71125500D01*
%TO.C,C3*%
X134633000Y-80268080D02*
X134633000Y-79986920D01*
X135653000Y-80268080D02*
X135653000Y-79986920D01*
%TO.C,C5*%
X128133420Y-85967500D02*
X128414580Y-85967500D01*
X128133420Y-86987500D02*
X128414580Y-86987500D01*
%TD*%
M02*
